M48
;Layer_Color=9474304
;FILE_FORMAT=4:4
METRIC,TZ
;TYPE=PLATED
T1F00S00C1.0000
T2F00S00C3.0000
%
T01
X1591900Y523500
Y548900
Y574300
Y599700
Y625100
X1566500
Y599700
Y574300
Y548900
Y523500
X1431900
X1406500
Y548900
X1431900
Y574300
X1406500
Y599700
X1431900
Y625100
X1406500
X1271900
Y599700
Y574300
Y548900
Y523500
X1246500
Y548900
Y574300
Y599700
Y625100
X1111900
Y599700
Y574300
Y548900
Y523500
X1086500
Y548900
Y574300
Y599700
Y625100
X951900
Y599700
Y574300
Y548900
Y523500
X926500
Y548900
Y574300
Y599700
Y625100
T02
X1598500Y401500
X1438500
X1278500
X1118500
X958500
X958000Y871000
X1118000
X1278000
X1438000
X1598000
M30
