M48
;Layer_Color=9474304
;FILE_FORMAT=4:4
METRIC,TZ
;TYPE=PLATED
T1F00S00C1.0000
%
T01
X472000Y353200
Y378600
X497400
Y353200
X790000
Y378600
X815400
Y353200
X1108000
Y378600
X1133400
Y353200
X1426000
Y378600
X1451400
Y353200
X1744000
Y378600
X1769400
Y353200
X2062000
Y378600
X2087400
Y353200
Y404000
Y429400
Y454800
X2062000
Y429400
Y404000
X1769400
Y429400
Y454800
X1744000
Y429400
Y404000
X1451400
Y429400
Y454800
X1426000
Y429400
Y404000
X1133400
Y429400
Y454800
X1108000
Y429400
Y404000
X815400
Y429400
Y454800
Y761200
Y786600
X790000
Y761200
X497400
Y786600
X472000
Y761200
Y454800
X497400
Y429400
X472000
Y404000
X497400
X790000
Y429400
Y454800
Y812000
Y837400
Y862800
X497400
X472000
Y837400
X497400
Y812000
X472000
X815400
Y837400
Y862800
M30
