G04 Layer_Physical_Order=1*
G04 Layer_Color=255*
%FSLAX44Y44*%
%MOMM*%
G71*
G01*
G75*
%ADD10C,1.0000*%
%ADD11R,1.0000X1.0000*%
%ADD12R,1.9000X0.9000*%
%ADD13R,1.2000X1.4000*%
%ADD14R,0.5000X2.0000*%
%ADD15R,0.5000X1.0000*%
%ADD16R,0.8000X0.8000*%
%ADD17R,0.9000X28.8000*%
%ADD18R,1.2000X0.8000*%
%ADD19R,0.8000X0.9000*%
%ADD20R,0.9000X33.3000*%
%ADD21R,16.3000X7.7000*%
%ADD22R,7.6000X0.8000*%
%ADD23R,0.4000X0.8000*%
%ADD24R,0.9000X6.9000*%
%ADD25R,5.5000X0.8000*%
%ADD26R,5.6000X0.8000*%
%ADD27R,5.2000X0.8000*%
%ADD28R,5.3000X0.8000*%
%ADD29R,4.8000X0.8000*%
%ADD30R,5.1000X0.8000*%
%ADD31R,4.7000X0.8000*%
%ADD32R,2.2000X0.8000*%
%ADD33R,1.0000X11.7200*%
%ADD34R,22.6000X1.0000*%
%ADD35R,1.0000X11.7000*%
%ADD36R,3.4000X1.0000*%
%ADD37R,0.9000X12.2000*%
%ADD38R,1.3000X2.4000*%
%ADD39R,16.8000X1.3000*%
%ADD40R,13.0000X1.3000*%
G04:AMPARAMS|DCode=41|XSize=1mm|YSize=10.0253mm|CornerRadius=0mm|HoleSize=0mm|Usage=FLASHONLY|Rotation=50.195|XOffset=0mm|YOffset=0mm|HoleType=Round|Shape=Rectangle|*
%AMROTATEDRECTD41*
4,1,4,3.5307,-3.5931,-4.1709,2.8249,-3.5307,3.5931,4.1709,-2.8249,3.5307,-3.5931,0.0*
%
%ADD41ROTATEDRECTD41*%

%ADD42R,2.0000X2.0000*%
D10*
X395019Y383703D02*
G03*
X395019Y373897I981J-4903D01*
G01*
X409981D02*
G03*
X409981Y383703I-981J4903D01*
G01*
Y398897D02*
G03*
X409981Y408703I-981J4903D01*
G01*
X395019D02*
G03*
X395019Y398897I981J-4903D01*
G01*
Y434703D02*
G03*
X395019Y424897I981J-4903D01*
G01*
X409981D02*
G03*
X409981Y434703I-981J4903D01*
G01*
Y450897D02*
G03*
X409981Y460703I-981J4903D01*
G01*
X395019D02*
G03*
X395019Y450897I981J-4903D01*
G01*
X557020Y383703D02*
G03*
X557020Y373897I981J-4903D01*
G01*
X571981D02*
G03*
X571981Y383703I-981J4903D01*
G01*
Y398897D02*
G03*
X571981Y408703I-981J4903D01*
G01*
Y424897D02*
G03*
X571981Y434703I-981J4903D01*
G01*
X571981Y449897D02*
G03*
X571981Y459703I-981J4903D01*
G01*
X557020D02*
G03*
X557020Y449897I981J-4903D01*
G01*
X557020Y434703D02*
G03*
X557020Y424897I981J-4903D01*
G01*
Y408703D02*
G03*
X557020Y398897I981J-4903D01*
G01*
X713019Y383703D02*
G03*
X713019Y373897I981J-4903D01*
G01*
X727981D02*
G03*
X727981Y383703I-981J4903D01*
G01*
Y398897D02*
G03*
X727981Y408703I-981J4903D01*
G01*
X713019D02*
G03*
X713019Y398897I981J-4903D01*
G01*
Y434703D02*
G03*
X713019Y424897I981J-4903D01*
G01*
X727981D02*
G03*
X727981Y434703I-981J4903D01*
G01*
Y450897D02*
G03*
X727981Y460703I-981J4903D01*
G01*
X713019D02*
G03*
X713019Y450897I981J-4903D01*
G01*
X875020Y383703D02*
G03*
X875020Y373897I981J-4903D01*
G01*
X889981D02*
G03*
X889981Y383703I-981J4903D01*
G01*
Y398897D02*
G03*
X889981Y408703I-981J4903D01*
G01*
Y424897D02*
G03*
X889981Y434703I-981J4903D01*
G01*
X889981Y449897D02*
G03*
X889981Y459703I-981J4903D01*
G01*
X875020D02*
G03*
X875020Y449897I981J-4903D01*
G01*
X875020Y434703D02*
G03*
X875020Y424897I981J-4903D01*
G01*
Y408703D02*
G03*
X875020Y398897I981J-4903D01*
G01*
X1031020Y383703D02*
G03*
X1031020Y373897I981J-4903D01*
G01*
X1045981D02*
G03*
X1045981Y383703I-981J4903D01*
G01*
Y398897D02*
G03*
X1045981Y408703I-981J4903D01*
G01*
X1031020D02*
G03*
X1031020Y398897I981J-4903D01*
G01*
Y434703D02*
G03*
X1031020Y424897I981J-4903D01*
G01*
X1045981D02*
G03*
X1045981Y434703I-981J4903D01*
G01*
Y450897D02*
G03*
X1045981Y460703I-981J4903D01*
G01*
X1031020D02*
G03*
X1031020Y450897I981J-4903D01*
G01*
X1193019Y383703D02*
G03*
X1193019Y373897I981J-4903D01*
G01*
X1207981D02*
G03*
X1207981Y383703I-981J4903D01*
G01*
Y398897D02*
G03*
X1207981Y408703I-981J4903D01*
G01*
X1193019D02*
G03*
X1193019Y398897I981J-4903D01*
G01*
Y434703D02*
G03*
X1193019Y424897I981J-4903D01*
G01*
X1207981D02*
G03*
X1207981Y434703I-981J4903D01*
G01*
X1207981Y449897D02*
G03*
X1207981Y459703I-981J4903D01*
G01*
X1193019D02*
G03*
X1193019Y449897I981J-4903D01*
G01*
X1349019Y383703D02*
G03*
X1349019Y373897I981J-4903D01*
G01*
X1363981D02*
G03*
X1363981Y383703I-981J4903D01*
G01*
Y398897D02*
G03*
X1363981Y408703I-981J4903D01*
G01*
Y424897D02*
G03*
X1363981Y434703I-981J4903D01*
G01*
Y450897D02*
G03*
X1363981Y460703I-981J4903D01*
G01*
X1349019D02*
G03*
X1349019Y450897I981J-4903D01*
G01*
Y434703D02*
G03*
X1349019Y424897I981J-4903D01*
G01*
Y408703D02*
G03*
X1349019Y398897I981J-4903D01*
G01*
X1511019Y383703D02*
G03*
X1511019Y373897I981J-4903D01*
G01*
X1525981D02*
G03*
X1525981Y383703I-981J4903D01*
G01*
Y398897D02*
G03*
X1525981Y408703I-981J4903D01*
G01*
X1511019D02*
G03*
X1511019Y398897I981J-4903D01*
G01*
Y434703D02*
G03*
X1511019Y424897I981J-4903D01*
G01*
X1525981D02*
G03*
X1525981Y434703I-981J4903D01*
G01*
X1525981Y449897D02*
G03*
X1525981Y459703I-981J4903D01*
G01*
X1511019D02*
G03*
X1511019Y449897I981J-4903D01*
G01*
X1667019Y383703D02*
G03*
X1667019Y373897I981J-4903D01*
G01*
X1681981D02*
G03*
X1681981Y383703I-981J4903D01*
G01*
Y398897D02*
G03*
X1681981Y408703I-981J4903D01*
G01*
X1667019D02*
G03*
X1667019Y398897I981J-4903D01*
G01*
Y434703D02*
G03*
X1667019Y424897I981J-4903D01*
G01*
X1681981D02*
G03*
X1681981Y434703I-981J4903D01*
G01*
Y450897D02*
G03*
X1681981Y460703I-981J4903D01*
G01*
X1667019D02*
G03*
X1667019Y450897I981J-4903D01*
G01*
X1829019Y383703D02*
G03*
X1829019Y373897I981J-4903D01*
G01*
X1843981D02*
G03*
X1843981Y383703I-981J4903D01*
G01*
Y398897D02*
G03*
X1843981Y408703I-981J4903D01*
G01*
Y424897D02*
G03*
X1843981Y434703I-981J4903D01*
G01*
X1843981Y449897D02*
G03*
X1843981Y459703I-981J4903D01*
G01*
X1829019D02*
G03*
X1829019Y449897I981J-4903D01*
G01*
X1829019Y434703D02*
G03*
X1829019Y424897I981J-4903D01*
G01*
Y408703D02*
G03*
X1829019Y398897I981J-4903D01*
G01*
X1985019Y383703D02*
G03*
X1985019Y373897I981J-4903D01*
G01*
X1999981D02*
G03*
X1999981Y383703I-981J4903D01*
G01*
Y398897D02*
G03*
X1999981Y408703I-981J4903D01*
G01*
X1985019D02*
G03*
X1985019Y398897I981J-4903D01*
G01*
Y434703D02*
G03*
X1985019Y424897I981J-4903D01*
G01*
X1999981D02*
G03*
X1999981Y434703I-981J4903D01*
G01*
Y450897D02*
G03*
X1999981Y460703I-981J4903D01*
G01*
X1985019D02*
G03*
X1985019Y450897I981J-4903D01*
G01*
X2147020Y383703D02*
G03*
X2147020Y373897I981J-4903D01*
G01*
X2161981D02*
G03*
X2161981Y383703I-981J4903D01*
G01*
Y398897D02*
G03*
X2161981Y408703I-981J4903D01*
G01*
Y424897D02*
G03*
X2161981Y434703I-981J4903D01*
G01*
X2161981Y449897D02*
G03*
X2161981Y459703I-981J4903D01*
G01*
X2147020D02*
G03*
X2147020Y449897I981J-4903D01*
G01*
X2147020Y434703D02*
G03*
X2147020Y424897I981J-4903D01*
G01*
Y408703D02*
G03*
X2147020Y398897I981J-4903D01*
G01*
X889981Y832897D02*
G03*
X889981Y842703I-981J4903D01*
G01*
X889981Y857897D02*
G03*
X889981Y867703I-981J4903D01*
G01*
X889981Y806897D02*
G03*
X889981Y816703I-981J4903D01*
G01*
Y781897D02*
G03*
X889981Y791703I-981J4903D01*
G01*
X875020Y842703D02*
G03*
X875020Y832897I981J-4903D01*
G01*
Y816703D02*
G03*
X875020Y806897I981J-4903D01*
G01*
Y791703D02*
G03*
X875020Y781897I981J-4903D01*
G01*
X875020Y867703D02*
G03*
X875020Y857897I981J-4903D01*
G01*
X727981Y858897D02*
G03*
X727981Y868703I-981J4903D01*
G01*
X713019D02*
G03*
X713019Y858897I981J-4903D01*
G01*
Y842703D02*
G03*
X713019Y832897I981J-4903D01*
G01*
X727981D02*
G03*
X727981Y842703I-981J4903D01*
G01*
Y806897D02*
G03*
X727981Y816703I-981J4903D01*
G01*
X713019D02*
G03*
X713019Y806897I981J-4903D01*
G01*
Y791703D02*
G03*
X713019Y781897I981J-4903D01*
G01*
X727981D02*
G03*
X727981Y791703I-981J4903D01*
G01*
X571981Y832897D02*
G03*
X571981Y842703I-981J4903D01*
G01*
X571981Y857897D02*
G03*
X571981Y867703I-981J4903D01*
G01*
X571981Y806897D02*
G03*
X571981Y816703I-981J4903D01*
G01*
Y781897D02*
G03*
X571981Y791703I-981J4903D01*
G01*
X557020Y842703D02*
G03*
X557020Y832897I981J-4903D01*
G01*
Y816703D02*
G03*
X557020Y806897I981J-4903D01*
G01*
Y791703D02*
G03*
X557020Y781897I981J-4903D01*
G01*
X557020Y867703D02*
G03*
X557020Y857897I981J-4903D01*
G01*
X409981Y858897D02*
G03*
X409981Y868703I-981J4903D01*
G01*
X395019D02*
G03*
X395019Y858897I981J-4903D01*
G01*
Y842703D02*
G03*
X395019Y832897I981J-4903D01*
G01*
X409981D02*
G03*
X409981Y842703I-981J4903D01*
G01*
Y806897D02*
G03*
X409981Y816703I-981J4903D01*
G01*
X395019D02*
G03*
X395019Y806897I981J-4903D01*
G01*
Y791703D02*
G03*
X395019Y781897I981J-4903D01*
G01*
X409981D02*
G03*
X409981Y791703I-981J4903D01*
G01*
D11*
X394000Y378800D02*
D03*
X411000D02*
D03*
Y403800D02*
D03*
Y429800D02*
D03*
Y455800D02*
D03*
X394000D02*
D03*
Y429800D02*
D03*
Y403800D02*
D03*
X556000Y378800D02*
D03*
X573000D02*
D03*
Y403800D02*
D03*
Y429800D02*
D03*
X573000Y454800D02*
D03*
X556000D02*
D03*
X556000Y429800D02*
D03*
Y403800D02*
D03*
X712000Y378800D02*
D03*
X729000D02*
D03*
Y403800D02*
D03*
X712000D02*
D03*
Y429800D02*
D03*
X729000D02*
D03*
Y455800D02*
D03*
X712000D02*
D03*
X874000Y378800D02*
D03*
X891000D02*
D03*
Y403800D02*
D03*
Y429800D02*
D03*
X891000Y454800D02*
D03*
X874000D02*
D03*
X874000Y429800D02*
D03*
Y403800D02*
D03*
X1030000Y378800D02*
D03*
X1047000D02*
D03*
Y403800D02*
D03*
X1030000D02*
D03*
Y429800D02*
D03*
X1047000D02*
D03*
Y455800D02*
D03*
X1030000D02*
D03*
X1192000Y378800D02*
D03*
X1209000D02*
D03*
Y403800D02*
D03*
X1192000D02*
D03*
Y429800D02*
D03*
X1209000D02*
D03*
X1209000Y454800D02*
D03*
X1192000D02*
D03*
X1348000Y378800D02*
D03*
X1365000D02*
D03*
Y403800D02*
D03*
Y429800D02*
D03*
Y455800D02*
D03*
X1348000D02*
D03*
Y429800D02*
D03*
Y403800D02*
D03*
X1510000Y378800D02*
D03*
X1527000D02*
D03*
Y403800D02*
D03*
X1510000D02*
D03*
Y429800D02*
D03*
X1527000D02*
D03*
X1527000Y454800D02*
D03*
X1510000D02*
D03*
X1666000Y378800D02*
D03*
X1683000D02*
D03*
Y403800D02*
D03*
Y429800D02*
D03*
Y455800D02*
D03*
X1666000D02*
D03*
Y429800D02*
D03*
Y403800D02*
D03*
X1828000Y378800D02*
D03*
X1845000D02*
D03*
Y403800D02*
D03*
Y429800D02*
D03*
X1845000Y454800D02*
D03*
X1828000D02*
D03*
X1828000Y429800D02*
D03*
Y403800D02*
D03*
X1984000Y378800D02*
D03*
X2001000D02*
D03*
Y403800D02*
D03*
X1984000D02*
D03*
Y429800D02*
D03*
X2001000D02*
D03*
Y455800D02*
D03*
X1984000D02*
D03*
X2146000Y378800D02*
D03*
X2163000D02*
D03*
Y403800D02*
D03*
Y429800D02*
D03*
X2163000Y454800D02*
D03*
X2146000D02*
D03*
X2146000Y429800D02*
D03*
Y403800D02*
D03*
X891000Y837800D02*
D03*
X891000Y862800D02*
D03*
X891000Y811800D02*
D03*
Y786800D02*
D03*
X874000Y811800D02*
D03*
Y786800D02*
D03*
Y837800D02*
D03*
X874000Y862800D02*
D03*
X729000Y863800D02*
D03*
X712000D02*
D03*
Y837800D02*
D03*
X729000D02*
D03*
Y811800D02*
D03*
X712000D02*
D03*
Y786800D02*
D03*
X729000D02*
D03*
X573000Y837800D02*
D03*
X573000Y862800D02*
D03*
X573000Y811800D02*
D03*
Y786800D02*
D03*
X556000Y811800D02*
D03*
Y786800D02*
D03*
Y837800D02*
D03*
X556000Y862800D02*
D03*
X411000Y863800D02*
D03*
Y837800D02*
D03*
Y811800D02*
D03*
Y786800D02*
D03*
X394000Y811800D02*
D03*
Y786800D02*
D03*
Y837800D02*
D03*
Y863800D02*
D03*
D12*
X359130Y575950D02*
D03*
Y588650D02*
D03*
Y601350D02*
D03*
Y614050D02*
D03*
Y626750D02*
D03*
Y639450D02*
D03*
Y652150D02*
D03*
X375500Y639500D02*
D03*
X359130Y664850D02*
D03*
X310870D02*
D03*
Y652150D02*
D03*
Y639450D02*
D03*
Y626750D02*
D03*
Y614050D02*
D03*
Y601350D02*
D03*
Y588650D02*
D03*
Y575950D02*
D03*
X628870D02*
D03*
Y588650D02*
D03*
Y601350D02*
D03*
X677130D02*
D03*
Y588650D02*
D03*
Y575950D02*
D03*
Y614050D02*
D03*
Y626750D02*
D03*
Y639450D02*
D03*
Y652150D02*
D03*
X693500Y639500D02*
D03*
X677130Y664850D02*
D03*
X628870D02*
D03*
Y652150D02*
D03*
Y639450D02*
D03*
Y626750D02*
D03*
Y614050D02*
D03*
X946870Y601350D02*
D03*
Y588650D02*
D03*
Y575950D02*
D03*
X995130D02*
D03*
Y588650D02*
D03*
Y601350D02*
D03*
X1011500Y639500D02*
D03*
X995130Y664850D02*
D03*
Y652150D02*
D03*
Y639450D02*
D03*
Y626750D02*
D03*
Y614050D02*
D03*
X946870Y664850D02*
D03*
Y652150D02*
D03*
Y639450D02*
D03*
Y626750D02*
D03*
Y614050D02*
D03*
X1264870Y601350D02*
D03*
Y588650D02*
D03*
Y575950D02*
D03*
X1313130D02*
D03*
Y588650D02*
D03*
Y601350D02*
D03*
X1329500Y639500D02*
D03*
X1313130Y664850D02*
D03*
Y652150D02*
D03*
Y639450D02*
D03*
Y626750D02*
D03*
Y614050D02*
D03*
X1264870Y664850D02*
D03*
Y652150D02*
D03*
Y639450D02*
D03*
Y626750D02*
D03*
Y614050D02*
D03*
X1582870Y601350D02*
D03*
Y588650D02*
D03*
Y575950D02*
D03*
X1631130D02*
D03*
Y588650D02*
D03*
Y601350D02*
D03*
Y614050D02*
D03*
Y626750D02*
D03*
Y639450D02*
D03*
Y652150D02*
D03*
X1647500Y639500D02*
D03*
X1631130Y664850D02*
D03*
X1582870D02*
D03*
Y652150D02*
D03*
Y639450D02*
D03*
Y626750D02*
D03*
Y614050D02*
D03*
X1900870Y601350D02*
D03*
Y588650D02*
D03*
Y575950D02*
D03*
X1949130D02*
D03*
Y588650D02*
D03*
Y601350D02*
D03*
Y614050D02*
D03*
Y626750D02*
D03*
Y639450D02*
D03*
Y652150D02*
D03*
X1965500Y639500D02*
D03*
X1949130Y664850D02*
D03*
X1900870D02*
D03*
Y652150D02*
D03*
Y639450D02*
D03*
Y626750D02*
D03*
Y614050D02*
D03*
X677130Y1060150D02*
D03*
Y1072850D02*
D03*
Y1047450D02*
D03*
Y1034750D02*
D03*
Y1022050D02*
D03*
Y1009350D02*
D03*
X693500Y1047500D02*
D03*
X677130Y996650D02*
D03*
Y983950D02*
D03*
X628870Y1009350D02*
D03*
Y1022050D02*
D03*
Y1034750D02*
D03*
Y1047450D02*
D03*
Y996650D02*
D03*
Y983950D02*
D03*
Y1060150D02*
D03*
Y1072850D02*
D03*
X359130D02*
D03*
Y1060150D02*
D03*
Y1047450D02*
D03*
Y1034750D02*
D03*
Y1022050D02*
D03*
Y1009350D02*
D03*
X375500Y1047500D02*
D03*
X359130Y996650D02*
D03*
Y983950D02*
D03*
X310870Y1009350D02*
D03*
Y1022050D02*
D03*
Y1034750D02*
D03*
Y1047450D02*
D03*
Y996650D02*
D03*
Y983950D02*
D03*
Y1060150D02*
D03*
Y1072850D02*
D03*
D13*
X326000Y536000D02*
D03*
X344000D02*
D03*
Y558000D02*
D03*
X326000D02*
D03*
Y686000D02*
D03*
X344000D02*
D03*
Y944000D02*
D03*
X326000D02*
D03*
Y966000D02*
D03*
X344000D02*
D03*
Y1094000D02*
D03*
X326000D02*
D03*
X644000Y944000D02*
D03*
X662000D02*
D03*
Y966000D02*
D03*
X644000D02*
D03*
X662000Y1094000D02*
D03*
X644000D02*
D03*
Y686000D02*
D03*
X662000D02*
D03*
X644000Y558000D02*
D03*
Y536000D02*
D03*
X662000D02*
D03*
Y558000D02*
D03*
X962000D02*
D03*
Y536000D02*
D03*
X980000D02*
D03*
Y558000D02*
D03*
Y686000D02*
D03*
X962000D02*
D03*
X1280000Y558000D02*
D03*
X1298000D02*
D03*
Y536000D02*
D03*
X1280000D02*
D03*
Y686000D02*
D03*
X1298000D02*
D03*
X1598000Y558000D02*
D03*
X1616000D02*
D03*
Y536000D02*
D03*
X1598000D02*
D03*
Y686000D02*
D03*
X1616000D02*
D03*
X1916000Y558000D02*
D03*
Y536000D02*
D03*
X1934000D02*
D03*
Y558000D02*
D03*
Y686000D02*
D03*
X1916000D02*
D03*
D14*
X397500Y378800D02*
D03*
X407500Y378800D02*
D03*
Y403800D02*
D03*
X397500Y403800D02*
D03*
Y429800D02*
D03*
X407500Y429800D02*
D03*
Y455800D02*
D03*
X397500Y455800D02*
D03*
X559500Y378800D02*
D03*
X569500Y378800D02*
D03*
Y403800D02*
D03*
X559500Y403800D02*
D03*
Y429800D02*
D03*
X569500Y429800D02*
D03*
Y454800D02*
D03*
X559500Y454800D02*
D03*
X715500Y378800D02*
D03*
X725500Y378800D02*
D03*
Y403800D02*
D03*
X715500Y403800D02*
D03*
Y429800D02*
D03*
X725500Y429800D02*
D03*
Y455800D02*
D03*
X715500Y455800D02*
D03*
X877500Y378800D02*
D03*
X887500Y378800D02*
D03*
Y403800D02*
D03*
X877500Y403800D02*
D03*
Y429800D02*
D03*
X887500Y429800D02*
D03*
X887500Y454800D02*
D03*
X877500Y454800D02*
D03*
X1033500Y378800D02*
D03*
X1043500Y378800D02*
D03*
Y403800D02*
D03*
X1033500Y403800D02*
D03*
Y429800D02*
D03*
X1043500Y429800D02*
D03*
Y455800D02*
D03*
X1033500Y455800D02*
D03*
X1195500Y378800D02*
D03*
X1205500Y378800D02*
D03*
Y403800D02*
D03*
X1195500Y403800D02*
D03*
Y429800D02*
D03*
X1205500Y429800D02*
D03*
Y454800D02*
D03*
X1195500Y454800D02*
D03*
X1351500Y378800D02*
D03*
X1361500Y378800D02*
D03*
Y403800D02*
D03*
Y429800D02*
D03*
Y455800D02*
D03*
X1351500Y455800D02*
D03*
Y429800D02*
D03*
Y403800D02*
D03*
X1513500Y378800D02*
D03*
X1523500Y378800D02*
D03*
Y403800D02*
D03*
X1513500Y403800D02*
D03*
Y429800D02*
D03*
X1523500Y429800D02*
D03*
X1523500Y454800D02*
D03*
X1513500Y454800D02*
D03*
X1669500Y378800D02*
D03*
X1679500Y378800D02*
D03*
Y403800D02*
D03*
X1669500Y403800D02*
D03*
Y429800D02*
D03*
X1679500Y429800D02*
D03*
Y455800D02*
D03*
X1669500Y455800D02*
D03*
X1831500Y378800D02*
D03*
X1841500Y378800D02*
D03*
Y403800D02*
D03*
X1831500Y403800D02*
D03*
Y429800D02*
D03*
X1841500Y429800D02*
D03*
Y454800D02*
D03*
X1831500Y454800D02*
D03*
X1987500Y378800D02*
D03*
X1997500Y378800D02*
D03*
Y403800D02*
D03*
X1987500Y403800D02*
D03*
Y429800D02*
D03*
X1997500Y429800D02*
D03*
Y455800D02*
D03*
X1987500Y455800D02*
D03*
X2149500Y378800D02*
D03*
X2159500Y378800D02*
D03*
Y403800D02*
D03*
X2149500Y403800D02*
D03*
Y429800D02*
D03*
X2159500Y429800D02*
D03*
X2159500Y454800D02*
D03*
X2149500Y454800D02*
D03*
X887500Y837800D02*
D03*
X877500Y837800D02*
D03*
Y862800D02*
D03*
X887500Y862800D02*
D03*
X887500Y811800D02*
D03*
X877500Y811800D02*
D03*
Y786800D02*
D03*
X887500Y786800D02*
D03*
X725500Y837800D02*
D03*
X715500Y837800D02*
D03*
Y863800D02*
D03*
X725500Y863800D02*
D03*
Y811800D02*
D03*
X715500Y811800D02*
D03*
Y786800D02*
D03*
X725500Y786800D02*
D03*
X569500Y837800D02*
D03*
X559500Y837800D02*
D03*
X559500Y862800D02*
D03*
X569500Y862800D02*
D03*
Y811800D02*
D03*
X559500Y811800D02*
D03*
Y786800D02*
D03*
X569500Y786800D02*
D03*
X407500Y837800D02*
D03*
X397500Y837800D02*
D03*
Y863800D02*
D03*
X407500Y863800D02*
D03*
Y811800D02*
D03*
X397500Y811800D02*
D03*
Y786800D02*
D03*
X407500Y786800D02*
D03*
D15*
X392500Y378800D02*
D03*
X412500D02*
D03*
Y403800D02*
D03*
Y429800D02*
D03*
Y455800D02*
D03*
X392500D02*
D03*
Y429800D02*
D03*
Y403800D02*
D03*
X554500Y378800D02*
D03*
X574500D02*
D03*
Y403800D02*
D03*
Y429800D02*
D03*
X574500Y454800D02*
D03*
X554500D02*
D03*
X554500Y429800D02*
D03*
Y403800D02*
D03*
X710500Y378800D02*
D03*
X730500D02*
D03*
Y403800D02*
D03*
X710500D02*
D03*
Y429800D02*
D03*
X730500D02*
D03*
Y455800D02*
D03*
X710500D02*
D03*
X872500Y378800D02*
D03*
X892500D02*
D03*
Y403800D02*
D03*
Y429800D02*
D03*
X892500Y454800D02*
D03*
X872500D02*
D03*
X872500Y429800D02*
D03*
Y403800D02*
D03*
X1028500Y378800D02*
D03*
X1048500D02*
D03*
Y403800D02*
D03*
X1028500D02*
D03*
Y429800D02*
D03*
X1048500D02*
D03*
Y455800D02*
D03*
X1028500D02*
D03*
X1190500Y378800D02*
D03*
X1210500D02*
D03*
Y403800D02*
D03*
X1190500D02*
D03*
Y429800D02*
D03*
X1210500D02*
D03*
X1210500Y454800D02*
D03*
X1190500D02*
D03*
X1346500Y378800D02*
D03*
X1366500D02*
D03*
Y403800D02*
D03*
Y429800D02*
D03*
Y455800D02*
D03*
X1346500D02*
D03*
Y429800D02*
D03*
Y403800D02*
D03*
X1508500Y378800D02*
D03*
X1528500D02*
D03*
Y403800D02*
D03*
X1508500D02*
D03*
Y429800D02*
D03*
X1528500D02*
D03*
X1528500Y454800D02*
D03*
X1508500D02*
D03*
X1664500Y378800D02*
D03*
X1684500D02*
D03*
Y403800D02*
D03*
Y429800D02*
D03*
Y455800D02*
D03*
X1664500D02*
D03*
Y429800D02*
D03*
Y403800D02*
D03*
X1826500Y378800D02*
D03*
X1846500D02*
D03*
Y403800D02*
D03*
Y429800D02*
D03*
X1846500Y454800D02*
D03*
X1826500D02*
D03*
X1826500Y429800D02*
D03*
Y403800D02*
D03*
X1982500Y378800D02*
D03*
X2002500D02*
D03*
Y403800D02*
D03*
X1982500D02*
D03*
Y429800D02*
D03*
X2002500D02*
D03*
Y455800D02*
D03*
X1982500D02*
D03*
X2144500Y378800D02*
D03*
X2164500D02*
D03*
Y403800D02*
D03*
Y429800D02*
D03*
X2164500Y454800D02*
D03*
X2144500D02*
D03*
X2144500Y429800D02*
D03*
Y403800D02*
D03*
X892500Y837800D02*
D03*
X892500Y862800D02*
D03*
X892500Y811800D02*
D03*
Y786800D02*
D03*
X872500Y811800D02*
D03*
Y786800D02*
D03*
Y837800D02*
D03*
X872500Y862800D02*
D03*
X730500Y863800D02*
D03*
X710500D02*
D03*
Y837800D02*
D03*
X730500D02*
D03*
Y811800D02*
D03*
X710500D02*
D03*
Y786800D02*
D03*
X730500D02*
D03*
X574500Y837800D02*
D03*
X574500Y862800D02*
D03*
X574500Y811800D02*
D03*
Y786800D02*
D03*
X554500Y811800D02*
D03*
Y786800D02*
D03*
Y837800D02*
D03*
X554500Y862800D02*
D03*
X412500Y863800D02*
D03*
Y837800D02*
D03*
Y811800D02*
D03*
Y786800D02*
D03*
X392500Y811800D02*
D03*
Y786800D02*
D03*
Y837800D02*
D03*
Y863800D02*
D03*
D16*
X319000Y576000D02*
D03*
X637000D02*
D03*
X955000D02*
D03*
X1273000D02*
D03*
X1591000D02*
D03*
X1909000D02*
D03*
X637000Y984000D02*
D03*
X319000D02*
D03*
D17*
X327500Y480000D02*
D03*
X645500D02*
D03*
X963500D02*
D03*
X1281500D02*
D03*
X1599500D02*
D03*
X1917500D02*
D03*
X645500Y888000D02*
D03*
X327500D02*
D03*
D18*
X665000Y665000D02*
D03*
X983000D02*
D03*
X1301000D02*
D03*
X1619000D02*
D03*
X1937000D02*
D03*
X665000Y1073000D02*
D03*
X347000D02*
D03*
Y665000D02*
D03*
D19*
X347000Y626500D02*
D03*
X665000D02*
D03*
X983000D02*
D03*
X1301000D02*
D03*
X1619000D02*
D03*
X1937000D02*
D03*
X665000Y1034500D02*
D03*
X347000D02*
D03*
D20*
X342500Y515500D02*
D03*
X660500D02*
D03*
X978500D02*
D03*
X1296500D02*
D03*
X1614500D02*
D03*
X1932500D02*
D03*
X660500Y923500D02*
D03*
X342500D02*
D03*
D21*
X521500Y565500D02*
D03*
Y654500D02*
D03*
X839500Y565500D02*
D03*
Y654500D02*
D03*
X1157500Y565500D02*
D03*
Y654500D02*
D03*
X1475500Y565500D02*
D03*
Y654500D02*
D03*
X1793500Y565500D02*
D03*
Y654500D02*
D03*
X2111500Y565500D02*
D03*
Y654500D02*
D03*
X839500Y1062500D02*
D03*
Y973500D02*
D03*
X521500Y1062500D02*
D03*
Y973500D02*
D03*
D22*
X406000Y652000D02*
D03*
X724000D02*
D03*
X1042000D02*
D03*
X1360000D02*
D03*
X1678000D02*
D03*
X1996000D02*
D03*
X724000Y1060000D02*
D03*
X406000D02*
D03*
D23*
X639000Y627000D02*
D03*
X957000D02*
D03*
X1275000D02*
D03*
X1593000D02*
D03*
X1911000D02*
D03*
X639000Y1035000D02*
D03*
X321000D02*
D03*
Y627000D02*
D03*
D24*
X645500Y657500D02*
D03*
X963500D02*
D03*
X1281500D02*
D03*
X1599500D02*
D03*
X1917500D02*
D03*
X645500Y1065500D02*
D03*
X327500D02*
D03*
Y657500D02*
D03*
D25*
X438500Y455800D02*
D03*
X756500D02*
D03*
X1074500D02*
D03*
X1392500D02*
D03*
X1710500D02*
D03*
X2028500D02*
D03*
X756500Y863800D02*
D03*
X438500D02*
D03*
D26*
X440000Y429800D02*
D03*
X758000D02*
D03*
X1076000D02*
D03*
X1394000D02*
D03*
X1712000D02*
D03*
X2030000D02*
D03*
X758000Y837800D02*
D03*
X440000D02*
D03*
D27*
X440000Y403800D02*
D03*
X758000D02*
D03*
X1076000D02*
D03*
X1394000D02*
D03*
X1712000D02*
D03*
X2030000D02*
D03*
X758000Y811800D02*
D03*
X440000D02*
D03*
D28*
X439500Y378800D02*
D03*
X757500D02*
D03*
X1075500D02*
D03*
X1393500D02*
D03*
X1711500D02*
D03*
X2029500D02*
D03*
X757500Y786800D02*
D03*
X439500D02*
D03*
D29*
X528000Y378800D02*
D03*
X527000Y429800D02*
D03*
X846000Y378800D02*
D03*
X845000Y429800D02*
D03*
X1164000Y378800D02*
D03*
X1163000Y429800D02*
D03*
X1482000Y378800D02*
D03*
X1481000Y429800D02*
D03*
X1800000Y378800D02*
D03*
X1799000Y429800D02*
D03*
X2118000Y378800D02*
D03*
X2117000Y429800D02*
D03*
X845000Y837800D02*
D03*
X846000Y786800D02*
D03*
X527000Y837800D02*
D03*
X528000Y786800D02*
D03*
D30*
X528500Y403800D02*
D03*
X846500D02*
D03*
X1164500D02*
D03*
X1482500D02*
D03*
X1800500D02*
D03*
X2118500D02*
D03*
X846500Y811800D02*
D03*
X528500D02*
D03*
D31*
X527500Y454800D02*
D03*
X845500D02*
D03*
X1163500D02*
D03*
X1481500D02*
D03*
X1799500D02*
D03*
X2117500D02*
D03*
X845500Y862800D02*
D03*
X527500D02*
D03*
D32*
X378000Y378800D02*
D03*
Y403800D02*
D03*
Y429800D02*
D03*
Y454800D02*
D03*
X582000Y378800D02*
D03*
Y403800D02*
D03*
Y429800D02*
D03*
Y454800D02*
D03*
X696000Y378800D02*
D03*
Y403800D02*
D03*
Y429800D02*
D03*
Y454800D02*
D03*
X900000Y378800D02*
D03*
Y403800D02*
D03*
Y429800D02*
D03*
Y454800D02*
D03*
X1014000Y378800D02*
D03*
Y403800D02*
D03*
Y429800D02*
D03*
Y454800D02*
D03*
X1218000Y378800D02*
D03*
Y403800D02*
D03*
Y429800D02*
D03*
Y454800D02*
D03*
X1332000Y378800D02*
D03*
Y403800D02*
D03*
Y429800D02*
D03*
Y454800D02*
D03*
X1536000Y378800D02*
D03*
Y403800D02*
D03*
Y429800D02*
D03*
Y454800D02*
D03*
X1650000Y378800D02*
D03*
Y403800D02*
D03*
Y429800D02*
D03*
Y454800D02*
D03*
X1854000Y378800D02*
D03*
Y403800D02*
D03*
Y429800D02*
D03*
Y454800D02*
D03*
X1968000Y378800D02*
D03*
Y403800D02*
D03*
Y429800D02*
D03*
Y454800D02*
D03*
X2172000Y378800D02*
D03*
Y403800D02*
D03*
Y429800D02*
D03*
Y454800D02*
D03*
X900000Y837800D02*
D03*
Y862800D02*
D03*
Y811800D02*
D03*
Y786800D02*
D03*
X696000Y837800D02*
D03*
Y862800D02*
D03*
Y811800D02*
D03*
Y786800D02*
D03*
X582000Y837800D02*
D03*
Y862800D02*
D03*
Y811800D02*
D03*
Y786800D02*
D03*
X378000Y837800D02*
D03*
Y862800D02*
D03*
Y811800D02*
D03*
Y786800D02*
D03*
D33*
X598000Y433400D02*
D03*
X916000D02*
D03*
X1234000D02*
D03*
X1552000D02*
D03*
X1870000D02*
D03*
X2188000D02*
D03*
X916000Y841400D02*
D03*
X598000D02*
D03*
D34*
X481000Y487000D02*
D03*
X799000D02*
D03*
X1117000D02*
D03*
X1435000D02*
D03*
X1753000D02*
D03*
X2071000D02*
D03*
X799000Y895000D02*
D03*
X481000D02*
D03*
D35*
X364000Y433500D02*
D03*
X682000D02*
D03*
X1000000D02*
D03*
X1318000D02*
D03*
X1636000D02*
D03*
X1954000D02*
D03*
X682000Y841500D02*
D03*
X364000D02*
D03*
D36*
X366000Y614000D02*
D03*
X684000D02*
D03*
X1002000D02*
D03*
X1320000D02*
D03*
X1638000D02*
D03*
X1956000D02*
D03*
X684000Y1022000D02*
D03*
X366000D02*
D03*
D37*
X378500Y548000D02*
D03*
X696500D02*
D03*
X1014500D02*
D03*
X1332500D02*
D03*
X1650500D02*
D03*
X1968500D02*
D03*
X696500Y956000D02*
D03*
X378500D02*
D03*
D38*
X497500Y335000D02*
D03*
X815500D02*
D03*
X1133500D02*
D03*
X1451500D02*
D03*
X1769500D02*
D03*
X2087500D02*
D03*
X815500Y743000D02*
D03*
X497500D02*
D03*
D39*
X407000Y329500D02*
D03*
X725000D02*
D03*
X1043000D02*
D03*
X1361000D02*
D03*
X1679000D02*
D03*
X1997000D02*
D03*
X725000Y737500D02*
D03*
X407000D02*
D03*
D40*
X403000Y353500D02*
D03*
X721000D02*
D03*
X1039000D02*
D03*
X1357000D02*
D03*
X1675000D02*
D03*
X1993000D02*
D03*
X721000Y761500D02*
D03*
X403000D02*
D03*
D41*
X419709Y607751D02*
D03*
X737709D02*
D03*
X1055709D02*
D03*
X1373709D02*
D03*
X1691709D02*
D03*
X2009709D02*
D03*
X737709Y1015751D02*
D03*
X419709D02*
D03*
D42*
X472000Y353200D02*
D03*
Y378600D02*
D03*
X497400D02*
D03*
Y353200D02*
D03*
Y404000D02*
D03*
Y429400D02*
D03*
Y454800D02*
D03*
X472000D02*
D03*
Y429400D02*
D03*
Y404000D02*
D03*
X790000Y378600D02*
D03*
X815400D02*
D03*
Y353200D02*
D03*
X790000D02*
D03*
Y404000D02*
D03*
Y429400D02*
D03*
X815400D02*
D03*
Y404000D02*
D03*
Y454800D02*
D03*
X790000D02*
D03*
X1108000Y378600D02*
D03*
X1133400D02*
D03*
Y353200D02*
D03*
X1108000D02*
D03*
Y404000D02*
D03*
Y429400D02*
D03*
X1133400D02*
D03*
Y404000D02*
D03*
Y454800D02*
D03*
X1108000D02*
D03*
X1426000Y378600D02*
D03*
Y353200D02*
D03*
X1451400D02*
D03*
Y378600D02*
D03*
Y404000D02*
D03*
Y429400D02*
D03*
Y454800D02*
D03*
X1426000D02*
D03*
Y429400D02*
D03*
Y404000D02*
D03*
X1744000Y378600D02*
D03*
Y353200D02*
D03*
X1769400D02*
D03*
Y378600D02*
D03*
Y404000D02*
D03*
Y429400D02*
D03*
Y454800D02*
D03*
X1744000D02*
D03*
Y429400D02*
D03*
Y404000D02*
D03*
X2062000Y378600D02*
D03*
X2087400D02*
D03*
Y353200D02*
D03*
X2062000D02*
D03*
Y404000D02*
D03*
Y429400D02*
D03*
X2087400D02*
D03*
Y404000D02*
D03*
Y454800D02*
D03*
X2062000D02*
D03*
X815400Y837400D02*
D03*
Y862800D02*
D03*
X790000D02*
D03*
Y837400D02*
D03*
Y812000D02*
D03*
X815400D02*
D03*
Y786600D02*
D03*
X790000D02*
D03*
Y761200D02*
D03*
X815400D02*
D03*
X497400Y837400D02*
D03*
Y862800D02*
D03*
Y812000D02*
D03*
Y786600D02*
D03*
Y761200D02*
D03*
X472000Y812000D02*
D03*
Y786600D02*
D03*
Y761200D02*
D03*
Y837400D02*
D03*
Y862800D02*
D03*
M02*
