G04 Layer_Color=16711935*
%FSLAX44Y44*%
%MOMM*%
G71*
G01*
G75*
%ADD51C,0.1000*%
D51*
X687490Y689000D02*
X708990D01*
Y703000D01*
X687490D01*
Y689000D01*
X708750Y713000D02*
Y727000D01*
X687250D01*
Y713000D01*
X708750D01*
Y739000D02*
Y753000D01*
X687250D01*
Y739000D01*
X708750D01*
Y765000D02*
Y779000D01*
X687250D01*
Y765000D01*
X708750D01*
X772010Y688000D02*
X793510D01*
Y702000D01*
X772010D01*
Y688000D01*
Y715000D02*
X793510D01*
Y729000D01*
X772010D01*
Y715000D01*
Y739000D02*
X793510D01*
Y753000D01*
X772010D01*
Y739000D01*
Y765000D02*
X793510D01*
Y779000D01*
X772010D01*
Y765000D01*
X870990Y689000D02*
X892490D01*
Y703000D01*
X870990D01*
Y689000D01*
X892250Y713000D02*
Y727000D01*
X870750D01*
Y713000D01*
X892250D01*
Y739000D02*
Y753000D01*
X870750D01*
Y739000D01*
X892250D01*
Y765000D02*
Y779000D01*
X870750D01*
Y765000D01*
X892250D01*
X955510Y688000D02*
X977010D01*
Y702000D01*
X955510D01*
Y688000D01*
Y715000D02*
X977010D01*
Y729000D01*
X955510D01*
Y715000D01*
Y739000D02*
X977010D01*
Y753000D01*
X955510D01*
Y739000D01*
Y765000D02*
X977010D01*
Y779000D01*
X955510D01*
Y765000D01*
X935250Y811000D02*
Y825000D01*
X913750D01*
Y811000D01*
X935250D01*
Y942000D02*
Y956000D01*
X913750D01*
Y942000D01*
X935250D01*
X1054250Y779000D02*
X1075750D01*
Y765000D01*
X1054250D01*
Y779000D01*
Y753000D02*
X1075750D01*
Y739000D01*
X1054250D01*
Y753000D01*
Y727000D02*
X1075750D01*
Y713000D01*
X1054250D01*
Y727000D01*
X1054490Y703000D02*
X1075990D01*
Y689000D01*
X1054490D01*
Y703000D01*
X1139010Y688000D02*
X1160510D01*
Y702000D01*
X1139010D01*
Y688000D01*
X1160510Y715000D02*
Y729000D01*
X1139010D01*
Y715000D01*
X1160510D01*
Y739000D02*
Y753000D01*
X1139010D01*
Y739000D01*
X1160510D01*
Y765000D02*
Y779000D01*
X1139010D01*
Y765000D01*
X1160510D01*
X1237990Y689000D02*
X1259490D01*
Y703000D01*
X1237990D01*
Y689000D01*
X1237750Y713000D02*
X1259250D01*
Y727000D01*
X1237750D01*
Y713000D01*
Y739000D02*
X1259250D01*
Y753000D01*
X1237750D01*
Y739000D01*
Y765000D02*
X1259250D01*
Y779000D01*
X1237750D01*
Y765000D01*
X1322510Y688000D02*
X1344010D01*
Y702000D01*
X1322510D01*
Y688000D01*
X1344010Y715000D02*
Y729000D01*
X1322510D01*
Y715000D01*
X1344010D01*
Y739000D02*
Y753000D01*
X1322510D01*
Y739000D01*
X1344010D01*
Y765000D02*
Y779000D01*
X1322510D01*
Y765000D01*
X1344010D01*
X1421490Y689000D02*
X1442990D01*
Y703000D01*
X1421490D01*
Y689000D01*
X1442750Y713000D02*
Y727000D01*
X1421250D01*
Y713000D01*
X1442750D01*
Y739000D02*
Y753000D01*
X1421250D01*
Y739000D01*
X1442750D01*
Y765000D02*
Y779000D01*
X1421250D01*
Y765000D01*
X1442750D01*
X1506010Y688000D02*
X1527510D01*
Y702000D01*
X1506010D01*
Y688000D01*
Y715000D02*
X1527510D01*
Y729000D01*
X1506010D01*
Y715000D01*
Y739000D02*
X1527510D01*
Y753000D01*
X1506010D01*
Y739000D01*
Y765000D02*
X1527510D01*
Y779000D01*
X1506010D01*
Y765000D01*
X1604990Y689000D02*
X1626490D01*
Y703000D01*
X1604990D01*
Y689000D01*
X1626250Y713000D02*
Y727000D01*
X1604750D01*
Y713000D01*
X1626250D01*
Y739000D02*
Y753000D01*
X1604750D01*
Y739000D01*
X1626250D01*
Y765000D02*
Y779000D01*
X1604750D01*
Y765000D01*
X1626250D01*
X1689510Y688000D02*
X1711010D01*
Y702000D01*
X1689510D01*
Y688000D01*
Y715000D02*
X1711010D01*
Y729000D01*
X1689510D01*
Y715000D01*
Y739000D02*
X1711010D01*
Y753000D01*
X1689510D01*
Y739000D01*
Y765000D02*
X1711010D01*
Y779000D01*
X1689510D01*
Y765000D01*
X1669250Y811000D02*
Y825000D01*
X1647750D01*
Y811000D01*
X1669250D01*
Y942000D02*
Y956000D01*
X1647750D01*
Y942000D01*
X1669250D01*
X1485750Y956000D02*
X1464250D01*
Y942000D01*
X1485750D01*
Y956000D01*
X1464250Y825000D02*
X1485750D01*
Y811000D01*
X1464250D01*
Y825000D01*
X1302250Y956000D02*
X1280750D01*
Y942000D01*
X1302250D01*
Y956000D01*
X1280750Y825000D02*
X1302250D01*
Y811000D01*
X1280750D01*
Y825000D01*
X1118750Y956000D02*
X1097250D01*
Y942000D01*
X1118750D01*
Y956000D01*
Y825000D02*
X1097250D01*
Y811000D01*
X1118750D01*
Y825000D01*
X935000Y484510D02*
Y463010D01*
X949000D01*
Y484510D01*
X935000D01*
X961000D02*
Y463010D01*
X975000D01*
Y484510D01*
X961000D01*
X985000D02*
Y463010D01*
X999000D01*
Y484510D01*
X985000D01*
X1012000D02*
Y463010D01*
X1026000D01*
Y484510D01*
X1012000D01*
X975000Y399750D02*
X961000D01*
Y378250D01*
X975000D01*
Y399750D01*
X949000D02*
X935000D01*
Y378250D01*
X949000D01*
Y399750D01*
X987000Y378250D02*
Y399750D01*
X1001000D01*
Y378250D01*
X987000D01*
X1011000Y378490D02*
Y399990D01*
X1025000D01*
Y378490D01*
X1011000D01*
X903000Y421250D02*
Y442750D01*
X889000D01*
Y421250D01*
X903000D01*
X772000D02*
Y442750D01*
X758000D01*
Y421250D01*
X772000D01*
X751750Y811000D02*
Y825000D01*
X730250D01*
Y811000D01*
X751750D01*
Y942000D02*
Y956000D01*
X730250D01*
Y942000D01*
X751750D01*
X1278000Y442750D02*
Y421250D01*
X1292000D01*
Y442750D01*
X1278000D01*
X1409000D02*
Y421250D01*
X1423000D01*
Y442750D01*
X1409000D01*
X1455000Y399750D02*
Y378250D01*
X1469000D01*
Y399750D01*
X1455000D01*
X1481000Y378250D02*
Y399750D01*
X1495000D01*
Y378250D01*
X1481000D01*
X1507000D02*
Y399750D01*
X1521000D01*
Y378250D01*
X1507000D01*
X1531000Y378490D02*
Y399990D01*
X1545000D01*
Y378490D01*
X1531000D01*
X1546000Y463010D02*
Y484510D01*
X1532000D01*
Y463010D01*
X1546000D01*
X1519000D02*
Y484510D01*
X1505000D01*
Y463010D01*
X1519000D01*
X1495000D02*
Y484510D01*
X1481000D01*
Y463010D01*
X1495000D01*
X1469000D02*
Y484510D01*
X1455000D01*
Y463010D01*
X1469000D01*
M02*
