G04 Layer_Color=32768*
%FSLAX44Y44*%
%MOMM*%
G71*
G01*
G75*
%ADD51C,0.1000*%
D51*
X675380Y686500D02*
X721100D01*
Y705500D01*
X675380D01*
Y686500D01*
X698240Y691000D02*
Y701000D01*
X698000Y715000D02*
Y725000D01*
X693000Y720000D02*
X703000D01*
X720860Y729500D02*
X675140D01*
Y710500D01*
X720860D01*
Y729500D01*
X703240Y696000D02*
X693240D01*
X759900Y685500D02*
X805620D01*
Y704500D01*
X759900D01*
Y685500D01*
X782760Y690000D02*
Y700000D01*
X777760Y695000D02*
X787760D01*
X805620Y712500D02*
Y731500D01*
X759900D01*
Y712500D01*
X805620D01*
X858880Y686500D02*
X904600D01*
Y705500D01*
X858880D01*
Y686500D01*
X881740Y691000D02*
Y701000D01*
X881500Y715000D02*
Y725000D01*
X876500Y720000D02*
X886500D01*
X904360Y729500D02*
X858640D01*
Y710500D01*
X904360D01*
Y729500D01*
X886740Y696000D02*
X876740D01*
X943400Y685500D02*
X989120D01*
Y704500D01*
X943400D01*
Y685500D01*
X966260Y690000D02*
Y700000D01*
X961260Y695000D02*
X971260D01*
X989120Y712500D02*
Y731500D01*
X943400D01*
Y712500D01*
X989120D01*
X1042380Y686500D02*
X1088100D01*
Y705500D01*
X1042380D01*
Y686500D01*
X1065240Y691000D02*
Y701000D01*
X1065000Y715000D02*
Y725000D01*
X1060000Y720000D02*
X1070000D01*
X1070240Y696000D02*
X1060240D01*
X1087860Y710500D02*
Y729500D01*
X1042140D01*
Y710500D01*
X1087860D01*
X1126900Y685500D02*
X1172620D01*
Y704500D01*
X1126900D01*
Y685500D01*
X1149760Y690000D02*
Y700000D01*
X1144760Y695000D02*
X1154760D01*
X1172620Y712500D02*
Y731500D01*
X1126900D01*
Y712500D01*
X1172620D01*
X1225640Y710500D02*
X1271360D01*
Y729500D01*
X1225640D01*
Y710500D01*
X1225880Y686500D02*
X1271600D01*
Y705500D01*
X1225880D01*
Y686500D01*
X1248740Y691000D02*
Y701000D01*
X1248500Y715000D02*
Y725000D01*
X1243500Y720000D02*
X1253500D01*
X1253740Y696000D02*
X1243740D01*
X1310400Y685500D02*
X1356120D01*
Y704500D01*
X1310400D01*
Y685500D01*
X1328260Y695000D02*
X1338260D01*
X1333260Y700000D02*
Y690000D01*
Y717000D02*
Y727000D01*
X1338260Y722000D02*
X1328260D01*
X1310400Y731500D02*
X1356120D01*
Y712500D01*
X1310400D01*
Y731500D01*
X1333260Y741000D02*
Y751000D01*
X1338260Y746000D02*
X1328260D01*
X1310400Y755500D02*
X1356120D01*
Y736500D01*
X1310400D01*
Y755500D01*
Y762500D02*
X1356120D01*
Y781500D01*
X1310400D01*
Y762500D01*
X1333260Y767000D02*
Y777000D01*
X1338260Y772000D02*
X1328260D01*
X1309000Y808500D02*
Y827500D01*
X1274000D01*
Y808500D01*
X1309000D01*
X1296500Y818000D02*
X1286500D01*
X1291500Y813000D02*
Y823000D01*
X1271360Y781500D02*
X1225640D01*
Y762500D01*
X1271360D01*
Y781500D01*
Y755500D02*
X1225640D01*
Y736500D01*
X1271360D01*
Y755500D01*
X1253500Y772000D02*
X1243500D01*
X1248500Y777000D02*
Y767000D01*
Y751000D02*
Y741000D01*
X1243500Y746000D02*
X1253500D01*
X1172620Y781500D02*
X1126900D01*
Y762500D01*
X1172620D01*
Y781500D01*
Y755500D02*
X1126900D01*
Y736500D01*
X1172620D01*
Y755500D01*
X1154760Y772000D02*
X1144760D01*
X1149760Y777000D02*
Y767000D01*
Y751000D02*
Y741000D01*
X1144760Y746000D02*
X1154760D01*
Y722000D02*
X1144760D01*
X1149760Y727000D02*
Y717000D01*
X1087860Y736500D02*
Y755500D01*
X1042140D01*
Y736500D01*
X1087860D01*
Y762500D02*
Y781500D01*
X1042140D01*
Y762500D01*
X1087860D01*
X1070000Y772000D02*
X1060000D01*
X1065000Y777000D02*
Y767000D01*
Y751000D02*
Y741000D01*
X1060000Y746000D02*
X1070000D01*
X1125500Y808500D02*
Y827500D01*
X1090500D01*
Y808500D01*
X1125500D01*
X1108000Y813000D02*
Y823000D01*
X1113000Y818000D02*
X1103000D01*
X1125500Y939500D02*
Y958500D01*
X1090500D01*
Y939500D01*
X1125500D01*
X1113000Y949000D02*
X1103000D01*
X1108000Y954000D02*
Y944000D01*
X989120Y781500D02*
X943400D01*
Y762500D01*
X989120D01*
Y781500D01*
Y755500D02*
X943400D01*
Y736500D01*
X989120D01*
Y755500D01*
X971260Y772000D02*
X961260D01*
X966260Y777000D02*
Y767000D01*
Y751000D02*
Y741000D01*
X961260Y746000D02*
X971260D01*
Y722000D02*
X961260D01*
X966260Y727000D02*
Y717000D01*
X904360Y781500D02*
X858640D01*
Y762500D01*
X904360D01*
Y781500D01*
X886500Y772000D02*
X876500D01*
X881500Y777000D02*
Y767000D01*
Y751000D02*
Y741000D01*
X876500Y746000D02*
X886500D01*
X904360Y755500D02*
X858640D01*
Y736500D01*
X904360D01*
Y755500D01*
X919500Y818000D02*
X929500D01*
X924500Y813000D02*
Y823000D01*
X942000Y827500D02*
X907000D01*
Y808500D01*
X942000D01*
Y827500D01*
Y939500D02*
Y958500D01*
X907000D01*
Y939500D01*
X942000D01*
X924500Y944000D02*
Y954000D01*
X929500Y949000D02*
X919500D01*
X787760Y772000D02*
X777760D01*
X782760Y777000D02*
Y767000D01*
Y751000D02*
Y741000D01*
X777760Y746000D02*
X787760D01*
Y722000D02*
X777760D01*
X782760Y727000D02*
Y717000D01*
X805620Y736500D02*
Y755500D01*
X759900D01*
Y736500D01*
X805620D01*
Y762500D02*
Y781500D01*
X759900D01*
Y762500D01*
X805620D01*
X758500Y808500D02*
Y827500D01*
X723500D01*
Y808500D01*
X758500D01*
X741000Y813000D02*
Y823000D01*
X746000Y818000D02*
X736000D01*
X720860Y781500D02*
X675140D01*
Y762500D01*
X720860D01*
Y781500D01*
X703000Y772000D02*
X693000D01*
X698000Y777000D02*
Y767000D01*
Y751000D02*
Y741000D01*
X693000Y746000D02*
X703000D01*
X720860Y755500D02*
X675140D01*
Y736500D01*
X720860D01*
Y755500D01*
X741000Y944000D02*
Y954000D01*
X746000Y949000D02*
X736000D01*
X758500Y958500D02*
X723500D01*
Y939500D01*
X758500D01*
Y958500D01*
X932500Y496620D02*
Y450900D01*
X951500D01*
Y496620D01*
X932500D01*
X942000Y478760D02*
Y468760D01*
X937000Y473760D02*
X947000D01*
X963000D02*
X973000D01*
X968000Y468760D02*
Y478760D01*
X958500Y450900D02*
Y496620D01*
X977500D01*
Y450900D01*
X958500D01*
Y411860D02*
Y366140D01*
X977500D01*
Y411860D01*
X958500D01*
X951500D02*
X932500D01*
Y366140D01*
X951500D01*
Y411860D01*
X947000Y389000D02*
X937000D01*
X942000Y394000D02*
Y384000D01*
X968000D02*
Y394000D01*
X963000Y389000D02*
X973000D01*
X994000Y384000D02*
Y394000D01*
X989000Y389000D02*
X999000D01*
X1013000Y389240D02*
X1023000D01*
X1018000Y394240D02*
Y384240D01*
X1027500Y366380D02*
Y412100D01*
X1008500D01*
Y366380D01*
X1027500D01*
X1003500Y411860D02*
X984500D01*
Y366140D01*
X1003500D01*
Y411860D01*
X1028500Y450900D02*
Y496620D01*
X1009500D01*
Y450900D01*
X1028500D01*
X1024000Y473760D02*
X1014000D01*
X997000D02*
X987000D01*
X992000Y468760D02*
Y478760D01*
X982500Y450900D02*
Y496620D01*
X1001500D01*
Y450900D01*
X982500D01*
X1019000Y468760D02*
Y478760D01*
X905500Y449500D02*
X886500D01*
Y414500D01*
X905500D01*
Y449500D01*
X901000Y432000D02*
X891000D01*
X896000Y437000D02*
Y427000D01*
X774500Y449500D02*
X755500D01*
Y414500D01*
X774500D01*
Y449500D01*
X770000Y432000D02*
X760000D01*
X765000Y437000D02*
Y427000D01*
X1275500Y414500D02*
Y449500D01*
X1294500D01*
Y414500D01*
X1275500D01*
X1285000Y427000D02*
Y437000D01*
X1290000Y432000D02*
X1280000D01*
X1406500Y414500D02*
Y449500D01*
X1425500D01*
Y414500D01*
X1406500D01*
X1462000Y384000D02*
Y394000D01*
X1457000Y389000D02*
X1467000D01*
X1452500Y411860D02*
Y366140D01*
X1471500D01*
Y411860D01*
X1452500D01*
X1488000Y384000D02*
Y394000D01*
X1483000Y389000D02*
X1493000D01*
X1497500Y411860D02*
X1478500D01*
Y366140D01*
X1497500D01*
Y411860D01*
X1504500D02*
Y366140D01*
X1523500D01*
Y411860D01*
X1504500D01*
X1514000Y384000D02*
Y394000D01*
X1509000Y389000D02*
X1519000D01*
X1533000Y389240D02*
X1543000D01*
X1547500Y412100D02*
X1528500D01*
Y366380D01*
X1547500D01*
Y412100D01*
X1548500Y450900D02*
Y496620D01*
X1529500D01*
Y450900D01*
X1548500D01*
X1544000Y473760D02*
X1534000D01*
X1539000Y468760D02*
Y478760D01*
X1517000Y473760D02*
X1507000D01*
X1512000Y468760D02*
Y478760D01*
X1521500Y450900D02*
Y496620D01*
X1502500D01*
Y450900D01*
X1521500D01*
X1538000Y394240D02*
Y384240D01*
X1497500Y450900D02*
Y496620D01*
X1478500D01*
Y450900D01*
X1497500D01*
X1471500D02*
Y496620D01*
X1452500D01*
Y450900D01*
X1471500D01*
X1488000Y468760D02*
Y478760D01*
X1483000Y473760D02*
X1493000D01*
X1467000D02*
X1457000D01*
X1462000Y468760D02*
Y478760D01*
X1421000Y432000D02*
X1411000D01*
X1416000Y437000D02*
Y427000D01*
X1677400Y685500D02*
X1723120D01*
Y704500D01*
X1677400D01*
Y685500D01*
X1700260Y690000D02*
Y700000D01*
X1695260Y695000D02*
X1705260D01*
X1723120Y712500D02*
Y731500D01*
X1677400D01*
Y712500D01*
X1723120D01*
Y736500D02*
Y755500D01*
X1677400D01*
Y736500D01*
X1723120D01*
Y762500D02*
Y781500D01*
X1677400D01*
Y762500D01*
X1723120D01*
X1705260Y772000D02*
X1695260D01*
X1700260Y777000D02*
Y767000D01*
Y751000D02*
Y741000D01*
X1695260Y746000D02*
X1705260D01*
Y722000D02*
X1695260D01*
X1700260Y727000D02*
Y717000D01*
X1638360Y781500D02*
X1592640D01*
Y762500D01*
X1638360D01*
Y781500D01*
X1620500Y772000D02*
X1610500D01*
Y746000D02*
X1620500D01*
X1615500Y751000D02*
Y741000D01*
Y767000D02*
Y777000D01*
X1638360Y755500D02*
X1592640D01*
Y736500D01*
X1638360D01*
Y755500D01*
Y729500D02*
X1592640D01*
Y710500D01*
X1638360D01*
Y729500D01*
X1638600Y705500D02*
X1592880D01*
Y686500D01*
X1638600D01*
Y705500D01*
X1615740Y701000D02*
Y691000D01*
X1620740Y696000D02*
X1610740D01*
X1615500Y715000D02*
Y725000D01*
X1620500Y720000D02*
X1610500D01*
X1539620Y781500D02*
X1493900D01*
Y762500D01*
X1539620D01*
Y781500D01*
X1521760Y772000D02*
X1511760D01*
X1516760Y777000D02*
Y767000D01*
Y751000D02*
Y741000D01*
X1511760Y746000D02*
X1521760D01*
X1539620Y755500D02*
X1493900D01*
Y736500D01*
X1539620D01*
Y755500D01*
Y731500D02*
X1493900D01*
Y712500D01*
X1539620D01*
Y731500D01*
Y704500D02*
X1493900D01*
Y685500D01*
X1539620D01*
Y704500D01*
X1516760Y717000D02*
Y727000D01*
X1511760Y722000D02*
X1521760D01*
Y695000D02*
X1511760D01*
X1516760Y700000D02*
Y690000D01*
X1454860Y736500D02*
Y755500D01*
X1409140D01*
Y736500D01*
X1454860D01*
Y762500D02*
Y781500D01*
X1409140D01*
Y762500D01*
X1454860D01*
X1437000Y746000D02*
X1427000D01*
X1432000Y751000D02*
Y741000D01*
Y767000D02*
Y777000D01*
X1427000Y772000D02*
X1437000D01*
X1475000Y813000D02*
Y823000D01*
X1480000Y818000D02*
X1470000D01*
X1457500Y808500D02*
X1492500D01*
Y827500D01*
X1457500D01*
Y808500D01*
X1432000Y725000D02*
Y715000D01*
X1427000Y720000D02*
X1437000D01*
X1454860Y729500D02*
X1409140D01*
Y710500D01*
X1454860D01*
Y729500D01*
X1455100Y705500D02*
X1409380D01*
Y686500D01*
X1455100D01*
Y705500D01*
X1437240Y696000D02*
X1427240D01*
X1432240Y691000D02*
Y701000D01*
X1641000Y808500D02*
X1676000D01*
Y827500D01*
X1641000D01*
Y808500D01*
X1653500Y818000D02*
X1663500D01*
X1658500Y813000D02*
Y823000D01*
Y944000D02*
Y954000D01*
X1663500Y949000D02*
X1653500D01*
X1676000Y958500D02*
X1641000D01*
Y939500D01*
X1676000D01*
Y958500D01*
X1492500D02*
X1457500D01*
Y939500D01*
X1492500D01*
Y958500D01*
X1475000Y954000D02*
Y944000D01*
X1480000Y949000D02*
X1470000D01*
X1309000Y958500D02*
X1274000D01*
Y939500D01*
X1309000D01*
Y958500D01*
X1296500Y949000D02*
X1286500D01*
X1291500Y954000D02*
Y944000D01*
M02*
