G04 Layer_Physical_Order=1*
G04 Layer_Color=255*
%FSLAX44Y44*%
%MOMM*%
G71*
G01*
G75*
%ADD10R,1.4000X1.2000*%
%ADD11R,0.9000X2.5000*%
%ADD12R,28.8000X1.1500*%
%ADD13R,6.3000X1.2000*%
%ADD14R,0.9000X4.8000*%
%ADD15R,1.4000X11.4000*%
%ADD16R,12.5000X1.2500*%
%ADD17R,1.8000X2.0000*%
%ADD18R,2.0000X1.2000*%
%ADD19R,0.9000X4.2000*%
%ADD20R,7.7000X16.3000*%
%ADD21R,22.8000X1.1000*%
%ADD22R,1.0000X3.4000*%
%ADD23R,6.9000X0.9000*%
%ADD24R,0.8000X1.0000*%
%ADD25R,12.1000X0.9000*%
%ADD26R,0.9000X1.3000*%
%ADD27R,0.8000X1.6000*%
%ADD28R,0.8000X0.8000*%
%ADD29R,1.2000X1.4000*%
%ADD30R,2.5000X0.9000*%
%ADD31R,1.1500X28.8000*%
%ADD32R,1.2000X6.3000*%
%ADD33R,4.8000X0.9000*%
%ADD34R,11.4000X1.4000*%
%ADD35R,1.2500X12.5000*%
%ADD36R,2.0000X1.8000*%
%ADD37R,1.2000X2.0000*%
%ADD38R,4.2000X0.9000*%
%ADD39R,16.3000X7.7000*%
%ADD40R,1.1000X22.8000*%
%ADD41R,3.4000X1.0000*%
%ADD42R,0.9000X6.9000*%
%ADD43R,1.0000X0.8000*%
%ADD44R,0.9000X12.1000*%
%ADD45R,1.3000X0.9000*%
%ADD46R,1.6000X0.8000*%
%ADD47R,0.8000X0.8000*%
%ADD48R,2.0000X2.0000*%
%ADD49R,2.0000X2.0000*%
D10*
X765000Y423000D02*
D03*
Y441000D02*
D03*
X896000D02*
D03*
Y423000D02*
D03*
X942000Y404240D02*
D03*
Y373760D02*
D03*
X968000D02*
D03*
X994000D02*
D03*
X1018000Y374000D02*
D03*
Y404480D02*
D03*
X994000Y404240D02*
D03*
X968000D02*
D03*
X1019000Y458520D02*
D03*
Y489000D02*
D03*
X992000D02*
D03*
Y458520D02*
D03*
X968000D02*
D03*
Y489000D02*
D03*
X942000D02*
D03*
Y458520D02*
D03*
X1285000Y441000D02*
D03*
Y423000D02*
D03*
X1416000D02*
D03*
Y441000D02*
D03*
X1462000Y404240D02*
D03*
Y373760D02*
D03*
X1488000D02*
D03*
X1514000D02*
D03*
X1538000Y374000D02*
D03*
Y404480D02*
D03*
X1514000Y404240D02*
D03*
X1488000D02*
D03*
X1512000Y458520D02*
D03*
X1539000D02*
D03*
Y489000D02*
D03*
X1512000D02*
D03*
X1488000D02*
D03*
Y458520D02*
D03*
X1462000D02*
D03*
Y489000D02*
D03*
D11*
X786150Y400870D02*
D03*
X798850D02*
D03*
X811550D02*
D03*
X824250D02*
D03*
X836950D02*
D03*
X849650D02*
D03*
X862350D02*
D03*
X875050D02*
D03*
Y464130D02*
D03*
X862350D02*
D03*
X849650D02*
D03*
X836950D02*
D03*
X824250D02*
D03*
X811550D02*
D03*
X798850D02*
D03*
X786150D02*
D03*
X1306150Y400870D02*
D03*
X1318850D02*
D03*
X1331550D02*
D03*
X1344250D02*
D03*
X1356950D02*
D03*
X1369650D02*
D03*
X1382350D02*
D03*
X1395050D02*
D03*
Y464130D02*
D03*
X1382350D02*
D03*
X1369650D02*
D03*
X1356950D02*
D03*
X1344250D02*
D03*
X1331550D02*
D03*
X1318850D02*
D03*
X1306150D02*
D03*
D12*
X951000Y518250D02*
D03*
X1471000D02*
D03*
D13*
X772000Y518000D02*
D03*
X1292000D02*
D03*
D14*
X799000Y489000D02*
D03*
X1319000D02*
D03*
D15*
X1053000Y431000D02*
D03*
X1573000D02*
D03*
D16*
X997500Y367750D02*
D03*
X1517500D02*
D03*
D17*
X767000Y419000D02*
D03*
Y445000D02*
D03*
X898000Y419000D02*
D03*
Y445000D02*
D03*
X1287000Y419000D02*
D03*
Y445000D02*
D03*
X1418000Y419000D02*
D03*
Y445000D02*
D03*
D18*
X881000Y423000D02*
D03*
X1401000D02*
D03*
D19*
X811500Y493000D02*
D03*
X1331500D02*
D03*
D20*
X708500Y442500D02*
D03*
X1131500D02*
D03*
X1228500D02*
D03*
X1651500D02*
D03*
D21*
X946000Y493500D02*
D03*
X1466000D02*
D03*
D22*
X837000Y474000D02*
D03*
X1357000D02*
D03*
D23*
X793500Y424500D02*
D03*
X1313500D02*
D03*
D24*
X824000Y415000D02*
D03*
X1344000D02*
D03*
D25*
X829500Y439500D02*
D03*
X1349500D02*
D03*
D26*
X824500Y446500D02*
D03*
X1344500D02*
D03*
D27*
X786000Y446000D02*
D03*
X1306000D02*
D03*
D28*
X875000Y416000D02*
D03*
X1395000D02*
D03*
D29*
X683000Y696000D02*
D03*
X713480D02*
D03*
X767520Y695000D02*
D03*
X798000D02*
D03*
Y722000D02*
D03*
Y746000D02*
D03*
Y772000D02*
D03*
X750000Y818000D02*
D03*
X767520Y772000D02*
D03*
Y746000D02*
D03*
Y722000D02*
D03*
X713240Y746000D02*
D03*
Y720000D02*
D03*
X682760Y746000D02*
D03*
Y720000D02*
D03*
X713240Y772000D02*
D03*
X732000Y818000D02*
D03*
X682760Y772000D02*
D03*
X866500Y696000D02*
D03*
X896980D02*
D03*
X896740Y720000D02*
D03*
Y746000D02*
D03*
Y772000D02*
D03*
X915500Y818000D02*
D03*
X933500D02*
D03*
X951020Y772000D02*
D03*
Y746000D02*
D03*
Y722000D02*
D03*
Y695000D02*
D03*
X981500D02*
D03*
X1050000Y696000D02*
D03*
X1080480D02*
D03*
X1080240Y720000D02*
D03*
Y746000D02*
D03*
Y772000D02*
D03*
X1099000Y818000D02*
D03*
X1117000D02*
D03*
X1134520Y772000D02*
D03*
Y746000D02*
D03*
Y722000D02*
D03*
Y695000D02*
D03*
X1165000D02*
D03*
Y722000D02*
D03*
Y746000D02*
D03*
Y772000D02*
D03*
X1233260Y720000D02*
D03*
X1233500Y696000D02*
D03*
X1263980D02*
D03*
X1318020Y695000D02*
D03*
X1348500D02*
D03*
Y722000D02*
D03*
Y746000D02*
D03*
Y772000D02*
D03*
X1300500Y818000D02*
D03*
X1318020Y772000D02*
D03*
Y746000D02*
D03*
Y722000D02*
D03*
X1263740Y746000D02*
D03*
Y720000D02*
D03*
X1233260Y746000D02*
D03*
X1263740Y772000D02*
D03*
X1282500Y818000D02*
D03*
X1233260Y772000D02*
D03*
X1417000Y696000D02*
D03*
X1447480D02*
D03*
X1501520Y695000D02*
D03*
X1532000D02*
D03*
Y722000D02*
D03*
Y746000D02*
D03*
Y772000D02*
D03*
X1484000Y818000D02*
D03*
X1501520Y772000D02*
D03*
Y746000D02*
D03*
Y722000D02*
D03*
X1447240Y746000D02*
D03*
Y720000D02*
D03*
X1416760Y746000D02*
D03*
Y720000D02*
D03*
X1447240Y772000D02*
D03*
X1466000Y818000D02*
D03*
X1416760Y772000D02*
D03*
X1600500Y696000D02*
D03*
X1630980D02*
D03*
X1630740Y720000D02*
D03*
Y746000D02*
D03*
Y772000D02*
D03*
X1649500Y818000D02*
D03*
X1667500D02*
D03*
X1685020Y772000D02*
D03*
X1715500D02*
D03*
Y746000D02*
D03*
X1685020D02*
D03*
Y722000D02*
D03*
X1715500D02*
D03*
Y695000D02*
D03*
X1685020D02*
D03*
X1600260Y772000D02*
D03*
Y746000D02*
D03*
Y720000D02*
D03*
X1649500Y949000D02*
D03*
X1667500D02*
D03*
X1484000D02*
D03*
X1466000D02*
D03*
X1300500D02*
D03*
X1282500D02*
D03*
X1117000D02*
D03*
X1099000D02*
D03*
X981500Y772000D02*
D03*
Y746000D02*
D03*
Y722000D02*
D03*
X1049760Y720000D02*
D03*
Y746000D02*
D03*
Y772000D02*
D03*
X933500Y949000D02*
D03*
X915500D02*
D03*
X866260Y772000D02*
D03*
Y746000D02*
D03*
Y720000D02*
D03*
X750000Y949000D02*
D03*
X732000D02*
D03*
D30*
X773130Y838950D02*
D03*
Y851650D02*
D03*
Y864350D02*
D03*
Y877050D02*
D03*
Y889750D02*
D03*
Y902450D02*
D03*
Y915150D02*
D03*
Y927850D02*
D03*
X709870D02*
D03*
Y915150D02*
D03*
Y902450D02*
D03*
Y889750D02*
D03*
Y877050D02*
D03*
Y864350D02*
D03*
Y851650D02*
D03*
Y838950D02*
D03*
X893370D02*
D03*
Y851650D02*
D03*
Y864350D02*
D03*
Y877050D02*
D03*
Y889750D02*
D03*
Y902450D02*
D03*
Y915150D02*
D03*
Y927850D02*
D03*
X956630Y864350D02*
D03*
Y851650D02*
D03*
Y838950D02*
D03*
Y877050D02*
D03*
Y889750D02*
D03*
Y902450D02*
D03*
Y915150D02*
D03*
Y927850D02*
D03*
X1076870Y838950D02*
D03*
Y851650D02*
D03*
Y864350D02*
D03*
Y877050D02*
D03*
Y889750D02*
D03*
Y902450D02*
D03*
Y915150D02*
D03*
Y927850D02*
D03*
X1140130Y864350D02*
D03*
Y851650D02*
D03*
Y838950D02*
D03*
Y877050D02*
D03*
Y889750D02*
D03*
Y902450D02*
D03*
Y915150D02*
D03*
Y927850D02*
D03*
X1260370Y838950D02*
D03*
Y851650D02*
D03*
Y864350D02*
D03*
Y877050D02*
D03*
Y889750D02*
D03*
Y902450D02*
D03*
Y915150D02*
D03*
Y927850D02*
D03*
X1323630Y864350D02*
D03*
Y851650D02*
D03*
Y838950D02*
D03*
Y877050D02*
D03*
Y889750D02*
D03*
Y902450D02*
D03*
Y915150D02*
D03*
Y927850D02*
D03*
X1443870Y838950D02*
D03*
Y851650D02*
D03*
Y864350D02*
D03*
Y877050D02*
D03*
Y889750D02*
D03*
Y902450D02*
D03*
Y915150D02*
D03*
Y927850D02*
D03*
X1507130Y864350D02*
D03*
Y851650D02*
D03*
Y838950D02*
D03*
Y877050D02*
D03*
Y889750D02*
D03*
Y902450D02*
D03*
Y915150D02*
D03*
Y927850D02*
D03*
X1627370Y838950D02*
D03*
Y851650D02*
D03*
Y864350D02*
D03*
Y877050D02*
D03*
Y889750D02*
D03*
Y902450D02*
D03*
Y915150D02*
D03*
Y927850D02*
D03*
X1690630Y864350D02*
D03*
Y851650D02*
D03*
Y838950D02*
D03*
Y877050D02*
D03*
Y889750D02*
D03*
Y902450D02*
D03*
Y915150D02*
D03*
Y927850D02*
D03*
D31*
X827250Y763000D02*
D03*
X1010750D02*
D03*
X1194250D02*
D03*
X1377750D02*
D03*
X1561250D02*
D03*
X1744750D02*
D03*
D32*
X827000Y942000D02*
D03*
X1010500D02*
D03*
X1194000D02*
D03*
X1377500D02*
D03*
X1561000D02*
D03*
X1744500D02*
D03*
D33*
X798000Y915000D02*
D03*
X981500D02*
D03*
X1165000D02*
D03*
X1348500D02*
D03*
X1532000D02*
D03*
X1715500D02*
D03*
D34*
X740000Y661000D02*
D03*
X923500D02*
D03*
X1107000D02*
D03*
X1290500D02*
D03*
X1474000D02*
D03*
X1657500D02*
D03*
D35*
X676750Y716500D02*
D03*
X860250D02*
D03*
X1043750D02*
D03*
X1227250D02*
D03*
X1410750D02*
D03*
X1594250D02*
D03*
D36*
X754000Y816000D02*
D03*
X728000D02*
D03*
X754000Y947000D02*
D03*
X728000D02*
D03*
X911500Y816000D02*
D03*
X937500D02*
D03*
Y947000D02*
D03*
X911500D02*
D03*
X1095000Y816000D02*
D03*
X1121000D02*
D03*
X1278500D02*
D03*
X1304500D02*
D03*
X1462000D02*
D03*
X1488000D02*
D03*
X1645500D02*
D03*
X1671500D02*
D03*
Y947000D02*
D03*
X1645500D02*
D03*
X1488000D02*
D03*
X1462000D02*
D03*
X1304500D02*
D03*
X1278500D02*
D03*
X1121000D02*
D03*
X1095000D02*
D03*
D37*
X732000Y833000D02*
D03*
X915500D02*
D03*
X1099000D02*
D03*
X1282500D02*
D03*
X1466000D02*
D03*
X1649500D02*
D03*
D38*
X802000Y902500D02*
D03*
X985500D02*
D03*
X1169000D02*
D03*
X1352500D02*
D03*
X1536000D02*
D03*
X1719500D02*
D03*
D39*
X751500Y582500D02*
D03*
X935000D02*
D03*
X1118500D02*
D03*
X1302000D02*
D03*
X1485500D02*
D03*
X1669000D02*
D03*
Y1005500D02*
D03*
X1485500D02*
D03*
X1302000D02*
D03*
X1118500D02*
D03*
X935000D02*
D03*
X751500D02*
D03*
D40*
X802500Y768000D02*
D03*
X986000D02*
D03*
X1169500D02*
D03*
X1353000D02*
D03*
X1536500D02*
D03*
X1720000D02*
D03*
D41*
X783000Y877000D02*
D03*
X966500D02*
D03*
X1150000D02*
D03*
X1333500D02*
D03*
X1517000D02*
D03*
X1700500D02*
D03*
D42*
X917000Y920500D02*
D03*
X1100500D02*
D03*
X1284000D02*
D03*
X1467500D02*
D03*
X1651000D02*
D03*
X733500D02*
D03*
D43*
X907500Y890000D02*
D03*
X724000D02*
D03*
X1091000D02*
D03*
X1274500D02*
D03*
X1458000D02*
D03*
X1641500D02*
D03*
D44*
X748500Y884500D02*
D03*
X932000D02*
D03*
X1115500D02*
D03*
X1299000D02*
D03*
X1482500D02*
D03*
X1666000D02*
D03*
D45*
X755500Y889500D02*
D03*
X939000D02*
D03*
X1122500D02*
D03*
X1306000D02*
D03*
X1489500D02*
D03*
X1673000D02*
D03*
D46*
X938500Y928000D02*
D03*
X755000D02*
D03*
X1122000D02*
D03*
X1305500D02*
D03*
X1489000D02*
D03*
X1672500D02*
D03*
D47*
X725000Y839000D02*
D03*
X908500D02*
D03*
X1092000D02*
D03*
X1275500D02*
D03*
X1459000D02*
D03*
X1642500D02*
D03*
D48*
X916200Y419000D02*
D03*
X941600D02*
D03*
X967000D02*
D03*
X992400D02*
D03*
X1017800D02*
D03*
Y444400D02*
D03*
X992400D02*
D03*
X967000D02*
D03*
X941600D02*
D03*
X916200D02*
D03*
X1436200Y419000D02*
D03*
X1461600D02*
D03*
X1487000D02*
D03*
X1512400D02*
D03*
X1537800D02*
D03*
Y444400D02*
D03*
X1512400D02*
D03*
X1487000D02*
D03*
X1461600D02*
D03*
X1436200D02*
D03*
D49*
X728000Y696200D02*
D03*
X753400D02*
D03*
Y721600D02*
D03*
Y747000D02*
D03*
Y772400D02*
D03*
Y797800D02*
D03*
X728000D02*
D03*
Y772400D02*
D03*
Y747000D02*
D03*
Y721600D02*
D03*
X911500Y696200D02*
D03*
X936900D02*
D03*
Y721600D02*
D03*
X911500D02*
D03*
Y747000D02*
D03*
X936900D02*
D03*
Y772400D02*
D03*
Y797800D02*
D03*
X911500D02*
D03*
Y772400D02*
D03*
X1095000Y696200D02*
D03*
X1120400D02*
D03*
Y721600D02*
D03*
X1095000D02*
D03*
Y747000D02*
D03*
X1120400D02*
D03*
Y772400D02*
D03*
Y797800D02*
D03*
X1095000D02*
D03*
Y772400D02*
D03*
X1278500Y696200D02*
D03*
X1303900D02*
D03*
Y721600D02*
D03*
Y747000D02*
D03*
Y772400D02*
D03*
Y797800D02*
D03*
X1278500D02*
D03*
Y772400D02*
D03*
Y747000D02*
D03*
Y721600D02*
D03*
X1462000Y696200D02*
D03*
X1487400D02*
D03*
Y721600D02*
D03*
Y747000D02*
D03*
Y772400D02*
D03*
Y797800D02*
D03*
X1462000D02*
D03*
Y772400D02*
D03*
Y747000D02*
D03*
Y721600D02*
D03*
X1645500Y696200D02*
D03*
X1670900D02*
D03*
Y721600D02*
D03*
Y747000D02*
D03*
Y772400D02*
D03*
Y797800D02*
D03*
X1645500D02*
D03*
Y772400D02*
D03*
Y747000D02*
D03*
Y721600D02*
D03*
M02*
