M48
;Layer_Color=9474304
;FILE_FORMAT=4:4
METRIC,TZ
;TYPE=PLATED
T1F00S00C1.0000
T2F00S00C3.0000
%
T01
X1645500Y696200
Y721600
Y747000
Y772400
X1670900
Y747000
Y721600
Y696200
X1487400
Y721600
Y747000
Y772400
X1462000
Y747000
Y721600
Y696200
X1303900
Y721600
Y747000
Y772400
X1278500
Y747000
Y721600
Y696200
X1436200Y444400
Y419000
X1461600
Y444400
X1487000
Y419000
X1512400
Y444400
X1537800
Y419000
X1017800
X992400
X967000
X941600
X916200
Y444400
X941600
X967000
X992400
X1017800
X1095000Y696200
Y721600
Y747000
Y772400
X1120400
Y747000
Y721600
Y696200
X936900
Y721600
Y747000
Y772400
X911500
Y747000
Y721600
Y696200
X753400
Y721600
Y747000
Y772400
X728000
Y747000
Y721600
Y696200
Y797800
X753400
X911500
X936900
X1095000
X1120400
X1278500
X1303900
X1462000
X1487400
X1645500
X1670900
T02
X1654000Y441500
X1668000Y580000
X1484500
X1301000
X1229000Y441000
X1134000Y441500
X1117500Y580000
X934000
X750500
X709000Y441000
X750000Y1005000
X933500
X1117000
X1300500
X1484000
X1667500
M30
