G04 Layer_Physical_Order=1*
G04 Layer_Color=255*
%FSLAX44Y44*%
%MOMM*%
G71*
G01*
G75*
%ADD10C,0.5000*%
%ADD11R,1.4000X1.2000*%
%ADD12R,0.9000X2.5000*%
%ADD13R,28.8000X1.1500*%
%ADD14R,12.5500X1.2000*%
%ADD15R,0.9000X4.8000*%
%ADD16R,1.8000X2.0000*%
%ADD17R,0.9000X4.2000*%
%ADD18R,18.3500X1.1000*%
%ADD19R,1.0000X3.4000*%
%ADD20R,6.9000X0.9000*%
%ADD21R,0.8000X1.0000*%
%ADD22R,11.1000X0.9000*%
%ADD23R,0.9000X1.3000*%
%ADD24R,0.8000X1.6000*%
%ADD25R,15.9000X1.0500*%
%ADD26R,4.6000X0.4000*%
%ADD27R,14.5500X1.0000*%
%ADD28R,1.3500X2.4500*%
%ADD29R,17.7500X14.5000*%
%ADD30R,16.6500X14.4500*%
%ADD31R,2.0000X2.0000*%
D10*
X941550Y460395D02*
G03*
X941550Y460395I0J-2121D01*
G01*
Y630395D02*
G03*
X941550Y630395I0J-2121D01*
G01*
Y800395D02*
G03*
X941550Y800395I0J-2121D01*
G01*
X1661550Y460395D02*
G03*
X1661550Y460395I0J-2121D01*
G01*
Y630395D02*
G03*
X1661550Y630395I0J-2121D01*
G01*
Y800395D02*
G03*
X1661550Y800395I0J-2121D01*
G01*
D11*
X819549Y417274D02*
D03*
Y435274D02*
D03*
X961049Y455034D02*
D03*
X986049D02*
D03*
X1012550Y455534D02*
D03*
X1037049Y456034D02*
D03*
X1063049Y456534D02*
D03*
Y487014D02*
D03*
X1038049Y551274D02*
D03*
X1037049Y486514D02*
D03*
X1012550Y486014D02*
D03*
X961550Y551274D02*
D03*
X986049Y485514D02*
D03*
X961049D02*
D03*
X1038049Y569274D02*
D03*
X1063049Y626534D02*
D03*
Y657014D02*
D03*
X1037049Y656514D02*
D03*
X1012550Y656014D02*
D03*
Y625534D02*
D03*
X1037049Y626034D02*
D03*
X986049Y655514D02*
D03*
Y625034D02*
D03*
X961550Y569274D02*
D03*
X961049Y625034D02*
D03*
Y655514D02*
D03*
X1038049Y721274D02*
D03*
Y739274D02*
D03*
X1063049Y796534D02*
D03*
Y827014D02*
D03*
X1037049Y826514D02*
D03*
X1012550Y826014D02*
D03*
Y795534D02*
D03*
X1037049Y796034D02*
D03*
X986049Y825514D02*
D03*
Y795034D02*
D03*
X961550Y739274D02*
D03*
Y721274D02*
D03*
X961049Y795034D02*
D03*
Y825514D02*
D03*
X819549Y775274D02*
D03*
Y757274D02*
D03*
Y605274D02*
D03*
Y587274D02*
D03*
X961550Y399274D02*
D03*
Y381274D02*
D03*
X1038049D02*
D03*
Y399274D02*
D03*
X1539550Y417274D02*
D03*
Y435274D02*
D03*
X1681550Y399274D02*
D03*
Y381274D02*
D03*
X1758049D02*
D03*
Y399274D02*
D03*
X1783049Y456534D02*
D03*
Y487014D02*
D03*
X1758049Y551274D02*
D03*
X1757050Y486514D02*
D03*
X1732549Y486014D02*
D03*
Y455534D02*
D03*
X1757050Y456034D02*
D03*
X1706049Y485514D02*
D03*
Y455034D02*
D03*
X1681049Y485514D02*
D03*
Y455034D02*
D03*
X1681550Y551274D02*
D03*
Y569274D02*
D03*
X1706049Y625034D02*
D03*
X1758049Y569274D02*
D03*
X1783049Y626534D02*
D03*
Y657014D02*
D03*
X1757050Y656514D02*
D03*
X1732549Y656014D02*
D03*
Y625534D02*
D03*
X1757050Y626034D02*
D03*
X1706049Y655514D02*
D03*
X1681049D02*
D03*
Y625034D02*
D03*
X1758049Y721274D02*
D03*
Y739274D02*
D03*
X1783049Y796534D02*
D03*
Y827014D02*
D03*
X1757050Y826514D02*
D03*
X1732549Y826014D02*
D03*
Y795534D02*
D03*
X1757050Y796034D02*
D03*
X1706049Y825514D02*
D03*
Y795034D02*
D03*
X1681049Y825514D02*
D03*
Y795034D02*
D03*
X1681550Y739274D02*
D03*
Y721274D02*
D03*
X1539550Y775274D02*
D03*
Y757274D02*
D03*
Y605274D02*
D03*
Y587274D02*
D03*
D12*
X840699Y395144D02*
D03*
X853400D02*
D03*
X866099D02*
D03*
X878800D02*
D03*
X891499D02*
D03*
X904200D02*
D03*
X916899D02*
D03*
X929600D02*
D03*
Y458404D02*
D03*
X916899D02*
D03*
X904200D02*
D03*
X891499D02*
D03*
X878800D02*
D03*
X866099D02*
D03*
X853400D02*
D03*
X840699D02*
D03*
X929600Y565144D02*
D03*
Y628404D02*
D03*
X916899D02*
D03*
X904200D02*
D03*
X891499D02*
D03*
Y565144D02*
D03*
X904200D02*
D03*
X916899D02*
D03*
X878800Y628404D02*
D03*
X866099D02*
D03*
X853400D02*
D03*
Y565144D02*
D03*
X866099D02*
D03*
X878800D02*
D03*
X840699Y628404D02*
D03*
Y565144D02*
D03*
X929600Y735144D02*
D03*
Y798404D02*
D03*
X916899D02*
D03*
X904200D02*
D03*
X891499D02*
D03*
Y735144D02*
D03*
X904200D02*
D03*
X916899D02*
D03*
X878800Y798404D02*
D03*
X866099D02*
D03*
X853400D02*
D03*
Y735144D02*
D03*
X866099D02*
D03*
X878800D02*
D03*
X840699Y798404D02*
D03*
Y735144D02*
D03*
X1560699Y395144D02*
D03*
X1573400D02*
D03*
X1586100D02*
D03*
X1598799D02*
D03*
X1611499D02*
D03*
X1624200D02*
D03*
X1636900D02*
D03*
X1649599D02*
D03*
Y458404D02*
D03*
X1636900D02*
D03*
X1624200D02*
D03*
X1611499D02*
D03*
X1598799D02*
D03*
X1586100D02*
D03*
X1573400D02*
D03*
X1560699D02*
D03*
X1649599Y565144D02*
D03*
Y628404D02*
D03*
X1636900D02*
D03*
X1624200D02*
D03*
X1611499D02*
D03*
Y565144D02*
D03*
X1624200D02*
D03*
X1636900D02*
D03*
X1598799Y628404D02*
D03*
X1586100D02*
D03*
X1573400D02*
D03*
Y565144D02*
D03*
X1586100D02*
D03*
X1598799D02*
D03*
X1560699Y628404D02*
D03*
Y565144D02*
D03*
X1649599Y735144D02*
D03*
Y798404D02*
D03*
X1636900D02*
D03*
X1624200D02*
D03*
X1611499D02*
D03*
Y735144D02*
D03*
X1624200D02*
D03*
X1636900D02*
D03*
X1598799Y798404D02*
D03*
X1586100D02*
D03*
X1573400D02*
D03*
Y735144D02*
D03*
X1586100D02*
D03*
X1598799D02*
D03*
X1560699Y798404D02*
D03*
Y735144D02*
D03*
D13*
X1005549Y512524D02*
D03*
Y682524D02*
D03*
Y852524D02*
D03*
X1725549Y512524D02*
D03*
Y682524D02*
D03*
Y852524D02*
D03*
D14*
X795300Y512274D02*
D03*
Y682274D02*
D03*
Y852274D02*
D03*
X1515300Y512274D02*
D03*
Y682274D02*
D03*
Y852274D02*
D03*
D15*
X853549Y483274D02*
D03*
Y653274D02*
D03*
Y823274D02*
D03*
X1573549Y483274D02*
D03*
Y653274D02*
D03*
Y823274D02*
D03*
D16*
X821550Y413274D02*
D03*
Y439274D02*
D03*
Y583274D02*
D03*
Y609274D02*
D03*
Y753274D02*
D03*
Y779274D02*
D03*
X1541550Y439274D02*
D03*
Y413274D02*
D03*
Y583274D02*
D03*
Y609274D02*
D03*
Y753274D02*
D03*
Y779274D02*
D03*
D17*
X866049Y487274D02*
D03*
Y657274D02*
D03*
Y827274D02*
D03*
X1586049Y487274D02*
D03*
Y657274D02*
D03*
Y827274D02*
D03*
D18*
X978299Y487774D02*
D03*
Y657774D02*
D03*
Y827774D02*
D03*
X1698300Y487774D02*
D03*
Y657774D02*
D03*
Y827774D02*
D03*
D19*
X891550Y468274D02*
D03*
Y638274D02*
D03*
Y808274D02*
D03*
X1611550Y468274D02*
D03*
Y638274D02*
D03*
Y808274D02*
D03*
D20*
X848050Y418774D02*
D03*
Y588774D02*
D03*
Y758774D02*
D03*
X1568049Y418774D02*
D03*
Y588774D02*
D03*
Y758774D02*
D03*
D21*
X878549Y409274D02*
D03*
Y579274D02*
D03*
Y749274D02*
D03*
X1598549Y409274D02*
D03*
Y579274D02*
D03*
Y749274D02*
D03*
D22*
X879050Y433774D02*
D03*
Y603774D02*
D03*
Y773774D02*
D03*
X1599050Y433774D02*
D03*
Y603774D02*
D03*
Y773774D02*
D03*
D23*
X879050Y440774D02*
D03*
Y610774D02*
D03*
Y780774D02*
D03*
X1599050Y440774D02*
D03*
Y610774D02*
D03*
Y780774D02*
D03*
D24*
X840550Y440274D02*
D03*
Y610274D02*
D03*
Y780274D02*
D03*
X1560549Y440274D02*
D03*
Y610274D02*
D03*
Y780274D02*
D03*
D25*
X968049Y420024D02*
D03*
Y590024D02*
D03*
Y760024D02*
D03*
X1688049Y420024D02*
D03*
Y590024D02*
D03*
Y760024D02*
D03*
D26*
X911550Y427274D02*
D03*
Y597274D02*
D03*
Y767274D02*
D03*
X1631550Y427274D02*
D03*
Y597274D02*
D03*
Y767274D02*
D03*
D27*
X997800Y379274D02*
D03*
Y549274D02*
D03*
Y719274D02*
D03*
X1717800Y379274D02*
D03*
Y549274D02*
D03*
Y719274D02*
D03*
D28*
X1063800Y396524D02*
D03*
Y566524D02*
D03*
Y736524D02*
D03*
X1783799Y396524D02*
D03*
Y566524D02*
D03*
Y736524D02*
D03*
D29*
X673800Y446274D02*
D03*
Y616274D02*
D03*
Y786274D02*
D03*
X1393799Y446274D02*
D03*
Y616274D02*
D03*
Y786274D02*
D03*
D30*
X1205300Y446524D02*
D03*
Y616524D02*
D03*
Y786524D02*
D03*
X1925300Y446524D02*
D03*
Y616524D02*
D03*
Y786524D02*
D03*
D31*
X961450Y415274D02*
D03*
X986850D02*
D03*
X1012250D02*
D03*
X1037650D02*
D03*
X1063049D02*
D03*
Y440674D02*
D03*
X1037650D02*
D03*
X1012250D02*
D03*
X986850D02*
D03*
X961450D02*
D03*
X1063049Y585274D02*
D03*
Y610674D02*
D03*
X1037650D02*
D03*
X1012250D02*
D03*
Y585274D02*
D03*
X1037650D02*
D03*
X986850Y610674D02*
D03*
X961450D02*
D03*
Y585274D02*
D03*
X986850D02*
D03*
X1063049Y755274D02*
D03*
Y780674D02*
D03*
X1037650D02*
D03*
X1012250D02*
D03*
Y755274D02*
D03*
X1037650D02*
D03*
X986850Y780674D02*
D03*
X961450D02*
D03*
Y755274D02*
D03*
X986850D02*
D03*
X1681449Y415274D02*
D03*
X1706850D02*
D03*
X1732249D02*
D03*
X1757650D02*
D03*
X1783049D02*
D03*
Y440674D02*
D03*
X1757650D02*
D03*
X1732249D02*
D03*
X1706850D02*
D03*
X1681449D02*
D03*
X1783049Y585274D02*
D03*
Y610674D02*
D03*
X1757650D02*
D03*
X1732249D02*
D03*
Y585274D02*
D03*
X1757650D02*
D03*
X1706850Y610674D02*
D03*
Y585274D02*
D03*
X1681449Y610674D02*
D03*
Y585274D02*
D03*
X1783049Y755274D02*
D03*
Y780674D02*
D03*
X1757650D02*
D03*
X1732249D02*
D03*
Y755274D02*
D03*
X1757650D02*
D03*
X1706850Y780674D02*
D03*
Y755274D02*
D03*
X1681449Y780674D02*
D03*
Y755274D02*
D03*
M02*
