G04 Layer_Physical_Order=1*
G04 Layer_Color=255*
%FSLAX44Y44*%
%MOMM*%
G71*
G01*
G75*
%ADD10C,0.5000*%
%ADD11R,1.2000X1.4000*%
%ADD12R,2.5000X0.9000*%
%ADD13R,1.1500X28.8000*%
%ADD14R,1.2000X12.5500*%
%ADD15R,4.8000X0.9000*%
%ADD16R,2.0000X1.8000*%
%ADD17R,4.2000X0.9000*%
%ADD18R,1.1000X18.3500*%
%ADD19R,3.4000X1.0000*%
%ADD20R,0.9000X6.9000*%
%ADD21R,1.0000X0.8000*%
%ADD22R,0.9000X11.1000*%
%ADD23R,1.3000X0.9000*%
%ADD24R,1.6000X0.8000*%
%ADD25R,1.0500X15.9000*%
%ADD26R,0.4000X4.6000*%
%ADD27R,1.0000X14.5500*%
%ADD28R,2.4500X1.3500*%
%ADD29R,14.5000X17.7500*%
%ADD30R,14.4500X16.6500*%
%ADD31R,1.4000X1.2000*%
%ADD32R,0.9000X2.5000*%
%ADD33R,28.8000X1.1500*%
%ADD34R,12.5500X1.2000*%
%ADD35R,0.9000X4.8000*%
%ADD36R,1.8000X2.0000*%
%ADD37R,0.9000X4.2000*%
%ADD38R,18.3500X1.1000*%
%ADD39R,1.0000X3.4000*%
%ADD40R,6.9000X0.9000*%
%ADD41R,0.8000X1.0000*%
%ADD42R,11.1000X0.9000*%
%ADD43R,0.9000X1.3000*%
%ADD44R,0.8000X1.6000*%
%ADD45R,15.9000X1.0500*%
%ADD46R,4.6000X0.4000*%
%ADD47R,14.5500X1.0000*%
%ADD48R,1.3500X2.4500*%
%ADD49R,17.7500X14.5000*%
%ADD50R,16.6500X14.4500*%
%ADD51R,0.9000X1.3000*%
%ADD52R,2.0000X2.0000*%
%ADD53R,2.0000X2.0000*%
D10*
X521851Y566627D02*
G03*
X521851Y566627I-2121J0D01*
G01*
X691851D02*
G03*
X691851Y566627I-2121J0D01*
G01*
X861851D02*
G03*
X861851Y566627I-2121J0D01*
G01*
X1031851D02*
G03*
X1031851Y566627I-2121J0D01*
G01*
X1201851D02*
G03*
X1201851Y566627I-2121J0D01*
G01*
X1371851D02*
G03*
X1371851Y566627I-2121J0D01*
G01*
X1541851D02*
G03*
X1541851Y566627I-2121J0D01*
G01*
X1711851D02*
G03*
X1711851Y566627I-2121J0D01*
G01*
X1881851D02*
G03*
X1881851Y566627I-2121J0D01*
G01*
X2051851D02*
G03*
X2051851Y566627I-2121J0D01*
G01*
X2221851D02*
G03*
X2221851Y566627I-2121J0D01*
G01*
X2391851D02*
G03*
X2391851Y566627I-2121J0D01*
G01*
X2561851D02*
G03*
X2561851Y566627I-2121J0D01*
G01*
X2731851D02*
G03*
X2731851Y566627I-2121J0D01*
G01*
X2901851D02*
G03*
X2901851Y566627I-2121J0D01*
G01*
Y1286627D02*
G03*
X2901851Y1286627I-2121J0D01*
G01*
X2731851D02*
G03*
X2731851Y1286627I-2121J0D01*
G01*
X2561851D02*
G03*
X2561851Y1286627I-2121J0D01*
G01*
X2391851D02*
G03*
X2391851Y1286627I-2121J0D01*
G01*
X2221851D02*
G03*
X2221851Y1286627I-2121J0D01*
G01*
X2051851D02*
G03*
X2051851Y1286627I-2121J0D01*
G01*
X1881851D02*
G03*
X1881851Y1286627I-2121J0D01*
G01*
X1711851D02*
G03*
X1711851Y1286627I-2121J0D01*
G01*
X1541851D02*
G03*
X1541851Y1286627I-2121J0D01*
G01*
X1371851D02*
G03*
X1371851Y1286627I-2121J0D01*
G01*
X1201851D02*
G03*
X1201851Y1286627I-2121J0D01*
G01*
X1031851D02*
G03*
X1031851Y1286627I-2121J0D01*
G01*
X861851D02*
G03*
X861851Y1286627I-2121J0D01*
G01*
X691851D02*
G03*
X691851Y1286627I-2121J0D01*
G01*
X521851D02*
G03*
X521851Y1286627I-2121J0D01*
G01*
X1187910Y1770347D02*
G03*
X1187910Y1770347I0J-2121D01*
G01*
Y1940347D02*
G03*
X1187910Y1940347I0J-2121D01*
G01*
Y2110347D02*
G03*
X1187910Y2110347I0J-2121D01*
G01*
X1907910Y1770347D02*
G03*
X1907910Y1770347I0J-2121D01*
G01*
Y1940347D02*
G03*
X1907910Y1940347I0J-2121D01*
G01*
Y2110347D02*
G03*
X1907910Y2110347I0J-2121D01*
G01*
X2627910Y1770347D02*
G03*
X2627910Y1770347I0J-2121D01*
G01*
Y1940347D02*
G03*
X2627910Y1940347I0J-2121D01*
G01*
Y2110347D02*
G03*
X2627910Y2110347I0J-2121D01*
G01*
D11*
X460730Y470127D02*
D03*
X517990Y445127D02*
D03*
X548470D02*
D03*
X612730Y470127D02*
D03*
X630730D02*
D03*
X687990Y445127D02*
D03*
X718470D02*
D03*
X782730Y470127D02*
D03*
X800730D02*
D03*
X857990Y445127D02*
D03*
X888470D02*
D03*
X952730Y470127D02*
D03*
X970730D02*
D03*
X1027990Y445127D02*
D03*
X1058470D02*
D03*
X1122730Y470127D02*
D03*
X1140730D02*
D03*
X1197990Y445127D02*
D03*
X1228470D02*
D03*
X1292730Y470127D02*
D03*
X1310730D02*
D03*
X1367990Y445127D02*
D03*
X1398470D02*
D03*
X1462730Y470127D02*
D03*
X1480730D02*
D03*
X1537990Y445127D02*
D03*
X1568470D02*
D03*
X1632730Y470127D02*
D03*
X1650730D02*
D03*
X1707990Y445127D02*
D03*
X1738470D02*
D03*
X1802730Y470127D02*
D03*
X1820730D02*
D03*
X1877990Y445127D02*
D03*
X1908470D02*
D03*
X1972730Y470127D02*
D03*
X2047990Y445127D02*
D03*
X2078470D02*
D03*
X2142730Y470127D02*
D03*
X2160730D02*
D03*
X2217990Y445127D02*
D03*
X2248470D02*
D03*
X2312730Y470127D02*
D03*
X2330730D02*
D03*
X2387990Y445127D02*
D03*
X2418470D02*
D03*
X2482730Y470127D02*
D03*
X2557990Y445127D02*
D03*
X2588470D02*
D03*
X2652730Y470127D02*
D03*
X2670730D02*
D03*
X2727990Y445127D02*
D03*
X2758470D02*
D03*
X2822730Y470127D02*
D03*
X2840730D02*
D03*
X2897990Y445127D02*
D03*
X2928470D02*
D03*
X2927970Y471127D02*
D03*
X2927470Y495627D02*
D03*
X2896990D02*
D03*
X2897490Y471127D02*
D03*
X2896490Y522127D02*
D03*
Y547127D02*
D03*
X2926970D02*
D03*
Y522127D02*
D03*
X2840730Y546627D02*
D03*
X2822730D02*
D03*
X2756970Y547127D02*
D03*
Y522127D02*
D03*
X2757470Y495627D02*
D03*
X2757970Y471127D02*
D03*
X2726490Y522127D02*
D03*
Y547127D02*
D03*
X2726990Y495627D02*
D03*
X2727490Y471127D02*
D03*
X2670730Y546627D02*
D03*
X2652730D02*
D03*
X2586970Y547127D02*
D03*
Y522127D02*
D03*
X2587470Y495627D02*
D03*
X2587970Y471127D02*
D03*
X2556490Y522127D02*
D03*
Y547127D02*
D03*
X2500730Y546627D02*
D03*
Y470127D02*
D03*
X2557490Y471127D02*
D03*
X2556990Y495627D02*
D03*
X2482730Y546627D02*
D03*
X2416970Y547127D02*
D03*
Y522127D02*
D03*
X2386490D02*
D03*
Y547127D02*
D03*
X2386990Y495627D02*
D03*
X2387490Y471127D02*
D03*
X2417970D02*
D03*
X2417470Y495627D02*
D03*
X2330730Y546627D02*
D03*
X2312730D02*
D03*
X2246970Y547127D02*
D03*
Y522127D02*
D03*
X2247470Y495627D02*
D03*
X2247970Y471127D02*
D03*
X2216490Y522127D02*
D03*
Y547127D02*
D03*
X2216990Y495627D02*
D03*
X2217490Y471127D02*
D03*
X2160730Y546627D02*
D03*
X2142730D02*
D03*
X2076970Y547127D02*
D03*
Y522127D02*
D03*
X2077470Y495627D02*
D03*
X2077970Y471127D02*
D03*
X2046490Y522127D02*
D03*
Y547127D02*
D03*
X1990730Y546627D02*
D03*
Y470127D02*
D03*
X2047490Y471127D02*
D03*
X2046990Y495627D02*
D03*
X1972730Y546627D02*
D03*
X1906970Y547127D02*
D03*
Y522127D02*
D03*
X1876490D02*
D03*
Y547127D02*
D03*
X1876990Y495627D02*
D03*
X1877490Y471127D02*
D03*
X1907970D02*
D03*
X1907470Y495627D02*
D03*
X1820730Y546627D02*
D03*
X1802730D02*
D03*
X1736970Y547127D02*
D03*
Y522127D02*
D03*
X1737470Y495627D02*
D03*
X1737970Y471127D02*
D03*
X1706490Y522127D02*
D03*
Y547127D02*
D03*
X1706990Y495627D02*
D03*
X1707490Y471127D02*
D03*
X1650730Y546627D02*
D03*
X1632730D02*
D03*
X1566970Y547127D02*
D03*
Y522127D02*
D03*
X1567470Y495627D02*
D03*
X1567970Y471127D02*
D03*
X1537490D02*
D03*
X1536990Y495627D02*
D03*
X1536490Y522127D02*
D03*
Y547127D02*
D03*
X1480730Y546627D02*
D03*
X1462730D02*
D03*
X1396970Y547127D02*
D03*
Y522127D02*
D03*
X1366490D02*
D03*
Y547127D02*
D03*
X1366990Y495627D02*
D03*
X1367490Y471127D02*
D03*
X1397970D02*
D03*
X1397470Y495627D02*
D03*
X1310730Y546627D02*
D03*
X1292730D02*
D03*
X1226970Y547127D02*
D03*
Y522127D02*
D03*
X1227470Y495627D02*
D03*
X1227970Y471127D02*
D03*
X1196490Y522127D02*
D03*
Y547127D02*
D03*
X1196990Y495627D02*
D03*
X1197490Y471127D02*
D03*
X1140730Y546627D02*
D03*
X1122730D02*
D03*
X1056970Y547127D02*
D03*
Y522127D02*
D03*
X1026490D02*
D03*
Y547127D02*
D03*
X1026990Y495627D02*
D03*
X1027490Y471127D02*
D03*
X1057970D02*
D03*
X1057470Y495627D02*
D03*
X970730Y546627D02*
D03*
X952730D02*
D03*
X886970Y547127D02*
D03*
Y522127D02*
D03*
X856490D02*
D03*
Y547127D02*
D03*
X856990Y495627D02*
D03*
X857490Y471127D02*
D03*
X887970D02*
D03*
X887470Y495627D02*
D03*
X800730Y546627D02*
D03*
X782730D02*
D03*
X716970Y547127D02*
D03*
Y522127D02*
D03*
X717470Y495627D02*
D03*
X717970Y471127D02*
D03*
X686490Y522127D02*
D03*
Y547127D02*
D03*
X686990Y495627D02*
D03*
X687490Y471127D02*
D03*
X630730Y546627D02*
D03*
X612730D02*
D03*
X546970Y547127D02*
D03*
Y522127D02*
D03*
X516490D02*
D03*
Y547127D02*
D03*
X516990Y495627D02*
D03*
X517490Y471127D02*
D03*
X547970D02*
D03*
X547470Y495627D02*
D03*
X460730Y546627D02*
D03*
X442730D02*
D03*
Y470127D02*
D03*
X478730Y688627D02*
D03*
X496730D02*
D03*
X648730D02*
D03*
X666730D02*
D03*
X818730D02*
D03*
X836730D02*
D03*
X988730D02*
D03*
X1006730D02*
D03*
X1158730D02*
D03*
X1176730D02*
D03*
X1328730D02*
D03*
X1346730D02*
D03*
X1498730D02*
D03*
X1516730D02*
D03*
X1668730D02*
D03*
X1686730D02*
D03*
X1838730D02*
D03*
X1856730D02*
D03*
X2008730D02*
D03*
X2026730D02*
D03*
X2178730D02*
D03*
X2196730D02*
D03*
X2348730D02*
D03*
X2366730D02*
D03*
X2518730D02*
D03*
X2536730D02*
D03*
X2688730D02*
D03*
X2706730D02*
D03*
X2858730D02*
D03*
X2876730D02*
D03*
X2897990Y1165127D02*
D03*
X2897490Y1191127D02*
D03*
X2896990Y1215627D02*
D03*
X2927470D02*
D03*
X2927970Y1191127D02*
D03*
X2928470Y1165127D02*
D03*
X2926970Y1242127D02*
D03*
Y1267127D02*
D03*
X2896490D02*
D03*
Y1242127D02*
D03*
X2840730Y1266627D02*
D03*
X2822730D02*
D03*
Y1190127D02*
D03*
X2840730D02*
D03*
X2756970Y1242127D02*
D03*
Y1267127D02*
D03*
X2757470Y1215627D02*
D03*
X2757970Y1191127D02*
D03*
X2758470Y1165127D02*
D03*
X2726490Y1242127D02*
D03*
Y1267127D02*
D03*
X2726990Y1215627D02*
D03*
X2727490Y1191127D02*
D03*
X2727990Y1165127D02*
D03*
X2670730Y1266627D02*
D03*
X2652730D02*
D03*
Y1190127D02*
D03*
X2670730D02*
D03*
X2586970Y1242127D02*
D03*
Y1267127D02*
D03*
X2587470Y1215627D02*
D03*
X2587970Y1191127D02*
D03*
X2588470Y1165127D02*
D03*
X2556490Y1242127D02*
D03*
Y1267127D02*
D03*
X2500730Y1266627D02*
D03*
Y1190127D02*
D03*
X2557490Y1191127D02*
D03*
X2556990Y1215627D02*
D03*
X2557990Y1165127D02*
D03*
X2482730Y1266627D02*
D03*
Y1190127D02*
D03*
X2416970Y1242127D02*
D03*
Y1267127D02*
D03*
X2386490D02*
D03*
Y1242127D02*
D03*
X2386990Y1215627D02*
D03*
X2387490Y1191127D02*
D03*
X2387990Y1165127D02*
D03*
X2418470D02*
D03*
X2417970Y1191127D02*
D03*
X2417470Y1215627D02*
D03*
X2330730Y1266627D02*
D03*
X2312730D02*
D03*
Y1190127D02*
D03*
X2330730D02*
D03*
X2246970Y1242127D02*
D03*
Y1267127D02*
D03*
X2247470Y1215627D02*
D03*
X2247970Y1191127D02*
D03*
X2248470Y1165127D02*
D03*
X2216490Y1242127D02*
D03*
Y1267127D02*
D03*
X2216990Y1215627D02*
D03*
X2217490Y1191127D02*
D03*
X2217990Y1165127D02*
D03*
X2160730Y1266627D02*
D03*
X2142730D02*
D03*
Y1190127D02*
D03*
X2160730D02*
D03*
X2076970Y1242127D02*
D03*
Y1267127D02*
D03*
X2077470Y1215627D02*
D03*
X2077970Y1191127D02*
D03*
X2078470Y1165127D02*
D03*
X2046490Y1242127D02*
D03*
Y1267127D02*
D03*
X1990730Y1266627D02*
D03*
Y1190127D02*
D03*
X2047490Y1191127D02*
D03*
X2046990Y1215627D02*
D03*
X2047990Y1165127D02*
D03*
X1972730Y1266627D02*
D03*
Y1190127D02*
D03*
X1906970Y1242127D02*
D03*
Y1267127D02*
D03*
X1876490D02*
D03*
Y1242127D02*
D03*
X1876990Y1215627D02*
D03*
X1877490Y1191127D02*
D03*
X1877990Y1165127D02*
D03*
X1908470D02*
D03*
X1907970Y1191127D02*
D03*
X1907470Y1215627D02*
D03*
X1820730Y1266627D02*
D03*
X1802730D02*
D03*
Y1190127D02*
D03*
X1820730D02*
D03*
X1736970Y1242127D02*
D03*
Y1267127D02*
D03*
X1737470Y1215627D02*
D03*
X1737970Y1191127D02*
D03*
X1738470Y1165127D02*
D03*
X1706490Y1242127D02*
D03*
Y1267127D02*
D03*
X1706990Y1215627D02*
D03*
X1707490Y1191127D02*
D03*
X1707990Y1165127D02*
D03*
X1650730Y1266627D02*
D03*
X1632730D02*
D03*
Y1190127D02*
D03*
X1650730D02*
D03*
X1566970Y1242127D02*
D03*
Y1267127D02*
D03*
X1567470Y1215627D02*
D03*
X1567970Y1191127D02*
D03*
X1568470Y1165127D02*
D03*
X1537990D02*
D03*
X1537490Y1191127D02*
D03*
X1536990Y1215627D02*
D03*
X1536490Y1242127D02*
D03*
Y1267127D02*
D03*
X1480730Y1266627D02*
D03*
Y1190127D02*
D03*
X1462730Y1266627D02*
D03*
Y1190127D02*
D03*
X1396970Y1242127D02*
D03*
Y1267127D02*
D03*
X1366490D02*
D03*
Y1242127D02*
D03*
X1366990Y1215627D02*
D03*
X1367490Y1191127D02*
D03*
X1367990Y1165127D02*
D03*
X1398470D02*
D03*
X1397970Y1191127D02*
D03*
X1397470Y1215627D02*
D03*
X1310730Y1266627D02*
D03*
X1292730D02*
D03*
Y1190127D02*
D03*
X1310730D02*
D03*
X1226970Y1242127D02*
D03*
Y1267127D02*
D03*
X1227470Y1215627D02*
D03*
X1227970Y1191127D02*
D03*
X1228470Y1165127D02*
D03*
X1196490Y1242127D02*
D03*
Y1267127D02*
D03*
X1196990Y1215627D02*
D03*
X1197490Y1191127D02*
D03*
X1197990Y1165127D02*
D03*
X1140730Y1266627D02*
D03*
X1122730D02*
D03*
Y1190127D02*
D03*
X1140730D02*
D03*
X1056970Y1242127D02*
D03*
Y1267127D02*
D03*
X1026490D02*
D03*
Y1242127D02*
D03*
X1026990Y1215627D02*
D03*
X1027490Y1191127D02*
D03*
X1027990Y1165127D02*
D03*
X1058470D02*
D03*
X1057970Y1191127D02*
D03*
X1057470Y1215627D02*
D03*
X970730Y1266627D02*
D03*
Y1190127D02*
D03*
X952730Y1266627D02*
D03*
Y1190127D02*
D03*
X886970Y1242127D02*
D03*
Y1267127D02*
D03*
X856490D02*
D03*
Y1242127D02*
D03*
X856990Y1215627D02*
D03*
X857490Y1191127D02*
D03*
X857990Y1165127D02*
D03*
X888470D02*
D03*
X887970Y1191127D02*
D03*
X887470Y1215627D02*
D03*
X800730Y1266627D02*
D03*
X782730D02*
D03*
Y1190127D02*
D03*
X800730D02*
D03*
X716970Y1242127D02*
D03*
Y1267127D02*
D03*
X717470Y1215627D02*
D03*
X717970Y1191127D02*
D03*
X718470Y1165127D02*
D03*
X686490Y1242127D02*
D03*
Y1267127D02*
D03*
X686990Y1215627D02*
D03*
X687490Y1191127D02*
D03*
X687990Y1165127D02*
D03*
X630730Y1266627D02*
D03*
X612730D02*
D03*
Y1190127D02*
D03*
X630730D02*
D03*
X546970Y1242127D02*
D03*
Y1267127D02*
D03*
X516490D02*
D03*
Y1242127D02*
D03*
X516990Y1215627D02*
D03*
X517490Y1191127D02*
D03*
X517990Y1165127D02*
D03*
X548470D02*
D03*
X547970Y1191127D02*
D03*
X547470Y1215627D02*
D03*
X460730Y1266627D02*
D03*
Y1190127D02*
D03*
X442730Y1266627D02*
D03*
Y1190127D02*
D03*
X648730Y1408627D02*
D03*
X666730D02*
D03*
X818730D02*
D03*
X836730D02*
D03*
X988730D02*
D03*
X1006730D02*
D03*
X1158730D02*
D03*
X1176730D02*
D03*
X1328730D02*
D03*
X1346730D02*
D03*
X1498730D02*
D03*
X1516730D02*
D03*
X1668730D02*
D03*
X1686730D02*
D03*
X1838730D02*
D03*
X1856730D02*
D03*
X2008730D02*
D03*
X2026730D02*
D03*
X2178730D02*
D03*
X2196730D02*
D03*
X2348730D02*
D03*
X2366730D02*
D03*
X2518730D02*
D03*
X2536730D02*
D03*
X2688730D02*
D03*
X2706730D02*
D03*
X2858730D02*
D03*
X2876730D02*
D03*
X496730D02*
D03*
X478730D02*
D03*
D12*
X626600Y578577D02*
D03*
Y591277D02*
D03*
Y603977D02*
D03*
Y616677D02*
D03*
Y629377D02*
D03*
X689860D02*
D03*
Y616677D02*
D03*
Y603977D02*
D03*
Y591277D02*
D03*
Y578577D02*
D03*
Y642077D02*
D03*
Y654777D02*
D03*
Y667477D02*
D03*
X626600D02*
D03*
Y654777D02*
D03*
Y642077D02*
D03*
X519860D02*
D03*
Y654777D02*
D03*
Y667477D02*
D03*
Y629377D02*
D03*
Y616677D02*
D03*
Y603977D02*
D03*
Y591277D02*
D03*
Y578577D02*
D03*
X456600Y642077D02*
D03*
Y654777D02*
D03*
Y667477D02*
D03*
Y629377D02*
D03*
Y616677D02*
D03*
Y603977D02*
D03*
Y591277D02*
D03*
Y578577D02*
D03*
X796600D02*
D03*
Y591277D02*
D03*
Y603977D02*
D03*
Y616677D02*
D03*
Y629377D02*
D03*
X859860D02*
D03*
Y616677D02*
D03*
Y603977D02*
D03*
Y591277D02*
D03*
Y578577D02*
D03*
Y642077D02*
D03*
Y654777D02*
D03*
Y667477D02*
D03*
X796600D02*
D03*
Y654777D02*
D03*
Y642077D02*
D03*
X966600Y629377D02*
D03*
Y616677D02*
D03*
Y603977D02*
D03*
Y591277D02*
D03*
Y578577D02*
D03*
X1029860D02*
D03*
Y591277D02*
D03*
Y603977D02*
D03*
Y616677D02*
D03*
Y629377D02*
D03*
X1136600D02*
D03*
Y616677D02*
D03*
Y603977D02*
D03*
Y591277D02*
D03*
Y578577D02*
D03*
X1199860D02*
D03*
Y591277D02*
D03*
Y603977D02*
D03*
Y616677D02*
D03*
Y629377D02*
D03*
Y642077D02*
D03*
Y654777D02*
D03*
Y667477D02*
D03*
X1136600D02*
D03*
Y654777D02*
D03*
Y642077D02*
D03*
X1029860D02*
D03*
Y654777D02*
D03*
Y667477D02*
D03*
X966600D02*
D03*
Y654777D02*
D03*
Y642077D02*
D03*
X1306600Y629377D02*
D03*
Y616677D02*
D03*
Y603977D02*
D03*
Y591277D02*
D03*
Y578577D02*
D03*
X1369860D02*
D03*
Y591277D02*
D03*
Y603977D02*
D03*
Y616677D02*
D03*
Y629377D02*
D03*
Y642077D02*
D03*
Y654777D02*
D03*
Y667477D02*
D03*
X1306600D02*
D03*
Y654777D02*
D03*
Y642077D02*
D03*
X1476600Y629377D02*
D03*
Y616677D02*
D03*
Y603977D02*
D03*
Y591277D02*
D03*
Y578577D02*
D03*
X1539860D02*
D03*
Y591277D02*
D03*
Y603977D02*
D03*
Y616677D02*
D03*
Y629377D02*
D03*
X1646600D02*
D03*
Y616677D02*
D03*
Y603977D02*
D03*
Y591277D02*
D03*
Y578577D02*
D03*
X1709860D02*
D03*
Y591277D02*
D03*
Y603977D02*
D03*
Y616677D02*
D03*
Y629377D02*
D03*
Y642077D02*
D03*
Y654777D02*
D03*
Y667477D02*
D03*
X1646600D02*
D03*
Y654777D02*
D03*
Y642077D02*
D03*
X1539860D02*
D03*
Y654777D02*
D03*
Y667477D02*
D03*
X1476600D02*
D03*
Y654777D02*
D03*
Y642077D02*
D03*
X1816600Y629377D02*
D03*
Y616677D02*
D03*
Y603977D02*
D03*
Y591277D02*
D03*
Y578577D02*
D03*
X1879860D02*
D03*
Y591277D02*
D03*
Y603977D02*
D03*
Y616677D02*
D03*
Y629377D02*
D03*
Y642077D02*
D03*
Y654777D02*
D03*
Y667477D02*
D03*
X1816600D02*
D03*
Y654777D02*
D03*
Y642077D02*
D03*
X1986600Y629377D02*
D03*
Y616677D02*
D03*
Y603977D02*
D03*
Y591277D02*
D03*
Y578577D02*
D03*
X2049860D02*
D03*
Y591277D02*
D03*
Y603977D02*
D03*
Y616677D02*
D03*
Y629377D02*
D03*
X2156600D02*
D03*
Y616677D02*
D03*
Y603977D02*
D03*
Y591277D02*
D03*
Y578577D02*
D03*
X2219860D02*
D03*
Y591277D02*
D03*
Y603977D02*
D03*
Y616677D02*
D03*
Y629377D02*
D03*
Y642077D02*
D03*
Y654777D02*
D03*
Y667477D02*
D03*
X2156600D02*
D03*
Y654777D02*
D03*
Y642077D02*
D03*
X2049860D02*
D03*
Y654777D02*
D03*
Y667477D02*
D03*
X1986600D02*
D03*
Y654777D02*
D03*
Y642077D02*
D03*
X2326600Y629377D02*
D03*
Y616677D02*
D03*
Y603977D02*
D03*
Y591277D02*
D03*
Y578577D02*
D03*
X2389860D02*
D03*
Y591277D02*
D03*
Y603977D02*
D03*
Y616677D02*
D03*
Y629377D02*
D03*
X2496600D02*
D03*
Y616677D02*
D03*
Y603977D02*
D03*
Y591277D02*
D03*
Y578577D02*
D03*
X2559860D02*
D03*
Y591277D02*
D03*
Y603977D02*
D03*
Y616677D02*
D03*
Y629377D02*
D03*
Y642077D02*
D03*
Y654777D02*
D03*
Y667477D02*
D03*
X2496600D02*
D03*
Y654777D02*
D03*
Y642077D02*
D03*
X2389860D02*
D03*
Y654777D02*
D03*
Y667477D02*
D03*
X2326600D02*
D03*
Y654777D02*
D03*
Y642077D02*
D03*
X2666600Y629377D02*
D03*
Y616677D02*
D03*
Y603977D02*
D03*
Y591277D02*
D03*
Y578577D02*
D03*
X2729860D02*
D03*
Y591277D02*
D03*
Y603977D02*
D03*
Y616677D02*
D03*
Y629377D02*
D03*
Y642077D02*
D03*
Y654777D02*
D03*
Y667477D02*
D03*
X2666600D02*
D03*
Y654777D02*
D03*
Y642077D02*
D03*
X2836600Y629377D02*
D03*
Y616677D02*
D03*
Y603977D02*
D03*
Y591277D02*
D03*
Y578577D02*
D03*
X2899860D02*
D03*
Y591277D02*
D03*
Y603977D02*
D03*
Y616677D02*
D03*
Y629377D02*
D03*
Y642077D02*
D03*
Y654777D02*
D03*
Y667477D02*
D03*
X2836600D02*
D03*
Y654777D02*
D03*
Y642077D02*
D03*
X2899860Y1298577D02*
D03*
Y1311277D02*
D03*
Y1323977D02*
D03*
Y1336677D02*
D03*
Y1349377D02*
D03*
Y1362077D02*
D03*
Y1374777D02*
D03*
Y1387477D02*
D03*
X2836600D02*
D03*
Y1374777D02*
D03*
Y1362077D02*
D03*
Y1349377D02*
D03*
Y1336677D02*
D03*
Y1323977D02*
D03*
Y1311277D02*
D03*
Y1298577D02*
D03*
X2729860Y1349377D02*
D03*
Y1362077D02*
D03*
Y1374777D02*
D03*
Y1387477D02*
D03*
Y1336677D02*
D03*
Y1323977D02*
D03*
Y1311277D02*
D03*
Y1298577D02*
D03*
X2666600Y1349377D02*
D03*
Y1362077D02*
D03*
Y1374777D02*
D03*
Y1387477D02*
D03*
Y1336677D02*
D03*
Y1323977D02*
D03*
Y1311277D02*
D03*
Y1298577D02*
D03*
X2559860Y1349377D02*
D03*
Y1362077D02*
D03*
Y1374777D02*
D03*
Y1387477D02*
D03*
Y1336677D02*
D03*
Y1323977D02*
D03*
Y1311277D02*
D03*
Y1298577D02*
D03*
X2496600Y1349377D02*
D03*
Y1362077D02*
D03*
Y1374777D02*
D03*
Y1387477D02*
D03*
Y1336677D02*
D03*
Y1323977D02*
D03*
Y1311277D02*
D03*
Y1298577D02*
D03*
X2389860Y1349377D02*
D03*
Y1362077D02*
D03*
Y1374777D02*
D03*
Y1387477D02*
D03*
Y1336677D02*
D03*
Y1323977D02*
D03*
Y1311277D02*
D03*
Y1298577D02*
D03*
X2326600Y1349377D02*
D03*
Y1362077D02*
D03*
Y1374777D02*
D03*
Y1387477D02*
D03*
Y1336677D02*
D03*
Y1323977D02*
D03*
Y1311277D02*
D03*
Y1298577D02*
D03*
X2219860Y1349377D02*
D03*
Y1362077D02*
D03*
Y1374777D02*
D03*
Y1387477D02*
D03*
Y1336677D02*
D03*
Y1323977D02*
D03*
Y1311277D02*
D03*
Y1298577D02*
D03*
X2156600Y1349377D02*
D03*
Y1362077D02*
D03*
Y1374777D02*
D03*
Y1387477D02*
D03*
Y1336677D02*
D03*
Y1323977D02*
D03*
Y1311277D02*
D03*
Y1298577D02*
D03*
X2049860Y1349377D02*
D03*
Y1362077D02*
D03*
Y1374777D02*
D03*
Y1387477D02*
D03*
Y1336677D02*
D03*
Y1323977D02*
D03*
Y1311277D02*
D03*
Y1298577D02*
D03*
X1986600Y1349377D02*
D03*
Y1362077D02*
D03*
Y1374777D02*
D03*
Y1387477D02*
D03*
Y1336677D02*
D03*
Y1323977D02*
D03*
Y1311277D02*
D03*
Y1298577D02*
D03*
X1879860Y1349377D02*
D03*
Y1362077D02*
D03*
Y1374777D02*
D03*
Y1387477D02*
D03*
Y1336677D02*
D03*
Y1323977D02*
D03*
Y1311277D02*
D03*
Y1298577D02*
D03*
X1816600Y1349377D02*
D03*
Y1362077D02*
D03*
Y1374777D02*
D03*
Y1387477D02*
D03*
Y1336677D02*
D03*
Y1323977D02*
D03*
Y1311277D02*
D03*
Y1298577D02*
D03*
X1709860Y1349377D02*
D03*
Y1362077D02*
D03*
Y1374777D02*
D03*
Y1387477D02*
D03*
Y1336677D02*
D03*
Y1323977D02*
D03*
Y1311277D02*
D03*
Y1298577D02*
D03*
X1646600Y1349377D02*
D03*
Y1362077D02*
D03*
Y1374777D02*
D03*
Y1387477D02*
D03*
Y1336677D02*
D03*
Y1323977D02*
D03*
Y1311277D02*
D03*
Y1298577D02*
D03*
X1539860Y1349377D02*
D03*
Y1362077D02*
D03*
Y1374777D02*
D03*
Y1387477D02*
D03*
Y1336677D02*
D03*
Y1323977D02*
D03*
Y1311277D02*
D03*
Y1298577D02*
D03*
X1476600Y1349377D02*
D03*
Y1362077D02*
D03*
Y1374777D02*
D03*
Y1387477D02*
D03*
Y1336677D02*
D03*
Y1323977D02*
D03*
Y1311277D02*
D03*
Y1298577D02*
D03*
X1369860Y1349377D02*
D03*
Y1362077D02*
D03*
Y1374777D02*
D03*
Y1387477D02*
D03*
Y1336677D02*
D03*
Y1323977D02*
D03*
Y1311277D02*
D03*
Y1298577D02*
D03*
X1306600Y1349377D02*
D03*
Y1362077D02*
D03*
Y1374777D02*
D03*
Y1387477D02*
D03*
Y1336677D02*
D03*
Y1323977D02*
D03*
Y1311277D02*
D03*
Y1298577D02*
D03*
X1199860Y1349377D02*
D03*
Y1362077D02*
D03*
Y1374777D02*
D03*
Y1387477D02*
D03*
Y1336677D02*
D03*
Y1323977D02*
D03*
Y1311277D02*
D03*
Y1298577D02*
D03*
X1136600Y1349377D02*
D03*
Y1362077D02*
D03*
Y1374777D02*
D03*
Y1387477D02*
D03*
Y1336677D02*
D03*
Y1323977D02*
D03*
Y1311277D02*
D03*
Y1298577D02*
D03*
X1029860Y1349377D02*
D03*
Y1362077D02*
D03*
Y1374777D02*
D03*
Y1387477D02*
D03*
Y1336677D02*
D03*
Y1323977D02*
D03*
Y1311277D02*
D03*
Y1298577D02*
D03*
X966600Y1349377D02*
D03*
Y1362077D02*
D03*
Y1374777D02*
D03*
Y1387477D02*
D03*
Y1336677D02*
D03*
Y1323977D02*
D03*
Y1311277D02*
D03*
Y1298577D02*
D03*
X859860Y1349377D02*
D03*
Y1362077D02*
D03*
Y1374777D02*
D03*
Y1387477D02*
D03*
Y1336677D02*
D03*
Y1323977D02*
D03*
Y1311277D02*
D03*
Y1298577D02*
D03*
X796600Y1349377D02*
D03*
Y1362077D02*
D03*
Y1374777D02*
D03*
Y1387477D02*
D03*
Y1336677D02*
D03*
Y1323977D02*
D03*
Y1311277D02*
D03*
Y1298577D02*
D03*
X689860Y1349377D02*
D03*
Y1362077D02*
D03*
Y1374777D02*
D03*
Y1387477D02*
D03*
Y1336677D02*
D03*
Y1323977D02*
D03*
Y1311277D02*
D03*
Y1298577D02*
D03*
X626600Y1349377D02*
D03*
Y1362077D02*
D03*
Y1374777D02*
D03*
Y1387477D02*
D03*
Y1336677D02*
D03*
Y1323977D02*
D03*
Y1311277D02*
D03*
Y1298577D02*
D03*
X519860Y1349377D02*
D03*
Y1362077D02*
D03*
Y1374777D02*
D03*
Y1387477D02*
D03*
Y1336677D02*
D03*
Y1323977D02*
D03*
Y1311277D02*
D03*
Y1298577D02*
D03*
X456600Y1349377D02*
D03*
Y1362077D02*
D03*
Y1374777D02*
D03*
Y1387477D02*
D03*
Y1336677D02*
D03*
Y1323977D02*
D03*
Y1311277D02*
D03*
Y1298577D02*
D03*
D13*
X573980Y502627D02*
D03*
X743980D02*
D03*
X913980D02*
D03*
X1083980D02*
D03*
X1253980D02*
D03*
X1423980D02*
D03*
X1593980D02*
D03*
X1763980D02*
D03*
X1933980D02*
D03*
X2103980D02*
D03*
X2273980D02*
D03*
X2443980D02*
D03*
X2613980D02*
D03*
X2783980D02*
D03*
X2953980D02*
D03*
Y1222627D02*
D03*
X2783980D02*
D03*
X2613980D02*
D03*
X2443980D02*
D03*
X2273980D02*
D03*
X2103980D02*
D03*
X1933980D02*
D03*
X1763980D02*
D03*
X1593980D02*
D03*
X1423980D02*
D03*
X1253980D02*
D03*
X1083980D02*
D03*
X913980D02*
D03*
X743980D02*
D03*
X573980D02*
D03*
D14*
X743730Y712877D02*
D03*
X913730D02*
D03*
X1083730D02*
D03*
X1253730D02*
D03*
X1423730D02*
D03*
X1593730D02*
D03*
X1763730D02*
D03*
X1933730D02*
D03*
X2103730D02*
D03*
X2273730D02*
D03*
X2443730D02*
D03*
X2613730D02*
D03*
X2783730D02*
D03*
X2953730D02*
D03*
Y1432877D02*
D03*
X2783730D02*
D03*
X2613730D02*
D03*
X2443730D02*
D03*
X2273730D02*
D03*
X2103730D02*
D03*
X1933730D02*
D03*
X1763730D02*
D03*
X1593730D02*
D03*
X1423730D02*
D03*
X1253730D02*
D03*
X1083730D02*
D03*
X913730D02*
D03*
X743730D02*
D03*
X573730D02*
D03*
Y712877D02*
D03*
D15*
X544730Y654627D02*
D03*
X714730D02*
D03*
X884730D02*
D03*
X1054730D02*
D03*
X1224730D02*
D03*
X1394730D02*
D03*
X1564730D02*
D03*
X1734730D02*
D03*
X1904730D02*
D03*
X2074730D02*
D03*
X2244730D02*
D03*
X2414730D02*
D03*
X2584730D02*
D03*
X2754730D02*
D03*
X2924730D02*
D03*
Y1374627D02*
D03*
X2754730D02*
D03*
X2584730D02*
D03*
X2414730D02*
D03*
X2244730D02*
D03*
X2074730D02*
D03*
X1904730D02*
D03*
X1734730D02*
D03*
X1564730D02*
D03*
X1394730D02*
D03*
X1224730D02*
D03*
X1054730D02*
D03*
X884730D02*
D03*
X714730D02*
D03*
X544730D02*
D03*
D16*
X644730Y686627D02*
D03*
X670730D02*
D03*
X814730D02*
D03*
X840730D02*
D03*
X984730D02*
D03*
X1010730D02*
D03*
X1154730D02*
D03*
X1180730D02*
D03*
X1324730D02*
D03*
X1350730D02*
D03*
X1494730D02*
D03*
X1520730D02*
D03*
X1664730D02*
D03*
X1690730D02*
D03*
X1834730D02*
D03*
X1860730D02*
D03*
X2004730D02*
D03*
X2030730D02*
D03*
X2174730D02*
D03*
X2200730D02*
D03*
X2344730D02*
D03*
X2370730D02*
D03*
X2514730D02*
D03*
X2540730D02*
D03*
X2684730D02*
D03*
X2710730D02*
D03*
X2854730D02*
D03*
X2880730D02*
D03*
Y1406627D02*
D03*
X2854730D02*
D03*
X2710730D02*
D03*
X2684730D02*
D03*
X2540730D02*
D03*
X2514730D02*
D03*
X2370730D02*
D03*
X2344730D02*
D03*
X2200730D02*
D03*
X2174730D02*
D03*
X2030730D02*
D03*
X2004730D02*
D03*
X1860730D02*
D03*
X1834730D02*
D03*
X1690730D02*
D03*
X1664730D02*
D03*
X1520730D02*
D03*
X1494730D02*
D03*
X1350730D02*
D03*
X1324730D02*
D03*
X1180730D02*
D03*
X1154730D02*
D03*
X1010730D02*
D03*
X984730D02*
D03*
X840730D02*
D03*
X814730D02*
D03*
X670730D02*
D03*
X644730D02*
D03*
X500730D02*
D03*
X474730D02*
D03*
Y686627D02*
D03*
X500730D02*
D03*
D17*
X548730Y642127D02*
D03*
X718730D02*
D03*
X888730D02*
D03*
X1058730D02*
D03*
X1228730D02*
D03*
X1398730D02*
D03*
X1568730D02*
D03*
X1738730D02*
D03*
X1908730D02*
D03*
X2078730D02*
D03*
X2248730D02*
D03*
X2418730D02*
D03*
X2588730D02*
D03*
X2758730D02*
D03*
X2928730D02*
D03*
Y1362127D02*
D03*
X2758730D02*
D03*
X2588730D02*
D03*
X2418730D02*
D03*
X2248730D02*
D03*
X2078730D02*
D03*
X1908730D02*
D03*
X1738730D02*
D03*
X1568730D02*
D03*
X1398730D02*
D03*
X1228730D02*
D03*
X1058730D02*
D03*
X888730D02*
D03*
X718730D02*
D03*
X548730D02*
D03*
D18*
X549230Y529877D02*
D03*
X719230D02*
D03*
X889230D02*
D03*
X1059230D02*
D03*
X1229230D02*
D03*
X1399230D02*
D03*
X1569230D02*
D03*
X1739230D02*
D03*
X1909230D02*
D03*
X2079230D02*
D03*
X2249230D02*
D03*
X2419230D02*
D03*
X2589230D02*
D03*
X2759230D02*
D03*
X2929230D02*
D03*
Y1249877D02*
D03*
X2759230D02*
D03*
X2589230D02*
D03*
X2419230D02*
D03*
X2249230D02*
D03*
X2079230D02*
D03*
X1909230D02*
D03*
X1739230D02*
D03*
X1569230D02*
D03*
X1399230D02*
D03*
X1229230D02*
D03*
X1059230D02*
D03*
X889230D02*
D03*
X719230D02*
D03*
X549230D02*
D03*
D19*
X529730Y616627D02*
D03*
X699730D02*
D03*
X869730D02*
D03*
X1039730D02*
D03*
X1209730D02*
D03*
X1379730D02*
D03*
X1549730D02*
D03*
X1719730D02*
D03*
X1889730D02*
D03*
X2059730D02*
D03*
X2229730D02*
D03*
X2399730D02*
D03*
X2569730D02*
D03*
X2739730D02*
D03*
X2909730D02*
D03*
Y1336627D02*
D03*
X2739730D02*
D03*
X2569730D02*
D03*
X2399730D02*
D03*
X2229730D02*
D03*
X2059730D02*
D03*
X1889730D02*
D03*
X1719730D02*
D03*
X1549730D02*
D03*
X1379730D02*
D03*
X1209730D02*
D03*
X1039730D02*
D03*
X869730D02*
D03*
X699730D02*
D03*
X529730D02*
D03*
D20*
X650230Y660127D02*
D03*
X820230D02*
D03*
X990230D02*
D03*
X1160230D02*
D03*
X1330230D02*
D03*
X1500230D02*
D03*
X1670230D02*
D03*
X1840230D02*
D03*
X2010230D02*
D03*
X2180230D02*
D03*
X2350230D02*
D03*
X2520230D02*
D03*
X2690230D02*
D03*
X2860230D02*
D03*
Y1380127D02*
D03*
X2690230D02*
D03*
X2520230D02*
D03*
X2350230D02*
D03*
X2180230D02*
D03*
X2010230D02*
D03*
X1840230D02*
D03*
X1670230D02*
D03*
X1500230D02*
D03*
X1330230D02*
D03*
X1160230D02*
D03*
X990230D02*
D03*
X820230D02*
D03*
X650230D02*
D03*
X480230D02*
D03*
Y660127D02*
D03*
D21*
X470730Y629627D02*
D03*
X640730D02*
D03*
X810730D02*
D03*
X980730D02*
D03*
X1150730D02*
D03*
X1320730D02*
D03*
X1490730D02*
D03*
X1660730D02*
D03*
X1830730D02*
D03*
X2000730D02*
D03*
X2170730D02*
D03*
X2340730D02*
D03*
X2510730D02*
D03*
X2680730D02*
D03*
X2850730D02*
D03*
Y1349627D02*
D03*
X2680730D02*
D03*
X2510730D02*
D03*
X2340730D02*
D03*
X2170730D02*
D03*
X2000730D02*
D03*
X1830730D02*
D03*
X1660730D02*
D03*
X1490730D02*
D03*
X1320730D02*
D03*
X1150730D02*
D03*
X980730D02*
D03*
X810730D02*
D03*
X640730D02*
D03*
X470730D02*
D03*
D22*
X495230Y629127D02*
D03*
X665230D02*
D03*
X835230D02*
D03*
X1005230D02*
D03*
X1175230D02*
D03*
X1345230D02*
D03*
X1515230D02*
D03*
X1685230D02*
D03*
X1855230D02*
D03*
X2025230D02*
D03*
X2195230D02*
D03*
X2365230D02*
D03*
X2535230D02*
D03*
X2705230D02*
D03*
X2875230D02*
D03*
Y1349127D02*
D03*
X2705230D02*
D03*
X2535230D02*
D03*
X2365230D02*
D03*
X2195230D02*
D03*
X2025230D02*
D03*
X1855230D02*
D03*
X1685230D02*
D03*
X1515230D02*
D03*
X1345230D02*
D03*
X1175230D02*
D03*
X1005230D02*
D03*
X835230D02*
D03*
X665230D02*
D03*
X495230D02*
D03*
D23*
X502230Y629127D02*
D03*
X672230D02*
D03*
X842230D02*
D03*
X1012230D02*
D03*
X1182230D02*
D03*
X1352230D02*
D03*
X1522230D02*
D03*
X1692230D02*
D03*
X1862230D02*
D03*
X2032230D02*
D03*
X2202230D02*
D03*
X2372230D02*
D03*
X2542230D02*
D03*
X2712230D02*
D03*
X2882230D02*
D03*
Y1349127D02*
D03*
X2712230D02*
D03*
X2542230D02*
D03*
X2372230D02*
D03*
X2202230D02*
D03*
X2032230D02*
D03*
X1862230D02*
D03*
X1692230D02*
D03*
X1522230D02*
D03*
X1352230D02*
D03*
X1182230D02*
D03*
X1012230D02*
D03*
X842230D02*
D03*
X672230D02*
D03*
X502230D02*
D03*
D24*
X671730Y667627D02*
D03*
X841730D02*
D03*
X1011730D02*
D03*
X1181730D02*
D03*
X1351730D02*
D03*
X1521730D02*
D03*
X1691730D02*
D03*
X1861730D02*
D03*
X2031730D02*
D03*
X2201730D02*
D03*
X2371730D02*
D03*
X2541730D02*
D03*
X2711730D02*
D03*
X2881730D02*
D03*
Y1387627D02*
D03*
X2711730D02*
D03*
X2541730D02*
D03*
X2371730D02*
D03*
X2201730D02*
D03*
X2031730D02*
D03*
X1861730D02*
D03*
X1691730D02*
D03*
X1521730D02*
D03*
X1351730D02*
D03*
X1181730D02*
D03*
X1011730D02*
D03*
X841730D02*
D03*
X671730D02*
D03*
X501730D02*
D03*
Y667627D02*
D03*
D25*
X481480Y540127D02*
D03*
X651480D02*
D03*
X821480D02*
D03*
X991480D02*
D03*
X1161480D02*
D03*
X1331480D02*
D03*
X1501480D02*
D03*
X1671480D02*
D03*
X1841480D02*
D03*
X2011480D02*
D03*
X2181480D02*
D03*
X2351480D02*
D03*
X2521480D02*
D03*
X2691480D02*
D03*
X2861480D02*
D03*
Y1260127D02*
D03*
X2691480D02*
D03*
X2521480D02*
D03*
X2351480D02*
D03*
X2181480D02*
D03*
X2011480D02*
D03*
X1841480D02*
D03*
X1671480D02*
D03*
X1501480D02*
D03*
X1331480D02*
D03*
X1161480D02*
D03*
X991480D02*
D03*
X821480D02*
D03*
X651480D02*
D03*
X481480D02*
D03*
D26*
X488730Y596627D02*
D03*
X658730D02*
D03*
X828730D02*
D03*
X998730D02*
D03*
X1168730D02*
D03*
X1338730D02*
D03*
X1508730D02*
D03*
X1678730D02*
D03*
X1848730D02*
D03*
X2018730D02*
D03*
X2188730D02*
D03*
X2358730D02*
D03*
X2528730D02*
D03*
X2698730D02*
D03*
X2868730D02*
D03*
Y1316627D02*
D03*
X2698730D02*
D03*
X2528730D02*
D03*
X2358730D02*
D03*
X2188730D02*
D03*
X2018730D02*
D03*
X1848730D02*
D03*
X1678730D02*
D03*
X1508730D02*
D03*
X1338730D02*
D03*
X1168730D02*
D03*
X998730D02*
D03*
X828730D02*
D03*
X658730D02*
D03*
X488730D02*
D03*
D27*
X440730Y510377D02*
D03*
X610730D02*
D03*
X780730D02*
D03*
X950730D02*
D03*
X1120730D02*
D03*
X1290730D02*
D03*
X1460730D02*
D03*
X1630730D02*
D03*
X1800730D02*
D03*
X1970730D02*
D03*
X2140730D02*
D03*
X2310730D02*
D03*
X2480730D02*
D03*
X2650730D02*
D03*
X2820730D02*
D03*
Y1230377D02*
D03*
X2650730D02*
D03*
X2480730D02*
D03*
X2310730D02*
D03*
X2140730D02*
D03*
X1970730D02*
D03*
X1800730D02*
D03*
X1630730D02*
D03*
X1460730D02*
D03*
X1290730D02*
D03*
X1120730D02*
D03*
X950730D02*
D03*
X780730D02*
D03*
X610730D02*
D03*
X440730D02*
D03*
D28*
X457980Y444377D02*
D03*
X627980D02*
D03*
X797980D02*
D03*
X967980D02*
D03*
X1137980D02*
D03*
X1307980D02*
D03*
X1477980D02*
D03*
X1647980D02*
D03*
X1817980D02*
D03*
X1987980D02*
D03*
X2157980D02*
D03*
X2327980D02*
D03*
X2497980D02*
D03*
X2667980D02*
D03*
X2837980D02*
D03*
Y1164377D02*
D03*
X2667980D02*
D03*
X2497980D02*
D03*
X2327980D02*
D03*
X2157980D02*
D03*
X1987980D02*
D03*
X1817980D02*
D03*
X1647980D02*
D03*
X1477980D02*
D03*
X1307980D02*
D03*
X1137980D02*
D03*
X967980D02*
D03*
X797980D02*
D03*
X627980D02*
D03*
X457980D02*
D03*
D29*
X847730Y834377D02*
D03*
X1017730D02*
D03*
X1187730D02*
D03*
X1357730D02*
D03*
X1527730D02*
D03*
X1697730D02*
D03*
X1867730D02*
D03*
X2037730D02*
D03*
X2207730D02*
D03*
X2377730D02*
D03*
X2547730D02*
D03*
X2717730D02*
D03*
X2887730D02*
D03*
Y1554377D02*
D03*
X2717730D02*
D03*
X2547730D02*
D03*
X2377730D02*
D03*
X2207730D02*
D03*
X2037730D02*
D03*
X1867730D02*
D03*
X1697730D02*
D03*
X1527730D02*
D03*
X1357730D02*
D03*
X1187730D02*
D03*
X1017730D02*
D03*
X847730D02*
D03*
X677730D02*
D03*
X507730D02*
D03*
Y834377D02*
D03*
X677730D02*
D03*
D30*
X507980Y302877D02*
D03*
X677980D02*
D03*
X847980D02*
D03*
X1017980D02*
D03*
X1187980D02*
D03*
X1357980D02*
D03*
X1527980D02*
D03*
X1697980D02*
D03*
X1867980D02*
D03*
X2037980D02*
D03*
X2207980D02*
D03*
X2377980D02*
D03*
X2547980D02*
D03*
X2717980D02*
D03*
X2887980D02*
D03*
Y1022877D02*
D03*
X2717980D02*
D03*
X2547980D02*
D03*
X2377980D02*
D03*
X2207980D02*
D03*
X2037980D02*
D03*
X1867980D02*
D03*
X1697980D02*
D03*
X1527980D02*
D03*
X1357980D02*
D03*
X1187980D02*
D03*
X1017980D02*
D03*
X847980D02*
D03*
X677980D02*
D03*
X507980D02*
D03*
D31*
X1284410Y1691226D02*
D03*
Y1709226D02*
D03*
X1283410Y1765986D02*
D03*
X1309410Y1766486D02*
D03*
Y1796966D02*
D03*
X1283410Y1796466D02*
D03*
X1284410Y1861226D02*
D03*
Y1879226D02*
D03*
X1283410Y1935986D02*
D03*
X1309410Y1936486D02*
D03*
Y1966966D02*
D03*
X1283410Y1966466D02*
D03*
X1284410Y2031226D02*
D03*
Y2049226D02*
D03*
X1283410Y2105986D02*
D03*
X1309410Y2106486D02*
D03*
Y2136966D02*
D03*
X1283410Y2136466D02*
D03*
X1258910Y2135966D02*
D03*
X1232410Y2135466D02*
D03*
Y2104986D02*
D03*
X1258910Y2105486D02*
D03*
X1207410Y2135466D02*
D03*
Y2104986D02*
D03*
X1207910Y2049226D02*
D03*
Y2031226D02*
D03*
X1207410Y1965466D02*
D03*
Y1934986D02*
D03*
X1207910Y1879226D02*
D03*
Y1861226D02*
D03*
X1207410Y1795466D02*
D03*
Y1764986D02*
D03*
X1207910Y1709226D02*
D03*
Y1691226D02*
D03*
X1232410Y1764986D02*
D03*
X1258910Y1765486D02*
D03*
Y1795966D02*
D03*
X1232410Y1795466D02*
D03*
Y1934986D02*
D03*
X1258910Y1935486D02*
D03*
Y1965966D02*
D03*
X1232410Y1965466D02*
D03*
X1065910Y2067226D02*
D03*
Y2085226D02*
D03*
Y1915226D02*
D03*
Y1897226D02*
D03*
Y1745226D02*
D03*
Y1727226D02*
D03*
X1785910D02*
D03*
Y1745226D02*
D03*
Y1897226D02*
D03*
Y1915226D02*
D03*
X1927910Y1709226D02*
D03*
Y1691226D02*
D03*
X2004410D02*
D03*
Y1709226D02*
D03*
X2003410Y1765986D02*
D03*
X2029410Y1766486D02*
D03*
Y1796966D02*
D03*
X2003410Y1796466D02*
D03*
X2004410Y1861226D02*
D03*
Y1879226D02*
D03*
X2003410Y1935986D02*
D03*
X2029410Y1936486D02*
D03*
Y1966966D02*
D03*
X2003410Y1966466D02*
D03*
X2004410Y2031226D02*
D03*
Y2049226D02*
D03*
X2003410Y2105986D02*
D03*
X2029410Y2106486D02*
D03*
Y2136966D02*
D03*
X2003410Y2136466D02*
D03*
X1978910Y2135966D02*
D03*
X1952410Y2135466D02*
D03*
X1927410D02*
D03*
Y2104986D02*
D03*
X1952410D02*
D03*
X1978910Y2105486D02*
D03*
X1927910Y2049226D02*
D03*
Y2031226D02*
D03*
X1927410Y1965466D02*
D03*
X1952410D02*
D03*
X1978910Y1965966D02*
D03*
Y1935486D02*
D03*
X1952410Y1934986D02*
D03*
X1927410D02*
D03*
X1927910Y1879226D02*
D03*
Y1861226D02*
D03*
X1927410Y1795466D02*
D03*
X1952410D02*
D03*
X1978910Y1795966D02*
D03*
Y1765486D02*
D03*
X1952410Y1764986D02*
D03*
X1927410D02*
D03*
X1785910Y2067226D02*
D03*
Y2085226D02*
D03*
X2505910Y1727226D02*
D03*
Y1745226D02*
D03*
X2647910Y1709226D02*
D03*
Y1691226D02*
D03*
X2724410D02*
D03*
Y1709226D02*
D03*
X2723410Y1765986D02*
D03*
X2698910Y1765486D02*
D03*
X2749410Y1766486D02*
D03*
Y1796966D02*
D03*
X2723410Y1796466D02*
D03*
X2698910Y1795966D02*
D03*
X2724410Y1861226D02*
D03*
Y1879226D02*
D03*
X2723410Y1935986D02*
D03*
X2698910Y1935486D02*
D03*
Y1965966D02*
D03*
X2723410Y1966466D02*
D03*
X2749410Y1966966D02*
D03*
Y1936486D02*
D03*
X2724410Y2031226D02*
D03*
Y2049226D02*
D03*
X2723410Y2105986D02*
D03*
X2698910Y2105486D02*
D03*
X2749410Y2106486D02*
D03*
Y2136966D02*
D03*
X2723410Y2136466D02*
D03*
X2698910Y2135966D02*
D03*
X2672410Y2135466D02*
D03*
X2647410D02*
D03*
Y2104986D02*
D03*
X2672410D02*
D03*
X2647910Y2049226D02*
D03*
Y2031226D02*
D03*
X2647410Y1965466D02*
D03*
X2672410D02*
D03*
Y1934986D02*
D03*
X2647410D02*
D03*
X2647910Y1879226D02*
D03*
Y1861226D02*
D03*
X2647410Y1795466D02*
D03*
X2672410D02*
D03*
Y1764986D02*
D03*
X2647410D02*
D03*
X2505910Y1897226D02*
D03*
Y1915226D02*
D03*
Y2067226D02*
D03*
Y2085226D02*
D03*
D32*
X1163260Y1705096D02*
D03*
X1175960D02*
D03*
Y1768356D02*
D03*
X1163260D02*
D03*
X1150560D02*
D03*
X1137860D02*
D03*
X1125160D02*
D03*
X1112460D02*
D03*
X1099760D02*
D03*
Y1705096D02*
D03*
X1112460D02*
D03*
X1125160D02*
D03*
X1137860D02*
D03*
X1150560D02*
D03*
X1087060Y1768356D02*
D03*
Y1705096D02*
D03*
X1163260Y1875096D02*
D03*
X1175960D02*
D03*
Y1938356D02*
D03*
X1163260D02*
D03*
Y2045096D02*
D03*
X1175960D02*
D03*
Y2108356D02*
D03*
X1163260D02*
D03*
X1150560D02*
D03*
X1137860D02*
D03*
X1125160D02*
D03*
X1112460D02*
D03*
X1099760D02*
D03*
Y2045096D02*
D03*
X1112460D02*
D03*
X1125160D02*
D03*
X1137860D02*
D03*
X1150560D02*
D03*
Y1938356D02*
D03*
X1137860D02*
D03*
X1125160D02*
D03*
X1112460D02*
D03*
X1099760D02*
D03*
Y1875096D02*
D03*
X1112460D02*
D03*
X1125160D02*
D03*
X1137860D02*
D03*
X1150560D02*
D03*
X1087060Y1938356D02*
D03*
Y1875096D02*
D03*
Y2045096D02*
D03*
Y2108356D02*
D03*
X1807060Y1705096D02*
D03*
X1819760D02*
D03*
X1832460D02*
D03*
X1845160D02*
D03*
X1857860D02*
D03*
X1870560D02*
D03*
X1883260D02*
D03*
X1895960D02*
D03*
Y1768356D02*
D03*
X1883260D02*
D03*
X1870560D02*
D03*
X1857860D02*
D03*
X1845160D02*
D03*
X1832460D02*
D03*
X1819760D02*
D03*
X1807060D02*
D03*
X1857860Y1875096D02*
D03*
X1870560D02*
D03*
X1883260D02*
D03*
X1895960D02*
D03*
Y1938356D02*
D03*
X1883260D02*
D03*
X1870560D02*
D03*
X1857860D02*
D03*
Y2045096D02*
D03*
X1870560D02*
D03*
X1883260D02*
D03*
X1895960D02*
D03*
Y2108356D02*
D03*
X1883260D02*
D03*
X1870560D02*
D03*
X1857860D02*
D03*
X1845160D02*
D03*
X1832460D02*
D03*
X1819760D02*
D03*
X1807060D02*
D03*
Y2045096D02*
D03*
X1819760D02*
D03*
X1832460D02*
D03*
X1845160D02*
D03*
Y1938356D02*
D03*
X1832460D02*
D03*
X1819760D02*
D03*
X1807060D02*
D03*
Y1875096D02*
D03*
X1819760D02*
D03*
X1832460D02*
D03*
X1845160D02*
D03*
X2527060Y1705096D02*
D03*
X2539760D02*
D03*
X2552460D02*
D03*
X2565160D02*
D03*
X2577860D02*
D03*
X2590560D02*
D03*
X2603260D02*
D03*
X2615960D02*
D03*
Y1768356D02*
D03*
X2603260D02*
D03*
X2590560D02*
D03*
X2577860D02*
D03*
X2565160D02*
D03*
X2552460D02*
D03*
X2539760D02*
D03*
X2527060D02*
D03*
X2565160Y1875096D02*
D03*
X2577860D02*
D03*
X2590560D02*
D03*
X2603260D02*
D03*
X2615960D02*
D03*
Y1938356D02*
D03*
X2603260D02*
D03*
X2590560D02*
D03*
X2577860D02*
D03*
X2565160D02*
D03*
Y2045096D02*
D03*
X2577860D02*
D03*
X2590560D02*
D03*
X2603260D02*
D03*
X2615960D02*
D03*
Y2108356D02*
D03*
X2603260D02*
D03*
X2590560D02*
D03*
X2577860D02*
D03*
X2565160D02*
D03*
X2552460D02*
D03*
X2539760D02*
D03*
X2527060D02*
D03*
Y2045096D02*
D03*
X2539760D02*
D03*
X2552460D02*
D03*
Y1938356D02*
D03*
X2539760D02*
D03*
X2527060D02*
D03*
Y1875096D02*
D03*
X2539760D02*
D03*
X2552460D02*
D03*
D33*
X1251910Y1822476D02*
D03*
Y1992476D02*
D03*
Y2162476D02*
D03*
X1971910Y1822476D02*
D03*
Y1992476D02*
D03*
Y2162476D02*
D03*
X2691910Y1822476D02*
D03*
Y1992476D02*
D03*
Y2162476D02*
D03*
D34*
X1761660Y1822226D02*
D03*
Y1992226D02*
D03*
Y2162226D02*
D03*
X2481660Y1822226D02*
D03*
Y1992226D02*
D03*
Y2162226D02*
D03*
X1041660D02*
D03*
Y1992226D02*
D03*
Y1822226D02*
D03*
D35*
X1819910Y1793226D02*
D03*
Y1963226D02*
D03*
Y2133226D02*
D03*
X2539910Y1793226D02*
D03*
Y1963226D02*
D03*
Y2133226D02*
D03*
X1099910D02*
D03*
Y1963226D02*
D03*
Y1793226D02*
D03*
D36*
X1067910Y1723226D02*
D03*
Y1749226D02*
D03*
Y1893226D02*
D03*
Y1919226D02*
D03*
Y2063226D02*
D03*
Y2089226D02*
D03*
X1787910Y1723226D02*
D03*
Y1749226D02*
D03*
Y1893226D02*
D03*
Y1919226D02*
D03*
Y2063226D02*
D03*
Y2089226D02*
D03*
X2507910Y1723226D02*
D03*
Y1749226D02*
D03*
Y1893226D02*
D03*
Y1919226D02*
D03*
Y2063226D02*
D03*
Y2089226D02*
D03*
D37*
X1832410Y1797226D02*
D03*
Y1967226D02*
D03*
Y2137226D02*
D03*
X2552410Y1797226D02*
D03*
Y1967226D02*
D03*
Y2137226D02*
D03*
X1112410D02*
D03*
Y1967226D02*
D03*
Y1797226D02*
D03*
D38*
X1224660Y1797726D02*
D03*
Y1967726D02*
D03*
Y2137726D02*
D03*
X1944660Y1797726D02*
D03*
Y1967726D02*
D03*
Y2137726D02*
D03*
X2664660Y1797726D02*
D03*
Y1967726D02*
D03*
Y2137726D02*
D03*
D39*
X1137910Y1778226D02*
D03*
Y1948226D02*
D03*
Y2118226D02*
D03*
X1857910Y1778226D02*
D03*
Y1948226D02*
D03*
Y2118226D02*
D03*
X2577910Y1778226D02*
D03*
Y1948226D02*
D03*
Y2118226D02*
D03*
D40*
X1094410Y1728726D02*
D03*
Y1898726D02*
D03*
Y2068726D02*
D03*
X1814410Y1728726D02*
D03*
Y1898726D02*
D03*
Y2068726D02*
D03*
X2534410Y1728726D02*
D03*
Y1898726D02*
D03*
Y2068726D02*
D03*
D41*
X1124910Y1719226D02*
D03*
Y1889226D02*
D03*
Y2059226D02*
D03*
X1844910Y1719226D02*
D03*
Y1889226D02*
D03*
Y2059226D02*
D03*
X2564910Y1719226D02*
D03*
Y1889226D02*
D03*
Y2059226D02*
D03*
D42*
X1125410Y1743726D02*
D03*
Y1913726D02*
D03*
Y2083726D02*
D03*
X1845410Y1743726D02*
D03*
Y1913726D02*
D03*
Y2083726D02*
D03*
X2565410Y1743726D02*
D03*
Y1913726D02*
D03*
Y2083726D02*
D03*
D43*
X2565410Y1750726D02*
D03*
Y1920726D02*
D03*
Y2090726D02*
D03*
D44*
X1086910Y1750226D02*
D03*
Y1920226D02*
D03*
Y2090226D02*
D03*
X1806910Y1750226D02*
D03*
Y1920226D02*
D03*
Y2090226D02*
D03*
X2526910Y1750226D02*
D03*
Y1920226D02*
D03*
Y2090226D02*
D03*
D45*
X1214410Y1729976D02*
D03*
Y1899976D02*
D03*
Y2069976D02*
D03*
X1934410Y1729976D02*
D03*
Y1899976D02*
D03*
Y2069976D02*
D03*
X2654410Y1729976D02*
D03*
Y1899976D02*
D03*
Y2069976D02*
D03*
D46*
X1157910Y1737226D02*
D03*
Y1907226D02*
D03*
Y2077226D02*
D03*
X1877910Y1737226D02*
D03*
Y1907226D02*
D03*
Y2077226D02*
D03*
X2597910Y1737226D02*
D03*
Y1907226D02*
D03*
Y2077226D02*
D03*
D47*
X1244160Y1689226D02*
D03*
Y1859226D02*
D03*
Y2029226D02*
D03*
X1964160Y1689226D02*
D03*
Y1859226D02*
D03*
Y2029226D02*
D03*
X2684160Y1689226D02*
D03*
Y1859226D02*
D03*
Y2029226D02*
D03*
D48*
X1310160Y1706476D02*
D03*
Y1876476D02*
D03*
Y2046476D02*
D03*
X2030160Y1706476D02*
D03*
Y1876476D02*
D03*
Y2046476D02*
D03*
X2750161Y1706476D02*
D03*
Y1876476D02*
D03*
Y2046476D02*
D03*
D49*
X1640160Y1756226D02*
D03*
Y1926226D02*
D03*
Y2096226D02*
D03*
X2360160Y1756226D02*
D03*
Y1926226D02*
D03*
Y2096226D02*
D03*
X920160D02*
D03*
Y1926226D02*
D03*
Y1756226D02*
D03*
D50*
X1451660Y1756476D02*
D03*
Y1926476D02*
D03*
Y2096476D02*
D03*
X2171660Y1756476D02*
D03*
Y1926476D02*
D03*
Y2096476D02*
D03*
X2891660Y1756476D02*
D03*
Y1926476D02*
D03*
Y2096476D02*
D03*
D51*
X1125410Y1750726D02*
D03*
Y1920726D02*
D03*
Y2090726D02*
D03*
X1845410Y1750726D02*
D03*
Y1920726D02*
D03*
Y2090726D02*
D03*
D52*
X476730Y445127D02*
D03*
X502130D02*
D03*
Y470527D02*
D03*
Y495927D02*
D03*
X476730D02*
D03*
Y470527D02*
D03*
Y521327D02*
D03*
Y546727D02*
D03*
X502130D02*
D03*
Y521327D02*
D03*
X646730Y445127D02*
D03*
X672130D02*
D03*
Y470527D02*
D03*
Y495927D02*
D03*
X646730D02*
D03*
Y470527D02*
D03*
Y521327D02*
D03*
Y546727D02*
D03*
X672130D02*
D03*
Y521327D02*
D03*
X816730Y445127D02*
D03*
X842130D02*
D03*
Y470527D02*
D03*
Y495927D02*
D03*
Y521327D02*
D03*
Y546727D02*
D03*
X816730D02*
D03*
Y521327D02*
D03*
Y495927D02*
D03*
Y470527D02*
D03*
X986730Y445127D02*
D03*
X1012130D02*
D03*
Y470527D02*
D03*
Y495927D02*
D03*
X986730D02*
D03*
Y470527D02*
D03*
Y521327D02*
D03*
Y546727D02*
D03*
X1012130D02*
D03*
Y521327D02*
D03*
X1156730Y445127D02*
D03*
X1182130D02*
D03*
Y470527D02*
D03*
Y495927D02*
D03*
X1156730D02*
D03*
Y470527D02*
D03*
Y521327D02*
D03*
Y546727D02*
D03*
X1182130D02*
D03*
Y521327D02*
D03*
X1326730Y445127D02*
D03*
X1352130D02*
D03*
Y470527D02*
D03*
Y495927D02*
D03*
Y521327D02*
D03*
Y546727D02*
D03*
X1326730D02*
D03*
Y521327D02*
D03*
Y495927D02*
D03*
Y470527D02*
D03*
X1496730Y445127D02*
D03*
X1522130D02*
D03*
Y470527D02*
D03*
Y495927D02*
D03*
X1496730D02*
D03*
Y470527D02*
D03*
Y521327D02*
D03*
Y546727D02*
D03*
X1522130D02*
D03*
Y521327D02*
D03*
X1666730Y445127D02*
D03*
X1692130D02*
D03*
Y470527D02*
D03*
Y495927D02*
D03*
X1666730D02*
D03*
Y470527D02*
D03*
Y521327D02*
D03*
Y546727D02*
D03*
X1692130D02*
D03*
Y521327D02*
D03*
X1836730Y445127D02*
D03*
X1862130D02*
D03*
Y470527D02*
D03*
Y495927D02*
D03*
Y521327D02*
D03*
Y546727D02*
D03*
X1836730D02*
D03*
Y521327D02*
D03*
Y495927D02*
D03*
Y470527D02*
D03*
X2006730Y445127D02*
D03*
X2032130D02*
D03*
Y470527D02*
D03*
Y495927D02*
D03*
X2006730D02*
D03*
Y470527D02*
D03*
Y521327D02*
D03*
Y546727D02*
D03*
X2032130D02*
D03*
Y521327D02*
D03*
X2176730Y445127D02*
D03*
X2202130D02*
D03*
Y470527D02*
D03*
Y495927D02*
D03*
Y521327D02*
D03*
Y546727D02*
D03*
X2176730D02*
D03*
Y521327D02*
D03*
Y495927D02*
D03*
Y470527D02*
D03*
X2346730Y445127D02*
D03*
X2372130D02*
D03*
Y470527D02*
D03*
Y495927D02*
D03*
Y521327D02*
D03*
Y546727D02*
D03*
X2346730D02*
D03*
Y521327D02*
D03*
Y495927D02*
D03*
Y470527D02*
D03*
X2516730Y445127D02*
D03*
X2542130D02*
D03*
Y470527D02*
D03*
Y495927D02*
D03*
X2516730D02*
D03*
Y470527D02*
D03*
Y521327D02*
D03*
Y546727D02*
D03*
X2542130D02*
D03*
Y521327D02*
D03*
X2686730Y445127D02*
D03*
X2712130D02*
D03*
Y470527D02*
D03*
Y495927D02*
D03*
Y521327D02*
D03*
Y546727D02*
D03*
X2686730D02*
D03*
Y521327D02*
D03*
Y495927D02*
D03*
Y470527D02*
D03*
X2856730Y445127D02*
D03*
X2882130D02*
D03*
Y470527D02*
D03*
Y495927D02*
D03*
Y521327D02*
D03*
Y546727D02*
D03*
X2856730D02*
D03*
Y521327D02*
D03*
Y495927D02*
D03*
Y470527D02*
D03*
X2882130Y1165127D02*
D03*
Y1190527D02*
D03*
Y1215927D02*
D03*
Y1241327D02*
D03*
Y1266727D02*
D03*
X2856730D02*
D03*
Y1241327D02*
D03*
Y1215927D02*
D03*
Y1190527D02*
D03*
Y1165127D02*
D03*
X2712130Y1241327D02*
D03*
Y1266727D02*
D03*
Y1215927D02*
D03*
Y1190527D02*
D03*
Y1165127D02*
D03*
X2686730Y1241327D02*
D03*
Y1266727D02*
D03*
Y1215927D02*
D03*
Y1190527D02*
D03*
Y1165127D02*
D03*
X2542130Y1241327D02*
D03*
Y1266727D02*
D03*
X2516730D02*
D03*
Y1241327D02*
D03*
Y1215927D02*
D03*
X2542130D02*
D03*
Y1190527D02*
D03*
X2516730D02*
D03*
Y1165127D02*
D03*
X2542130D02*
D03*
X2372130Y1241327D02*
D03*
Y1266727D02*
D03*
Y1215927D02*
D03*
Y1190527D02*
D03*
Y1165127D02*
D03*
X2346730Y1241327D02*
D03*
Y1266727D02*
D03*
Y1215927D02*
D03*
Y1190527D02*
D03*
Y1165127D02*
D03*
X2202130Y1241327D02*
D03*
Y1266727D02*
D03*
Y1215927D02*
D03*
Y1190527D02*
D03*
Y1165127D02*
D03*
X2176730Y1241327D02*
D03*
Y1266727D02*
D03*
Y1215927D02*
D03*
Y1190527D02*
D03*
Y1165127D02*
D03*
X2032130Y1241327D02*
D03*
Y1266727D02*
D03*
X2006730D02*
D03*
Y1241327D02*
D03*
Y1215927D02*
D03*
X2032130D02*
D03*
Y1190527D02*
D03*
X2006730D02*
D03*
Y1165127D02*
D03*
X2032130D02*
D03*
X1862130Y1241327D02*
D03*
Y1266727D02*
D03*
Y1215927D02*
D03*
Y1190527D02*
D03*
Y1165127D02*
D03*
X1836730Y1241327D02*
D03*
Y1266727D02*
D03*
Y1215927D02*
D03*
Y1190527D02*
D03*
Y1165127D02*
D03*
X1692130Y1241327D02*
D03*
Y1266727D02*
D03*
X1666730D02*
D03*
Y1241327D02*
D03*
Y1215927D02*
D03*
X1692130D02*
D03*
Y1190527D02*
D03*
X1666730D02*
D03*
Y1165127D02*
D03*
X1692130D02*
D03*
X1522130Y1241327D02*
D03*
Y1266727D02*
D03*
X1496730D02*
D03*
Y1241327D02*
D03*
Y1215927D02*
D03*
X1522130D02*
D03*
Y1190527D02*
D03*
X1496730D02*
D03*
Y1165127D02*
D03*
X1522130D02*
D03*
X1352130Y1241327D02*
D03*
Y1266727D02*
D03*
Y1215927D02*
D03*
Y1190527D02*
D03*
Y1165127D02*
D03*
X1326730Y1241327D02*
D03*
Y1266727D02*
D03*
Y1215927D02*
D03*
Y1190527D02*
D03*
Y1165127D02*
D03*
X1182130Y1241327D02*
D03*
Y1266727D02*
D03*
X1156730D02*
D03*
Y1241327D02*
D03*
Y1215927D02*
D03*
X1182130D02*
D03*
Y1190527D02*
D03*
X1156730D02*
D03*
Y1165127D02*
D03*
X1182130D02*
D03*
X1012130Y1241327D02*
D03*
Y1266727D02*
D03*
X986730D02*
D03*
Y1241327D02*
D03*
Y1215927D02*
D03*
X1012130D02*
D03*
Y1190527D02*
D03*
X986730D02*
D03*
Y1165127D02*
D03*
X1012130D02*
D03*
X842130Y1241327D02*
D03*
Y1266727D02*
D03*
Y1215927D02*
D03*
Y1190527D02*
D03*
Y1165127D02*
D03*
X816730Y1241327D02*
D03*
Y1266727D02*
D03*
Y1215927D02*
D03*
Y1190527D02*
D03*
Y1165127D02*
D03*
X672130Y1241327D02*
D03*
Y1266727D02*
D03*
X646730D02*
D03*
Y1241327D02*
D03*
Y1215927D02*
D03*
X672130D02*
D03*
Y1190527D02*
D03*
X646730D02*
D03*
Y1165127D02*
D03*
X672130D02*
D03*
X502130Y1241327D02*
D03*
Y1266727D02*
D03*
X476730D02*
D03*
Y1241327D02*
D03*
Y1215927D02*
D03*
X502130D02*
D03*
Y1190527D02*
D03*
X476730D02*
D03*
Y1165127D02*
D03*
X502130D02*
D03*
D53*
X1284010Y1725226D02*
D03*
X1309410D02*
D03*
Y1750626D02*
D03*
X1284010D02*
D03*
X1258610D02*
D03*
X1233210D02*
D03*
Y1725226D02*
D03*
X1258610D02*
D03*
X1207810Y1750626D02*
D03*
Y1725226D02*
D03*
X1284010Y1895226D02*
D03*
Y1920626D02*
D03*
X1309410D02*
D03*
Y1895226D02*
D03*
X1258610D02*
D03*
X1233210D02*
D03*
Y1920626D02*
D03*
X1258610D02*
D03*
X1207810D02*
D03*
Y1895226D02*
D03*
X1284010Y2065226D02*
D03*
Y2090626D02*
D03*
X1309410D02*
D03*
Y2065226D02*
D03*
X1258610D02*
D03*
X1233210D02*
D03*
Y2090626D02*
D03*
X1258610D02*
D03*
X1207810D02*
D03*
Y2065226D02*
D03*
X1927810Y1725226D02*
D03*
X1953210D02*
D03*
X1978610D02*
D03*
X2004010D02*
D03*
X2029410D02*
D03*
Y1750626D02*
D03*
X2004010D02*
D03*
X1978610D02*
D03*
X1953210D02*
D03*
X1927810D02*
D03*
X2004010Y1895226D02*
D03*
Y1920626D02*
D03*
X2029410D02*
D03*
Y1895226D02*
D03*
X1978610D02*
D03*
X1953210D02*
D03*
X1927810D02*
D03*
Y1920626D02*
D03*
X1953210D02*
D03*
X1978610D02*
D03*
X2004010Y2065226D02*
D03*
Y2090626D02*
D03*
X2029410D02*
D03*
Y2065226D02*
D03*
X1978610D02*
D03*
X1953210D02*
D03*
X1927810D02*
D03*
Y2090626D02*
D03*
X1953210D02*
D03*
X1978610D02*
D03*
X2647810Y1725226D02*
D03*
X2673210D02*
D03*
X2698610D02*
D03*
X2724010D02*
D03*
X2749410D02*
D03*
Y1750626D02*
D03*
X2724010D02*
D03*
X2698610D02*
D03*
X2673210D02*
D03*
X2647810D02*
D03*
X2698610Y1895226D02*
D03*
Y1920626D02*
D03*
X2724010D02*
D03*
Y1895226D02*
D03*
X2749410D02*
D03*
Y1920626D02*
D03*
X2673210D02*
D03*
X2647810D02*
D03*
Y1895226D02*
D03*
X2673210D02*
D03*
X2698610Y2065226D02*
D03*
Y2090626D02*
D03*
X2724010D02*
D03*
Y2065226D02*
D03*
X2749410D02*
D03*
Y2090626D02*
D03*
X2673210D02*
D03*
X2647810D02*
D03*
Y2065226D02*
D03*
X2673210D02*
D03*
M02*
