G04 Layer_Physical_Order=1*
G04 Layer_Color=255*
%FSLAX44Y44*%
%MOMM*%
G71*
G01*
G75*
%ADD10C,0.5000*%
%ADD11R,1.2000X1.4000*%
%ADD12R,2.5000X0.9000*%
%ADD13R,1.1500X28.8000*%
%ADD14R,1.2000X12.5500*%
%ADD15R,4.8000X0.9000*%
%ADD16R,2.0000X1.8000*%
%ADD17R,4.2000X0.9000*%
%ADD18R,1.1000X18.3500*%
%ADD19R,3.4000X1.0000*%
%ADD20R,0.9000X6.9000*%
%ADD21R,1.0000X0.8000*%
%ADD22R,0.9000X11.1000*%
%ADD23R,1.3000X0.9000*%
%ADD24R,1.6000X0.8000*%
%ADD25R,1.0500X15.9000*%
%ADD26R,0.4000X4.6000*%
%ADD27R,1.0000X14.5500*%
%ADD28R,2.4500X1.3500*%
%ADD29R,14.5000X17.7500*%
%ADD30R,14.4500X16.6500*%
%ADD31R,1.4000X1.2000*%
%ADD32R,0.9000X2.5000*%
%ADD33R,28.8000X1.1500*%
%ADD34R,12.5500X1.2000*%
%ADD35R,0.9000X4.8000*%
%ADD36R,1.8000X2.0000*%
%ADD37R,0.9000X4.2000*%
%ADD38R,18.3500X1.1000*%
%ADD39R,1.0000X3.4000*%
%ADD40R,6.9000X0.9000*%
%ADD41R,0.8000X1.0000*%
%ADD42R,11.1000X0.9000*%
%ADD43R,0.9000X1.3000*%
%ADD44R,0.8000X1.6000*%
%ADD45R,15.9000X1.0500*%
%ADD46R,4.6000X0.4000*%
%ADD47R,14.5500X1.0000*%
%ADD48R,1.3500X2.4500*%
%ADD49R,17.7500X14.5000*%
%ADD50R,16.6500X14.4500*%
%ADD51R,0.9000X1.3000*%
%ADD52R,2.0000X2.0000*%
%ADD53R,2.0000X2.0000*%
D10*
X547060Y1887438D02*
G03*
X547060Y1887438I0J-2121D01*
G01*
Y2057437D02*
G03*
X547060Y2057437I0J-2121D01*
G01*
Y2227437D02*
G03*
X547060Y2227437I0J-2121D01*
G01*
Y2397437D02*
G03*
X547060Y2397437I0J-2121D01*
G01*
X1309069Y2059885D02*
G03*
X1309069Y2059885I0J-2121D01*
G01*
Y2229885D02*
G03*
X1309069Y2229885I0J-2121D01*
G01*
Y2399885D02*
G03*
X1309069Y2399885I0J-2121D01*
G01*
X2072440Y1718255D02*
G03*
X2072440Y1718255I0J-2121D01*
G01*
Y1548255D02*
G03*
X2072440Y1548255I0J-2121D01*
G01*
Y1888255D02*
G03*
X2072440Y1888255I0J-2121D01*
G01*
Y2058255D02*
G03*
X2072440Y2058255I0J-2121D01*
G01*
Y2228255D02*
G03*
X2072440Y2228255I0J-2121D01*
G01*
Y2398255D02*
G03*
X2072440Y2398255I0J-2121D01*
G01*
X2566435Y2094431D02*
G03*
X2566435Y2094431I-2121J0D01*
G01*
X2736435D02*
G03*
X2736435Y2094431I-2121J0D01*
G01*
D11*
X2487314Y1997930D02*
D03*
X2505314D02*
D03*
X2562074Y1998931D02*
D03*
X2562574Y1972930D02*
D03*
X2593054D02*
D03*
X2592554Y1998931D02*
D03*
X2657314Y1997930D02*
D03*
X2675314D02*
D03*
X2732074Y1998931D02*
D03*
X2732574Y1972930D02*
D03*
X2763054D02*
D03*
X2762554Y1998931D02*
D03*
X2762054Y2023430D02*
D03*
X2761554Y2049931D02*
D03*
Y2074931D02*
D03*
X2731074D02*
D03*
Y2049931D02*
D03*
X2731574Y2023430D02*
D03*
X2675314Y2074431D02*
D03*
X2657314D02*
D03*
X2591554Y2074931D02*
D03*
Y2049931D02*
D03*
X2592054Y2023430D02*
D03*
X2561074Y2074931D02*
D03*
Y2049931D02*
D03*
X2561574Y2023430D02*
D03*
X2505314Y2074431D02*
D03*
X2487314D02*
D03*
X2523314Y2216431D02*
D03*
X2541314D02*
D03*
X2693314D02*
D03*
X2711314D02*
D03*
D12*
X2501184Y2106380D02*
D03*
Y2119081D02*
D03*
X2564444D02*
D03*
Y2106380D02*
D03*
Y2131781D02*
D03*
Y2144480D02*
D03*
Y2157180D02*
D03*
Y2169881D02*
D03*
Y2182581D02*
D03*
Y2195280D02*
D03*
X2501184D02*
D03*
Y2182581D02*
D03*
Y2169881D02*
D03*
Y2157180D02*
D03*
Y2144480D02*
D03*
Y2131781D02*
D03*
X2671184Y2119081D02*
D03*
Y2106380D02*
D03*
X2734444D02*
D03*
Y2119081D02*
D03*
Y2131781D02*
D03*
Y2144480D02*
D03*
Y2157180D02*
D03*
Y2169881D02*
D03*
Y2182581D02*
D03*
Y2195280D02*
D03*
X2671184D02*
D03*
Y2182581D02*
D03*
Y2169881D02*
D03*
Y2157180D02*
D03*
Y2144480D02*
D03*
Y2131781D02*
D03*
D13*
X2618564Y2030430D02*
D03*
X2788564D02*
D03*
D14*
X2618314Y2240681D02*
D03*
X2788314D02*
D03*
D15*
X2589314Y2182431D02*
D03*
X2759314D02*
D03*
D16*
X2519314Y2214431D02*
D03*
X2545314D02*
D03*
X2689314D02*
D03*
X2715314D02*
D03*
D17*
X2593314Y2169931D02*
D03*
X2763314D02*
D03*
D18*
X2593814Y2057681D02*
D03*
X2763814D02*
D03*
D19*
X2574314Y2144431D02*
D03*
X2744314D02*
D03*
D20*
X2524814Y2187930D02*
D03*
X2694814D02*
D03*
D21*
X2515314Y2157431D02*
D03*
X2685314D02*
D03*
D22*
X2539814Y2156931D02*
D03*
X2709814D02*
D03*
D23*
X2546814Y2156931D02*
D03*
X2716814D02*
D03*
D24*
X2546314Y2195430D02*
D03*
X2716314D02*
D03*
D25*
X2526064Y2067930D02*
D03*
X2696064D02*
D03*
D26*
X2533314Y2124431D02*
D03*
X2703314D02*
D03*
D27*
X2485314Y2038181D02*
D03*
X2655314D02*
D03*
D28*
X2502564Y1972180D02*
D03*
X2672564D02*
D03*
D29*
X2552314Y2362180D02*
D03*
X2722314D02*
D03*
D30*
X2552564Y1830681D02*
D03*
X2722564D02*
D03*
D31*
X643560Y1808316D02*
D03*
Y1826316D02*
D03*
X642560Y1883076D02*
D03*
X618060Y1882576D02*
D03*
X668560Y1883576D02*
D03*
Y1914056D02*
D03*
X642560Y1913556D02*
D03*
X618060Y1913056D02*
D03*
X643560Y1978316D02*
D03*
Y1996316D02*
D03*
X642560Y2053076D02*
D03*
X618060Y2052576D02*
D03*
X668560Y2053576D02*
D03*
Y2084056D02*
D03*
X642560Y2083556D02*
D03*
X618060Y2083056D02*
D03*
X643560Y2148316D02*
D03*
Y2166316D02*
D03*
X642560Y2223076D02*
D03*
X618060Y2222576D02*
D03*
X668560Y2223576D02*
D03*
Y2254056D02*
D03*
X642560Y2253556D02*
D03*
X618060Y2253056D02*
D03*
X643560Y2318316D02*
D03*
Y2336316D02*
D03*
X642560Y2393076D02*
D03*
X618060Y2392576D02*
D03*
X668560Y2393576D02*
D03*
Y2424056D02*
D03*
X642560Y2423556D02*
D03*
X618060Y2423056D02*
D03*
X591560Y2422556D02*
D03*
X566560D02*
D03*
Y2392076D02*
D03*
X591560D02*
D03*
X567060Y2336316D02*
D03*
Y2318316D02*
D03*
X566560Y2252556D02*
D03*
X591560D02*
D03*
Y2222076D02*
D03*
X566560D02*
D03*
X567060Y2166316D02*
D03*
Y2148316D02*
D03*
X566560Y2082556D02*
D03*
X591560D02*
D03*
Y2052076D02*
D03*
X566560D02*
D03*
X567060Y1996316D02*
D03*
Y1978316D02*
D03*
X566560Y1912556D02*
D03*
X591560D02*
D03*
Y1882076D02*
D03*
X566560D02*
D03*
X567060Y1826316D02*
D03*
Y1808316D02*
D03*
X425060Y1862316D02*
D03*
Y1844316D02*
D03*
Y2014316D02*
D03*
Y2032316D02*
D03*
Y2184316D02*
D03*
Y2202316D02*
D03*
Y2354316D02*
D03*
Y2372316D02*
D03*
X1187069Y2034764D02*
D03*
Y2016764D02*
D03*
X1329069Y1998764D02*
D03*
Y1980764D02*
D03*
X1353569Y2054524D02*
D03*
X1380069Y2055024D02*
D03*
X1405569Y1998764D02*
D03*
Y1980764D02*
D03*
X1404569Y2055524D02*
D03*
X1430569Y2056024D02*
D03*
Y2086504D02*
D03*
X1404569Y2086004D02*
D03*
X1405569Y2150764D02*
D03*
Y2168764D02*
D03*
X1404569Y2225524D02*
D03*
X1430569Y2226024D02*
D03*
Y2256504D02*
D03*
X1404569Y2256004D02*
D03*
X1405569Y2320764D02*
D03*
Y2338764D02*
D03*
X1404569Y2395524D02*
D03*
X1430569Y2396024D02*
D03*
Y2426504D02*
D03*
X1404569Y2426004D02*
D03*
X1380069Y2425504D02*
D03*
X1353569Y2425004D02*
D03*
Y2394524D02*
D03*
X1380069Y2395024D02*
D03*
X1328569Y2425004D02*
D03*
Y2394524D02*
D03*
X1329069Y2338764D02*
D03*
Y2320764D02*
D03*
X1328569Y2255004D02*
D03*
Y2224524D02*
D03*
X1329069Y2168764D02*
D03*
Y2150764D02*
D03*
X1328569Y2085004D02*
D03*
Y2054524D02*
D03*
X1353569Y2085004D02*
D03*
X1380069Y2085504D02*
D03*
Y2225024D02*
D03*
X1353569Y2224524D02*
D03*
Y2255004D02*
D03*
X1380069Y2255504D02*
D03*
X1187069Y2356764D02*
D03*
Y2374764D02*
D03*
Y2204764D02*
D03*
Y2186764D02*
D03*
X1950439Y1505134D02*
D03*
Y1523134D02*
D03*
Y1675134D02*
D03*
Y1693134D02*
D03*
Y1845134D02*
D03*
Y1863134D02*
D03*
X2091940Y1712894D02*
D03*
X2116940D02*
D03*
X2092440Y1657134D02*
D03*
Y1639134D02*
D03*
X2091940Y1573374D02*
D03*
X2116940D02*
D03*
Y1542894D02*
D03*
X2091940D02*
D03*
X2092440Y1487134D02*
D03*
Y1469134D02*
D03*
X2168940D02*
D03*
Y1487134D02*
D03*
X2193940Y1544394D02*
D03*
Y1574874D02*
D03*
X2168940Y1639134D02*
D03*
Y1657134D02*
D03*
X2167939Y1574374D02*
D03*
X2143439Y1573874D02*
D03*
Y1543394D02*
D03*
X2167939Y1543894D02*
D03*
X2193940Y1714394D02*
D03*
Y1744874D02*
D03*
X2168940Y1809134D02*
D03*
Y1827134D02*
D03*
X2167939Y1744374D02*
D03*
X2143439Y1743874D02*
D03*
Y1713394D02*
D03*
X2167939Y1713894D02*
D03*
X2116940Y1743374D02*
D03*
X2091940D02*
D03*
X2092440Y1809134D02*
D03*
Y1827134D02*
D03*
X2143439Y1883394D02*
D03*
X2167939Y1883894D02*
D03*
X2193940Y1884394D02*
D03*
Y1914874D02*
D03*
X2168940Y1979134D02*
D03*
Y1997134D02*
D03*
X2167939Y1914374D02*
D03*
X2143439Y1913874D02*
D03*
X2092440Y1979134D02*
D03*
Y1997134D02*
D03*
X2091940Y1913374D02*
D03*
X2116940D02*
D03*
Y1882894D02*
D03*
X2091940D02*
D03*
X2193940Y2054394D02*
D03*
Y2084874D02*
D03*
X2168940Y2149134D02*
D03*
Y2167134D02*
D03*
X2167939Y2084374D02*
D03*
X2143439Y2083874D02*
D03*
Y2053394D02*
D03*
X2167939Y2053894D02*
D03*
X2116940Y2083374D02*
D03*
X2091940D02*
D03*
Y2052894D02*
D03*
X2116940D02*
D03*
X2092440Y2149134D02*
D03*
Y2167134D02*
D03*
X2143439Y2223394D02*
D03*
X2167939Y2223894D02*
D03*
X2193940Y2224394D02*
D03*
Y2254874D02*
D03*
X2168940Y2319134D02*
D03*
Y2337134D02*
D03*
X2167939Y2254374D02*
D03*
X2143439Y2253874D02*
D03*
X2092440Y2319134D02*
D03*
Y2337134D02*
D03*
X2091940Y2253374D02*
D03*
X2116940D02*
D03*
Y2222894D02*
D03*
X2091940D02*
D03*
X2193940Y2394394D02*
D03*
Y2424874D02*
D03*
X2167939Y2424374D02*
D03*
X2143439Y2423874D02*
D03*
Y2393394D02*
D03*
X2167939Y2393894D02*
D03*
X2116940Y2423374D02*
D03*
X2091940D02*
D03*
Y2392894D02*
D03*
X2116940D02*
D03*
X1950439Y2373134D02*
D03*
Y2355134D02*
D03*
Y2203134D02*
D03*
Y2185134D02*
D03*
Y2033134D02*
D03*
Y2015134D02*
D03*
D32*
X509710Y1822186D02*
D03*
X522410D02*
D03*
X535110D02*
D03*
Y1885446D02*
D03*
X522410D02*
D03*
X509710D02*
D03*
X497010D02*
D03*
X484310D02*
D03*
X471610D02*
D03*
X458910D02*
D03*
Y1822186D02*
D03*
X471610D02*
D03*
X484310D02*
D03*
X497010D02*
D03*
X446210Y1885446D02*
D03*
Y1822186D02*
D03*
X509710Y1992186D02*
D03*
X522410D02*
D03*
X535110D02*
D03*
Y2055446D02*
D03*
X522410D02*
D03*
X509710D02*
D03*
X497010D02*
D03*
X484310D02*
D03*
X471610D02*
D03*
X458910D02*
D03*
Y1992186D02*
D03*
X471610D02*
D03*
X484310D02*
D03*
X497010D02*
D03*
X446210Y2055446D02*
D03*
Y1992186D02*
D03*
X509710Y2162186D02*
D03*
X522410D02*
D03*
X535110D02*
D03*
Y2225446D02*
D03*
X522410D02*
D03*
X509710D02*
D03*
X497010D02*
D03*
X484310D02*
D03*
X471610D02*
D03*
X458910D02*
D03*
Y2162186D02*
D03*
X471610D02*
D03*
X484310D02*
D03*
X497010D02*
D03*
X446210Y2225446D02*
D03*
Y2162186D02*
D03*
X509710Y2332186D02*
D03*
X522410D02*
D03*
X535110D02*
D03*
Y2395446D02*
D03*
X522410D02*
D03*
X509710D02*
D03*
X497010D02*
D03*
X484310D02*
D03*
X471610D02*
D03*
X458910D02*
D03*
Y2332186D02*
D03*
X471610D02*
D03*
X484310D02*
D03*
X497010D02*
D03*
X446210Y2395446D02*
D03*
Y2332186D02*
D03*
X1208219Y1994634D02*
D03*
X1220919D02*
D03*
X1233619D02*
D03*
X1246319D02*
D03*
X1259019D02*
D03*
X1271719D02*
D03*
X1284419D02*
D03*
X1297119D02*
D03*
Y2057894D02*
D03*
X1284419D02*
D03*
X1271719D02*
D03*
X1259019D02*
D03*
X1246319D02*
D03*
X1233619D02*
D03*
X1220919D02*
D03*
X1208219D02*
D03*
X1297119Y2164634D02*
D03*
Y2227894D02*
D03*
X1284419D02*
D03*
X1271719D02*
D03*
X1259019D02*
D03*
X1246319D02*
D03*
X1233619D02*
D03*
Y2164634D02*
D03*
X1246319D02*
D03*
X1259019D02*
D03*
X1271719D02*
D03*
X1284419D02*
D03*
X1220919Y2227894D02*
D03*
X1208219D02*
D03*
Y2164634D02*
D03*
X1220919D02*
D03*
X1297119Y2334634D02*
D03*
Y2397894D02*
D03*
X1284419D02*
D03*
X1271719D02*
D03*
X1259019D02*
D03*
X1246319D02*
D03*
X1233619D02*
D03*
Y2334634D02*
D03*
X1246319D02*
D03*
X1259019D02*
D03*
X1271719D02*
D03*
X1284419D02*
D03*
X1220919Y2397894D02*
D03*
X1208219D02*
D03*
Y2334634D02*
D03*
X1220919D02*
D03*
X1971590Y1546264D02*
D03*
X1984290D02*
D03*
X1996989D02*
D03*
X2009689D02*
D03*
Y1483004D02*
D03*
X1996989D02*
D03*
X1984290D02*
D03*
X1971590D02*
D03*
X2022390D02*
D03*
X2035090D02*
D03*
X2047789D02*
D03*
X2060490D02*
D03*
Y1546264D02*
D03*
X2047789D02*
D03*
X2035090D02*
D03*
X2022390D02*
D03*
Y1653004D02*
D03*
X2035090D02*
D03*
X2047789D02*
D03*
X2060490D02*
D03*
Y1716264D02*
D03*
X2047789D02*
D03*
X2035090D02*
D03*
X2022390D02*
D03*
X2009689D02*
D03*
X1996989D02*
D03*
X1984290D02*
D03*
X1971590D02*
D03*
Y1653004D02*
D03*
X1984290D02*
D03*
X1996989D02*
D03*
X2009689D02*
D03*
X2022390Y1823004D02*
D03*
X2035090D02*
D03*
X2047789D02*
D03*
X2060490D02*
D03*
Y1886264D02*
D03*
X2047789D02*
D03*
X2035090D02*
D03*
X2022390D02*
D03*
X2009689D02*
D03*
X1996989D02*
D03*
X1984290D02*
D03*
X1971590D02*
D03*
Y1823004D02*
D03*
X1984290D02*
D03*
X1996989D02*
D03*
X2009689D02*
D03*
X2022390Y1993004D02*
D03*
X2035090D02*
D03*
X2047789D02*
D03*
X2060490D02*
D03*
Y2056264D02*
D03*
X2047789D02*
D03*
X2035090D02*
D03*
X2022390D02*
D03*
X2009689D02*
D03*
X1996989D02*
D03*
X1984290D02*
D03*
X1971590D02*
D03*
Y1993004D02*
D03*
X1984290D02*
D03*
X1996989D02*
D03*
X2009689D02*
D03*
X2022390Y2163004D02*
D03*
X2035090D02*
D03*
X2047789D02*
D03*
X2060490D02*
D03*
Y2226264D02*
D03*
X2047789D02*
D03*
X2035090D02*
D03*
X2022390D02*
D03*
X2009689D02*
D03*
X1996989D02*
D03*
X1984290D02*
D03*
X1971590D02*
D03*
Y2163004D02*
D03*
X1984290D02*
D03*
X1996989D02*
D03*
X2009689D02*
D03*
X2022390Y2333004D02*
D03*
X2035090D02*
D03*
X2047789D02*
D03*
X2060490D02*
D03*
Y2396264D02*
D03*
X2047789D02*
D03*
X2035090D02*
D03*
X2022390D02*
D03*
X2009689D02*
D03*
X1996989D02*
D03*
X1984290D02*
D03*
X1971590D02*
D03*
Y2333004D02*
D03*
X1984290D02*
D03*
X1996989D02*
D03*
X2009689D02*
D03*
D33*
X611060Y1939566D02*
D03*
Y2109566D02*
D03*
Y2279566D02*
D03*
Y2449566D02*
D03*
X1373069Y2112014D02*
D03*
Y2282014D02*
D03*
Y2452014D02*
D03*
X2136440Y1770384D02*
D03*
Y1600384D02*
D03*
Y1940384D02*
D03*
Y2110384D02*
D03*
Y2280384D02*
D03*
Y2450384D02*
D03*
D34*
X1926190Y1600134D02*
D03*
Y1770134D02*
D03*
Y1940134D02*
D03*
Y2110134D02*
D03*
Y2280134D02*
D03*
Y2450134D02*
D03*
X1162819Y2451764D02*
D03*
Y2281764D02*
D03*
Y2111764D02*
D03*
X400810Y2449316D02*
D03*
Y2279316D02*
D03*
Y2109316D02*
D03*
Y1939316D02*
D03*
D35*
X459060Y1910316D02*
D03*
Y2080316D02*
D03*
Y2250316D02*
D03*
Y2420316D02*
D03*
X1221069Y2082764D02*
D03*
Y2252764D02*
D03*
Y2422764D02*
D03*
X1984440Y1741134D02*
D03*
Y1571134D02*
D03*
Y1911134D02*
D03*
Y2081134D02*
D03*
Y2251134D02*
D03*
Y2421134D02*
D03*
D36*
X427060Y1840316D02*
D03*
Y1866316D02*
D03*
Y2010316D02*
D03*
Y2036316D02*
D03*
Y2180316D02*
D03*
Y2206316D02*
D03*
Y2350316D02*
D03*
Y2376316D02*
D03*
X1189069Y2012764D02*
D03*
Y2038764D02*
D03*
Y2182764D02*
D03*
Y2208764D02*
D03*
Y2352764D02*
D03*
Y2378764D02*
D03*
X1952440Y1671134D02*
D03*
Y1697134D02*
D03*
Y1841134D02*
D03*
Y1867134D02*
D03*
Y2011134D02*
D03*
Y2037134D02*
D03*
Y2181134D02*
D03*
Y2207134D02*
D03*
Y2351134D02*
D03*
Y2377134D02*
D03*
Y1527134D02*
D03*
Y1501134D02*
D03*
D37*
X471560Y1914316D02*
D03*
Y2084316D02*
D03*
Y2254316D02*
D03*
Y2424316D02*
D03*
X1233569Y2086764D02*
D03*
Y2256764D02*
D03*
Y2426764D02*
D03*
X1996940Y1745134D02*
D03*
Y1575134D02*
D03*
Y1915134D02*
D03*
Y2085134D02*
D03*
Y2255134D02*
D03*
Y2425134D02*
D03*
D38*
X583810Y1914816D02*
D03*
Y2084816D02*
D03*
Y2254816D02*
D03*
Y2424816D02*
D03*
X1345819Y2087264D02*
D03*
Y2257264D02*
D03*
Y2427264D02*
D03*
X2109189Y1745634D02*
D03*
Y1575634D02*
D03*
Y1915634D02*
D03*
Y2085634D02*
D03*
Y2255634D02*
D03*
Y2425634D02*
D03*
D39*
X497060Y1895316D02*
D03*
Y2065316D02*
D03*
Y2235316D02*
D03*
Y2405316D02*
D03*
X1259069Y2067764D02*
D03*
Y2237764D02*
D03*
Y2407764D02*
D03*
X2022440Y1726134D02*
D03*
Y1556134D02*
D03*
Y1896134D02*
D03*
Y2066134D02*
D03*
Y2236134D02*
D03*
Y2406134D02*
D03*
D40*
X453560Y1845816D02*
D03*
Y2015816D02*
D03*
Y2185816D02*
D03*
Y2355816D02*
D03*
X1215569Y2018264D02*
D03*
Y2188264D02*
D03*
Y2358264D02*
D03*
X1978940Y1676634D02*
D03*
Y1506634D02*
D03*
Y1846634D02*
D03*
Y2016634D02*
D03*
Y2186634D02*
D03*
Y2356634D02*
D03*
D41*
X484060Y1836316D02*
D03*
Y2006316D02*
D03*
Y2176316D02*
D03*
Y2346316D02*
D03*
X1246069Y2008764D02*
D03*
Y2178764D02*
D03*
Y2348764D02*
D03*
X2009440Y1667134D02*
D03*
Y1497134D02*
D03*
Y1837134D02*
D03*
Y2007134D02*
D03*
Y2177134D02*
D03*
Y2347134D02*
D03*
D42*
X484560Y1860816D02*
D03*
Y2030816D02*
D03*
Y2200816D02*
D03*
Y2370816D02*
D03*
X1246569Y2033264D02*
D03*
Y2203264D02*
D03*
Y2373264D02*
D03*
X2009940Y1691634D02*
D03*
Y1521634D02*
D03*
Y1861634D02*
D03*
Y2031634D02*
D03*
Y2201634D02*
D03*
Y2371634D02*
D03*
D43*
X2009940Y1528634D02*
D03*
Y1698634D02*
D03*
Y1868634D02*
D03*
Y2038634D02*
D03*
Y2208634D02*
D03*
Y2378634D02*
D03*
D44*
X446060Y1867316D02*
D03*
Y2037316D02*
D03*
Y2207316D02*
D03*
Y2377316D02*
D03*
X1208069Y2039764D02*
D03*
Y2209764D02*
D03*
Y2379764D02*
D03*
X1971440Y1698134D02*
D03*
Y1528134D02*
D03*
Y1868134D02*
D03*
Y2038134D02*
D03*
Y2208134D02*
D03*
Y2378134D02*
D03*
D45*
X573560Y1847066D02*
D03*
Y2017066D02*
D03*
Y2187066D02*
D03*
Y2357066D02*
D03*
X1335569Y2019514D02*
D03*
Y2189514D02*
D03*
Y2359514D02*
D03*
X2098940Y1677884D02*
D03*
Y1847884D02*
D03*
Y2017884D02*
D03*
Y2187884D02*
D03*
Y2357884D02*
D03*
Y1507884D02*
D03*
D46*
X517060Y1854316D02*
D03*
Y2024316D02*
D03*
Y2194316D02*
D03*
Y2364316D02*
D03*
X1279069Y2026764D02*
D03*
Y2196764D02*
D03*
Y2366764D02*
D03*
X2042440Y1685134D02*
D03*
Y1515134D02*
D03*
Y1855134D02*
D03*
Y2025134D02*
D03*
Y2195134D02*
D03*
Y2365134D02*
D03*
D47*
X603310Y1806316D02*
D03*
Y1976316D02*
D03*
Y2146316D02*
D03*
Y2316316D02*
D03*
X1365319Y1978764D02*
D03*
Y2148764D02*
D03*
Y2318764D02*
D03*
X2128690Y1637134D02*
D03*
Y1467134D02*
D03*
Y1807134D02*
D03*
Y1977134D02*
D03*
Y2147134D02*
D03*
Y2317134D02*
D03*
D48*
X669310Y1823566D02*
D03*
Y1993566D02*
D03*
Y2163566D02*
D03*
Y2333566D02*
D03*
X1431319Y1996014D02*
D03*
Y2166014D02*
D03*
Y2336014D02*
D03*
X2194689Y1654384D02*
D03*
Y1484384D02*
D03*
Y1824384D02*
D03*
Y1994384D02*
D03*
Y2164384D02*
D03*
Y2334384D02*
D03*
D49*
X1804689Y1534134D02*
D03*
Y1704134D02*
D03*
Y1874134D02*
D03*
Y2044134D02*
D03*
Y2214134D02*
D03*
Y2384134D02*
D03*
X1041319Y2385764D02*
D03*
Y2215764D02*
D03*
Y2045764D02*
D03*
X279310Y2383316D02*
D03*
Y2213316D02*
D03*
Y2043316D02*
D03*
Y1873316D02*
D03*
D50*
X810810Y1873566D02*
D03*
Y2043566D02*
D03*
Y2213566D02*
D03*
Y2383566D02*
D03*
X1572819Y2046014D02*
D03*
Y2216014D02*
D03*
Y2386014D02*
D03*
X2336190Y1704384D02*
D03*
Y1534384D02*
D03*
Y1874384D02*
D03*
Y2044384D02*
D03*
Y2214384D02*
D03*
Y2384384D02*
D03*
D51*
X484560Y1867816D02*
D03*
Y2037816D02*
D03*
Y2207816D02*
D03*
Y2377816D02*
D03*
X1246569Y2040264D02*
D03*
Y2210264D02*
D03*
Y2380264D02*
D03*
D52*
X2521314Y1972930D02*
D03*
Y1998331D02*
D03*
X2546714D02*
D03*
Y1972930D02*
D03*
Y2023730D02*
D03*
Y2049131D02*
D03*
X2521314D02*
D03*
Y2023730D02*
D03*
Y2074530D02*
D03*
X2546714D02*
D03*
X2691314Y1998331D02*
D03*
X2716714D02*
D03*
Y1972930D02*
D03*
X2691314D02*
D03*
Y2023730D02*
D03*
Y2049131D02*
D03*
X2716714D02*
D03*
Y2023730D02*
D03*
Y2074530D02*
D03*
X2691314D02*
D03*
D53*
X617760Y1842316D02*
D03*
X643160D02*
D03*
X668560D02*
D03*
Y1867716D02*
D03*
X643160D02*
D03*
X617760D02*
D03*
X592360D02*
D03*
X566960D02*
D03*
Y1842316D02*
D03*
X592360D02*
D03*
X617760Y2012316D02*
D03*
X643160D02*
D03*
X668560D02*
D03*
Y2037716D02*
D03*
X643160D02*
D03*
X617760D02*
D03*
X592360D02*
D03*
X566960D02*
D03*
Y2012316D02*
D03*
X592360D02*
D03*
X617760Y2182316D02*
D03*
Y2207716D02*
D03*
X643160D02*
D03*
Y2182316D02*
D03*
X668560D02*
D03*
Y2207716D02*
D03*
X592360D02*
D03*
X566960D02*
D03*
Y2182316D02*
D03*
X592360D02*
D03*
X617760Y2352316D02*
D03*
Y2377716D02*
D03*
X643160D02*
D03*
Y2352316D02*
D03*
X668560D02*
D03*
Y2377716D02*
D03*
X592360D02*
D03*
X566960D02*
D03*
Y2352316D02*
D03*
X592360D02*
D03*
X1328969Y2040164D02*
D03*
Y2014764D02*
D03*
X1354369D02*
D03*
Y2040164D02*
D03*
X1379769D02*
D03*
Y2014764D02*
D03*
X1405169D02*
D03*
Y2040164D02*
D03*
X1430569D02*
D03*
Y2014764D02*
D03*
Y2184764D02*
D03*
X1405169D02*
D03*
Y2210164D02*
D03*
X1430569D02*
D03*
X1379769D02*
D03*
X1354369D02*
D03*
Y2184764D02*
D03*
X1379769D02*
D03*
X1328969D02*
D03*
Y2210164D02*
D03*
X1405169Y2354764D02*
D03*
Y2380164D02*
D03*
X1430569D02*
D03*
Y2354764D02*
D03*
X1379769D02*
D03*
X1354369D02*
D03*
Y2380164D02*
D03*
X1379769D02*
D03*
X1328969D02*
D03*
Y2354764D02*
D03*
X2092339Y1673134D02*
D03*
X2117740D02*
D03*
X2143139D02*
D03*
X2168539D02*
D03*
X2193940D02*
D03*
Y1698534D02*
D03*
X2168539D02*
D03*
X2143139D02*
D03*
X2117740D02*
D03*
X2092339D02*
D03*
X2193940Y1843134D02*
D03*
Y1868534D02*
D03*
X2168539D02*
D03*
X2143139D02*
D03*
Y1843134D02*
D03*
X2168539D02*
D03*
X2117740Y1868534D02*
D03*
X2092339D02*
D03*
Y1843134D02*
D03*
X2117740D02*
D03*
X2193940Y2013134D02*
D03*
Y2038534D02*
D03*
X2168539D02*
D03*
X2143139D02*
D03*
Y2013134D02*
D03*
X2168539D02*
D03*
X2117740Y2038534D02*
D03*
X2092339D02*
D03*
Y2013134D02*
D03*
X2117740D02*
D03*
X2193940Y2183134D02*
D03*
Y2208534D02*
D03*
X2168539D02*
D03*
X2143139D02*
D03*
Y2183134D02*
D03*
X2168539D02*
D03*
X2117740D02*
D03*
X2092339D02*
D03*
Y2208534D02*
D03*
X2117740D02*
D03*
X2193940Y2353134D02*
D03*
Y2378534D02*
D03*
X2168539D02*
D03*
X2143139D02*
D03*
Y2353134D02*
D03*
X2168539D02*
D03*
X2117740D02*
D03*
X2092339D02*
D03*
Y2378534D02*
D03*
X2117740D02*
D03*
Y1528534D02*
D03*
X2092339D02*
D03*
Y1503134D02*
D03*
X2117740D02*
D03*
X2143139D02*
D03*
X2168539D02*
D03*
X2193940D02*
D03*
Y1528534D02*
D03*
X2168539D02*
D03*
X2143139D02*
D03*
M02*
