G04 Layer_Color=16711935*
%FSLAX44Y44*%
%MOMM*%
G71*
G01*
G75*
%ADD54C,0.2540*%
D54*
X435728Y294469D02*
G03*
X579737Y294537I72002J4658D01*
G01*
X580230D01*
Y853127D01*
X579230D02*
G03*
X435221Y853195I-72007J-4590D01*
G01*
X435730D02*
Y294469D01*
X605728D02*
G03*
X749737Y294537I72002J4658D01*
G01*
X750230D01*
Y853127D01*
X749230D02*
G03*
X605221Y853195I-72007J-4590D01*
G01*
X605730D02*
Y294469D01*
X775728D02*
G03*
X919737Y294537I72002J4658D01*
G01*
X920230D01*
Y853127D01*
X919230D02*
G03*
X775221Y853195I-72007J-4590D01*
G01*
X775730D02*
Y294469D01*
X945728D02*
G03*
X1089737Y294537I72002J4658D01*
G01*
X1090230D01*
Y853127D01*
X1089230D02*
G03*
X945221Y853195I-72007J-4590D01*
G01*
X945730D02*
Y294469D01*
X1115728D02*
G03*
X1259737Y294537I72002J4658D01*
G01*
X1260230D01*
Y853127D01*
X1259230D02*
G03*
X1115221Y853195I-72007J-4590D01*
G01*
X1115730D02*
Y294469D01*
X1285728D02*
G03*
X1429737Y294537I72002J4658D01*
G01*
X1430230D01*
Y853127D01*
X1429230D02*
G03*
X1285221Y853195I-72007J-4590D01*
G01*
X1285730D02*
Y294469D01*
X1455728D02*
G03*
X1599737Y294537I72002J4658D01*
G01*
X1600230D01*
Y853127D01*
X1599230D02*
G03*
X1455221Y853195I-72007J-4590D01*
G01*
X1455730D02*
Y294469D01*
X1625728D02*
G03*
X1769737Y294537I72002J4658D01*
G01*
X1770230D01*
Y853127D01*
X1769230D02*
G03*
X1625221Y853195I-72007J-4590D01*
G01*
X1625730D02*
Y294469D01*
X1795728D02*
G03*
X1939737Y294537I72002J4658D01*
G01*
X1940230D01*
Y853127D01*
X1939230D02*
G03*
X1795221Y853195I-72007J-4590D01*
G01*
X1795730D02*
Y294469D01*
X1965728D02*
G03*
X2109737Y294537I72002J4658D01*
G01*
X2110230D01*
Y853127D01*
X2109230D02*
G03*
X1965221Y853195I-72007J-4590D01*
G01*
X1965730D02*
Y294469D01*
X2135728D02*
G03*
X2279737Y294537I72002J4658D01*
G01*
X2280230D01*
Y853127D01*
X2279230D02*
G03*
X2135221Y853195I-72007J-4590D01*
G01*
X2135730D02*
Y294469D01*
X2305728D02*
G03*
X2449737Y294537I72002J4658D01*
G01*
X2450230D01*
Y853127D01*
X2449230D02*
G03*
X2305221Y853195I-72007J-4590D01*
G01*
X2305730D02*
Y294469D01*
X2475728D02*
G03*
X2619737Y294537I72002J4658D01*
G01*
X2620230D01*
Y853127D01*
X2619230D02*
G03*
X2475221Y853195I-72007J-4590D01*
G01*
X2475730D02*
Y294469D01*
X2645728D02*
G03*
X2789737Y294537I72002J4658D01*
G01*
X2790230D01*
Y853127D01*
X2789230D02*
G03*
X2645221Y853195I-72007J-4590D01*
G01*
X2645730D02*
Y294469D01*
X2815728D02*
G03*
X2959737Y294537I72002J4658D01*
G01*
X2960230D01*
Y853127D01*
X2959230D02*
G03*
X2815221Y853195I-72007J-4590D01*
G01*
X2815730D02*
Y294469D01*
X2959737Y1014537D02*
X2960230D01*
Y1573127D01*
X2959230D02*
G03*
X2815221Y1573195I-72007J-4590D01*
G01*
X2815730D02*
Y1014469D01*
X2815728D02*
G03*
X2959737Y1014537I72002J4658D01*
G01*
X2790230D02*
Y1573127D01*
X2789230D02*
G03*
X2645221Y1573195I-72007J-4590D01*
G01*
X2645730D02*
Y1014469D01*
X2645728D02*
G03*
X2789737Y1014537I72002J4658D01*
G01*
X2790230D01*
X2620230D02*
Y1573127D01*
X2619230D02*
G03*
X2475221Y1573195I-72007J-4590D01*
G01*
X2475730D02*
Y1014469D01*
X2475728D02*
G03*
X2619737Y1014537I72002J4658D01*
G01*
X2620230D01*
X2450230D02*
Y1573127D01*
X2449230D02*
G03*
X2305221Y1573195I-72007J-4590D01*
G01*
X2305730D02*
Y1014469D01*
X2305728D02*
G03*
X2449737Y1014537I72002J4658D01*
G01*
X2450230D01*
X2280230D02*
Y1573127D01*
X2279230D02*
G03*
X2135221Y1573195I-72007J-4590D01*
G01*
X2135730D02*
Y1014469D01*
X2135728D02*
G03*
X2279737Y1014537I72002J4658D01*
G01*
X2280230D01*
X2110230D02*
Y1573127D01*
X2109230D02*
G03*
X1965221Y1573195I-72007J-4590D01*
G01*
X1965730D02*
Y1014469D01*
X1965728D02*
G03*
X2109737Y1014537I72002J4658D01*
G01*
X2110230D01*
X1940230D02*
Y1573127D01*
X1939230D02*
G03*
X1795221Y1573195I-72007J-4590D01*
G01*
X1795730D02*
Y1014469D01*
X1795728D02*
G03*
X1939737Y1014537I72002J4658D01*
G01*
X1940230D01*
X1770230D02*
Y1573127D01*
X1769230D02*
G03*
X1625221Y1573195I-72007J-4590D01*
G01*
X1625730D02*
Y1014469D01*
X1625728D02*
G03*
X1769737Y1014537I72002J4658D01*
G01*
X1770230D01*
X1600230D02*
Y1573127D01*
X1599230D02*
G03*
X1455221Y1573195I-72007J-4590D01*
G01*
X1455730D02*
Y1014469D01*
X1455728D02*
G03*
X1599737Y1014537I72002J4658D01*
G01*
X1600230D01*
X1430230D02*
Y1573127D01*
X1429230D02*
G03*
X1285221Y1573195I-72007J-4590D01*
G01*
X1285730D02*
Y1014469D01*
X1285728D02*
G03*
X1429737Y1014537I72002J4658D01*
G01*
X1430230D01*
X1260230D02*
Y1573127D01*
X1259230D02*
G03*
X1115221Y1573195I-72007J-4590D01*
G01*
X1115730D02*
Y1014469D01*
X1115728D02*
G03*
X1259737Y1014537I72002J4658D01*
G01*
X1260230D01*
X1090230D02*
Y1573127D01*
X1089230D02*
G03*
X945221Y1573195I-72007J-4590D01*
G01*
X945730D02*
Y1014469D01*
X945728D02*
G03*
X1089737Y1014537I72002J4658D01*
G01*
X1090230D01*
X920230D02*
Y1573127D01*
X919230D02*
G03*
X775221Y1573195I-72007J-4590D01*
G01*
X775730D02*
Y1014469D01*
X775728D02*
G03*
X919737Y1014537I72002J4658D01*
G01*
X920230D01*
X750230D02*
Y1573127D01*
X749230D02*
G03*
X605221Y1573195I-72007J-4590D01*
G01*
X605730D02*
Y1014469D01*
X605728D02*
G03*
X749737Y1014537I72002J4658D01*
G01*
X750230D01*
X580230D02*
Y1573127D01*
X579230D02*
G03*
X435221Y1573195I-72007J-4590D01*
G01*
X435730D02*
Y1014469D01*
X435728D02*
G03*
X579737Y1014537I72002J4658D01*
G01*
X580230D01*
X901410Y1827726D02*
G03*
X901342Y1683717I4590J-72007D01*
G01*
Y1684226D02*
X1460068D01*
Y1684224D02*
G03*
X1460000Y1828233I-4658J72002D01*
G01*
Y1828726D01*
X901410D01*
Y1997726D02*
G03*
X901342Y1853717I4590J-72007D01*
G01*
Y1854226D02*
X1460068D01*
Y1854224D02*
G03*
X1460000Y1998233I-4658J72002D01*
G01*
Y1998726D01*
X901410D01*
Y2167726D02*
G03*
X901342Y2023717I4590J-72007D01*
G01*
Y2024226D02*
X1460068D01*
Y2024224D02*
G03*
X1460000Y2168233I-4658J72002D01*
G01*
Y2168726D01*
X901410D01*
X1621342Y1684226D02*
X2180068D01*
Y1684224D02*
G03*
X2180000Y1828233I-4658J72002D01*
G01*
Y1828726D01*
X1621410D01*
Y1827726D02*
G03*
X1621342Y1683717I4590J-72007D01*
G01*
X1621410Y1997726D02*
G03*
X1621342Y1853717I4590J-72007D01*
G01*
Y1854226D02*
X2180068D01*
Y1854224D02*
G03*
X2180000Y1998233I-4658J72002D01*
G01*
Y1998726D01*
X1621410D01*
Y2167726D02*
G03*
X1621342Y2023717I4590J-72007D01*
G01*
Y2024226D02*
X2180068D01*
Y2024224D02*
G03*
X2180000Y2168233I-4658J72002D01*
G01*
Y2168726D01*
X1621410D01*
X2341342Y1684226D02*
X2900068D01*
Y1684224D02*
G03*
X2900000Y1828233I-4658J72002D01*
G01*
Y1828726D01*
X2341410D01*
Y1827726D02*
G03*
X2341342Y1683717I4590J-72007D01*
G01*
X2341410Y1997726D02*
G03*
X2341342Y1853717I4590J-72007D01*
G01*
Y1854226D02*
X2900068D01*
Y1854224D02*
G03*
X2900000Y1998233I-4658J72002D01*
G01*
Y1998726D01*
X2341410D01*
Y2167726D02*
G03*
X2341342Y2023717I4590J-72007D01*
G01*
Y2024226D02*
X2900068D01*
Y2024224D02*
G03*
X2900000Y2168233I-4658J72002D01*
G01*
Y2168726D01*
X2341410D01*
M02*
