G04 Layer_Color=32768*
%FSLAX44Y44*%
%MOMM*%
G71*
G01*
G75*
%ADD55C,0.0500*%
D55*
X1803940Y1551634D02*
G03*
X1803940Y1551634I0J-18000D01*
G01*
Y1721634D02*
G03*
X1803940Y1721634I0J-18000D01*
G01*
Y1891634D02*
G03*
X1803940Y1891634I0J-18000D01*
G01*
Y2061634D02*
G03*
X1803940Y2061634I0J-18000D01*
G01*
Y2231634D02*
G03*
X1803940Y2231634I0J-18000D01*
G01*
Y2401634D02*
G03*
X1803940Y2401634I0J-18000D01*
G01*
X1576069Y2404764D02*
G03*
X1576069Y2404764I0J-18000D01*
G01*
Y2234764D02*
G03*
X1576069Y2234764I0J-18000D01*
G01*
Y2064764D02*
G03*
X1576069Y2064764I0J-18000D01*
G01*
X1040569Y2403264D02*
G03*
X1040569Y2403264I0J-18000D01*
G01*
Y2233264D02*
G03*
X1040569Y2233264I0J-18000D01*
G01*
Y2063264D02*
G03*
X1040569Y2063264I0J-18000D01*
G01*
X814060Y2232316D02*
G03*
X814060Y2232316I0J-18000D01*
G01*
Y2062316D02*
G03*
X814060Y2062316I0J-18000D01*
G01*
Y1892316D02*
G03*
X814060Y1892316I0J-18000D01*
G01*
Y2402316D02*
G03*
X814060Y2402316I0J-18000D01*
G01*
X278560Y2400816D02*
G03*
X278560Y2400816I0J-18000D01*
G01*
Y2230816D02*
G03*
X278560Y2230816I0J-18000D01*
G01*
Y2060816D02*
G03*
X278560Y2060816I0J-18000D01*
G01*
Y1890816D02*
G03*
X278560Y1890816I0J-18000D01*
G01*
X2339440Y1553134D02*
G03*
X2339440Y1553134I0J-18000D01*
G01*
Y1723134D02*
G03*
X2339440Y1723134I0J-18000D01*
G01*
Y1893134D02*
G03*
X2339440Y1893134I0J-18000D01*
G01*
Y2063134D02*
G03*
X2339440Y2063134I0J-18000D01*
G01*
Y2233134D02*
G03*
X2339440Y2233134I0J-18000D01*
G01*
Y2403134D02*
G03*
X2339440Y2403134I0J-18000D01*
G01*
X2569814Y2362930D02*
G03*
X2569814Y2362930I-18000J0D01*
G01*
X2739814D02*
G03*
X2739814Y2362930I-18000J0D01*
G01*
X2571314Y1827431D02*
G03*
X2571314Y1827431I-18000J0D01*
G01*
X2741314D02*
G03*
X2741314Y1827431I-18000J0D01*
G01*
M02*
