G04 Layer_Color=32768*
%FSLAX44Y44*%
%MOMM*%
G71*
G01*
G75*
%ADD34C,0.1000*%
D34*
X810050Y408774D02*
Y443774D01*
X829050D01*
Y408774D01*
X810050D01*
X819549Y421274D02*
Y431274D01*
X824549Y426274D02*
X814549D01*
X956549Y390274D02*
X966550D01*
X961550Y395274D02*
Y385274D01*
X971049Y372774D02*
X952049D01*
Y407774D01*
X971049D01*
Y372774D01*
X1028549D02*
Y407774D01*
X1047549D01*
Y372774D01*
X1028549D01*
X1038049Y385274D02*
Y395274D01*
X1033049Y390274D02*
X1043049D01*
X1046549Y448414D02*
Y494134D01*
X1027550D01*
Y448414D01*
X1046549D01*
X1053549Y448914D02*
Y494634D01*
X1072549D01*
Y448914D01*
X1053549D01*
X1063049Y466774D02*
Y476774D01*
X1068049Y471774D02*
X1058049D01*
X1042049Y471274D02*
X1032049D01*
X1037049Y476274D02*
Y466274D01*
X1017550Y470774D02*
X1007549D01*
X1012550Y475774D02*
Y465774D01*
X1022049Y447914D02*
Y493634D01*
X1003049D01*
Y447914D01*
X1022049D01*
X995549Y493134D02*
X976550D01*
Y447414D01*
X995549D01*
Y493134D01*
X970549D02*
X951550D01*
Y447414D01*
X970549D01*
Y493134D01*
X966049Y470274D02*
X956049D01*
X961049Y475274D02*
Y465274D01*
X986049D02*
Y475274D01*
X991049Y470274D02*
X981049D01*
X1047549Y542774D02*
Y577774D01*
X1028549D01*
Y542774D01*
X1047549D01*
X1043049Y560274D02*
X1033049D01*
X1038049Y555274D02*
Y565274D01*
X1046549Y618414D02*
Y664134D01*
X1027550D01*
Y618414D01*
X1046549D01*
X1053549Y618914D02*
Y664634D01*
X1072549D01*
Y618914D01*
X1053549D01*
X1063049Y636774D02*
Y646774D01*
X1068049Y641774D02*
X1058049D01*
X1042049Y641274D02*
X1032049D01*
X1037049Y646274D02*
Y636274D01*
X1017550Y640774D02*
X1007549D01*
X1012550Y635774D02*
Y645774D01*
X1022049Y663634D02*
X1003049D01*
Y617914D01*
X1022049D01*
Y663634D01*
X1047549Y712774D02*
Y747774D01*
X1028549D01*
Y712774D01*
X1047549D01*
X1043049Y730274D02*
X1033049D01*
X1038049Y735274D02*
Y725274D01*
X1046549Y788414D02*
Y834134D01*
X1027550D01*
Y788414D01*
X1046549D01*
X1053549Y788914D02*
Y834634D01*
X1072549D01*
Y788914D01*
X1053549D01*
X1063049Y806774D02*
Y816774D01*
X1068049Y811774D02*
X1058049D01*
X1042049Y811274D02*
X1032049D01*
X1037049Y816274D02*
Y806274D01*
X1017550Y810774D02*
X1007549D01*
X1012550Y815774D02*
Y805774D01*
X1022049Y833634D02*
X1003049D01*
Y787914D01*
X1022049D01*
Y833634D01*
X995549Y833134D02*
X976550D01*
Y787414D01*
X995549D01*
Y833134D01*
X970549D02*
X951550D01*
Y787414D01*
X970549D01*
Y833134D01*
X966049Y810274D02*
X956049D01*
X961049Y815274D02*
Y805274D01*
X986049D02*
Y815274D01*
X991049Y810274D02*
X981049D01*
X952049Y747774D02*
X971049D01*
Y712774D01*
X952049D01*
Y747774D01*
X956549Y730274D02*
X966550D01*
X961550Y735274D02*
Y725274D01*
X951550Y663134D02*
Y617414D01*
X970549D01*
Y663134D01*
X951550D01*
X961049Y645274D02*
Y635274D01*
X956049Y640274D02*
X966049D01*
X981049D02*
X991049D01*
X986049Y635274D02*
Y645274D01*
X995549Y663134D02*
X976550D01*
Y617414D01*
X995549D01*
Y663134D01*
X952049Y577774D02*
X971049D01*
Y542774D01*
X952049D01*
Y577774D01*
X956549Y560274D02*
X966550D01*
X961550Y555274D02*
Y565274D01*
X829050Y748774D02*
Y783774D01*
X810050D01*
Y748774D01*
X829050D01*
X819549Y761274D02*
Y771274D01*
X824549Y766274D02*
X814549D01*
X810050Y613774D02*
Y578774D01*
X829050D01*
Y613774D01*
X810050D01*
X819549Y601274D02*
Y591274D01*
X824549Y596274D02*
X814549D01*
X1534550Y426274D02*
X1544550D01*
X1539550Y431274D02*
Y421274D01*
X1549050Y408774D02*
Y443774D01*
X1530049D01*
Y408774D01*
X1549050D01*
X1676550Y390274D02*
X1686550D01*
X1691049Y372774D02*
X1672050D01*
Y407774D01*
X1691049D01*
Y372774D01*
X1748549D02*
Y407774D01*
X1767549D01*
Y372774D01*
X1748549D01*
X1758049Y385274D02*
Y395274D01*
X1753049Y390274D02*
X1763049D01*
X1766550Y448414D02*
Y494134D01*
X1747549D01*
Y448414D01*
X1766550D01*
X1773549Y448914D02*
Y494634D01*
X1792549D01*
Y448914D01*
X1773549D01*
X1783049Y466774D02*
Y476774D01*
X1788049Y471774D02*
X1778049D01*
X1742049Y493634D02*
X1723049D01*
Y447914D01*
X1742049D01*
Y493634D01*
X1737549Y470774D02*
X1727549D01*
X1732549Y475774D02*
Y465774D01*
X1757050Y466274D02*
Y476274D01*
X1762050Y471274D02*
X1752050D01*
X1715549Y493134D02*
X1696550D01*
Y447414D01*
X1715549D01*
Y493134D01*
X1690549D02*
X1671550D01*
Y447414D01*
X1690549D01*
Y493134D01*
X1686049Y470274D02*
X1676049D01*
X1681049Y475274D02*
Y465274D01*
X1706049D02*
Y475274D01*
X1711049Y470274D02*
X1701049D01*
X1681550Y395274D02*
Y385274D01*
X1767549Y542774D02*
Y577774D01*
X1748549D01*
Y542774D01*
X1767549D01*
X1763049Y560274D02*
X1753049D01*
X1758049Y555274D02*
Y565274D01*
X1766550Y618414D02*
Y664134D01*
X1747549D01*
Y618414D01*
X1766550D01*
X1773549Y618914D02*
Y664634D01*
X1792549D01*
Y618914D01*
X1773549D01*
X1783049Y636774D02*
Y646774D01*
X1788049Y641774D02*
X1778049D01*
X1767549Y712774D02*
Y747774D01*
X1748549D01*
Y712774D01*
X1767549D01*
X1763049Y730274D02*
X1753049D01*
X1758049Y735274D02*
Y725274D01*
X1766550Y788414D02*
Y834134D01*
X1747549D01*
Y788414D01*
X1766550D01*
X1773549Y788914D02*
Y834634D01*
X1792549D01*
Y788914D01*
X1773549D01*
X1783049Y806774D02*
Y816774D01*
X1788049Y811774D02*
X1778049D01*
X1762050Y811274D02*
X1752050D01*
X1757050Y816274D02*
Y806274D01*
X1737549Y810774D02*
X1727549D01*
X1732549Y815774D02*
Y805774D01*
X1742049Y833634D02*
X1723049D01*
Y787914D01*
X1742049D01*
Y833634D01*
X1715549Y833134D02*
X1696550D01*
Y787414D01*
X1715549D01*
Y833134D01*
X1690549D02*
X1671550D01*
Y787414D01*
X1690549D01*
Y833134D01*
X1686049Y810274D02*
X1676049D01*
X1681049Y815274D02*
Y805274D01*
X1706049D02*
Y815274D01*
X1711049Y810274D02*
X1701049D01*
X1672050Y747774D02*
X1691049D01*
Y712774D01*
X1672050D01*
Y747774D01*
X1676550Y730274D02*
X1686550D01*
X1681550Y735274D02*
Y725274D01*
X1671550Y663134D02*
Y617414D01*
X1690549D01*
Y663134D01*
X1671550D01*
X1681049Y645274D02*
Y635274D01*
X1676049Y640274D02*
X1686049D01*
X1701049D02*
X1711049D01*
X1706049Y635274D02*
Y645274D01*
X1715549Y663134D02*
X1696550D01*
Y617414D01*
X1715549D01*
Y663134D01*
X1727549Y640774D02*
X1737549D01*
X1732549Y635774D02*
Y645774D01*
X1752050Y641274D02*
X1762050D01*
X1757050Y646274D02*
Y636274D01*
X1742049Y617914D02*
Y663634D01*
X1723049D01*
Y617914D01*
X1742049D01*
X1691049Y577774D02*
X1672050D01*
Y542774D01*
X1691049D01*
Y577774D01*
X1686550Y560274D02*
X1676550D01*
X1681550Y555274D02*
Y565274D01*
X1539550Y601274D02*
Y591274D01*
X1544550Y596274D02*
X1534550D01*
X1530049Y578774D02*
Y613774D01*
X1549050D01*
Y578774D01*
X1530049D01*
Y748774D02*
Y783774D01*
X1549050D01*
Y748774D01*
X1530049D01*
X1539550Y761274D02*
Y771274D01*
X1544550Y766274D02*
X1534550D01*
M02*
