G04 Layer_Color=16711935*
%FSLAX44Y44*%
%MOMM*%
G71*
G01*
G75*
%ADD34C,0.1000*%
D34*
X812550Y415524D02*
Y437024D01*
X826550D01*
Y415524D01*
X812550D01*
X954549Y379524D02*
Y401024D01*
X968549D01*
Y379524D01*
X954549D01*
X1031049D02*
Y401024D01*
X1045049D01*
Y379524D01*
X1031049D01*
X1044049Y460524D02*
Y482024D01*
X1030050D01*
Y460524D01*
X1044049D01*
X1056049Y461024D02*
Y482524D01*
X1070049D01*
Y461024D01*
X1056049D01*
X1019549Y481524D02*
X1005549D01*
Y460024D01*
X1019549D01*
Y481524D01*
X1045049Y549524D02*
Y571024D01*
X1031049D01*
Y549524D01*
X1045049D01*
X1044049Y630524D02*
Y652024D01*
X1030050D01*
Y630524D01*
X1044049D01*
X1056049Y631024D02*
Y652524D01*
X1070049D01*
Y631024D01*
X1056049D01*
X1019549Y651524D02*
X1005549D01*
Y630024D01*
X1019549D01*
Y651524D01*
X1045049Y719524D02*
Y741024D01*
X1031049D01*
Y719524D01*
X1045049D01*
X1044049Y800524D02*
Y822024D01*
X1030050D01*
Y800524D01*
X1044049D01*
X1056049Y801024D02*
Y822524D01*
X1070049D01*
Y801024D01*
X1056049D01*
X1019549Y821524D02*
X1005549D01*
Y800024D01*
X1019549D01*
Y821524D01*
X993049Y821024D02*
X979050D01*
Y799524D01*
X993049D01*
Y821024D01*
X968049D02*
X954050D01*
Y799524D01*
X968049D01*
Y821024D01*
X954549Y741024D02*
X968549D01*
Y719524D01*
X954549D01*
Y741024D01*
X954050Y651024D02*
Y629524D01*
X968049D01*
Y651024D01*
X954050D01*
X979050Y629524D02*
Y651024D01*
X993049D01*
Y629524D01*
X979050D01*
X968549Y571024D02*
X954549D01*
Y549524D01*
X968549D01*
Y571024D01*
X954050Y481024D02*
Y459524D01*
X968049D01*
Y481024D01*
X954050D01*
X979050Y459524D02*
Y481024D01*
X993049D01*
Y459524D01*
X979050D01*
X826550Y607024D02*
X812550D01*
Y585524D01*
X826550D01*
Y607024D01*
Y755524D02*
Y777024D01*
X812550D01*
Y755524D01*
X826550D01*
X1532549Y437024D02*
Y415524D01*
X1546550D01*
Y437024D01*
X1532549D01*
X1674550Y379524D02*
Y401024D01*
X1688549D01*
Y379524D01*
X1674550D01*
X1751049D02*
Y401024D01*
X1765049D01*
Y379524D01*
X1751049D01*
X1764050Y460524D02*
Y482024D01*
X1750049D01*
Y460524D01*
X1764050D01*
X1776049Y461024D02*
Y482524D01*
X1790049D01*
Y461024D01*
X1776049D01*
X1739550Y481524D02*
X1725549D01*
Y460024D01*
X1739550D01*
Y481524D01*
X1765049Y549524D02*
Y571024D01*
X1751049D01*
Y549524D01*
X1765049D01*
X1764050Y630524D02*
Y652024D01*
X1750049D01*
Y630524D01*
X1764050D01*
X1776049Y631024D02*
Y652524D01*
X1790049D01*
Y631024D01*
X1776049D01*
X1739550Y651524D02*
X1725549D01*
Y630024D01*
X1739550D01*
Y651524D01*
X1765049Y719524D02*
Y741024D01*
X1751049D01*
Y719524D01*
X1765049D01*
X1764050Y800524D02*
Y822024D01*
X1750049D01*
Y800524D01*
X1764050D01*
X1776049Y801024D02*
Y822524D01*
X1790049D01*
Y801024D01*
X1776049D01*
X1739550Y821524D02*
X1725549D01*
Y800024D01*
X1739550D01*
Y821524D01*
X1713049Y821024D02*
X1699050D01*
Y799524D01*
X1713049D01*
Y821024D01*
X1688049D02*
X1674050D01*
Y799524D01*
X1688049D01*
Y821024D01*
X1674550Y741024D02*
X1688549D01*
Y719524D01*
X1674550D01*
Y741024D01*
X1674050Y651024D02*
Y629524D01*
X1688049D01*
Y651024D01*
X1674050D01*
X1699050Y629524D02*
Y651024D01*
X1713049D01*
Y629524D01*
X1699050D01*
X1688549Y571024D02*
X1674550D01*
Y549524D01*
X1688549D01*
Y571024D01*
X1674050Y481024D02*
Y459524D01*
X1688049D01*
Y481024D01*
X1674050D01*
X1699050Y459524D02*
Y481024D01*
X1713049D01*
Y459524D01*
X1699050D01*
X1546550Y607024D02*
X1532549D01*
Y585524D01*
X1546550D01*
Y607024D01*
Y755524D02*
Y777024D01*
X1532549D01*
Y755524D01*
X1546550D01*
M02*
