G04 Layer_Color=32768*
%FSLAX44Y44*%
%MOMM*%
G71*
G01*
G75*
%ADD55C,0.0500*%
D55*
X526730Y299627D02*
G03*
X526730Y299627I-18000J0D01*
G01*
X696730D02*
G03*
X696730Y299627I-18000J0D01*
G01*
X866730D02*
G03*
X866730Y299627I-18000J0D01*
G01*
X1036730D02*
G03*
X1036730Y299627I-18000J0D01*
G01*
X1206730D02*
G03*
X1206730Y299627I-18000J0D01*
G01*
X1376730D02*
G03*
X1376730Y299627I-18000J0D01*
G01*
X1546730D02*
G03*
X1546730Y299627I-18000J0D01*
G01*
X1716730D02*
G03*
X1716730Y299627I-18000J0D01*
G01*
X1886730D02*
G03*
X1886730Y299627I-18000J0D01*
G01*
X2056730D02*
G03*
X2056730Y299627I-18000J0D01*
G01*
X2226730D02*
G03*
X2226730Y299627I-18000J0D01*
G01*
X2396730D02*
G03*
X2396730Y299627I-18000J0D01*
G01*
X2566730D02*
G03*
X2566730Y299627I-18000J0D01*
G01*
X2736730D02*
G03*
X2736730Y299627I-18000J0D01*
G01*
X2906730D02*
G03*
X2906730Y299627I-18000J0D01*
G01*
X2905230Y835127D02*
G03*
X2905230Y835127I-18000J0D01*
G01*
X2906730Y1019627D02*
G03*
X2906730Y1019627I-18000J0D01*
G01*
X2736730D02*
G03*
X2736730Y1019627I-18000J0D01*
G01*
X2735230Y835127D02*
G03*
X2735230Y835127I-18000J0D01*
G01*
X2566730Y1019627D02*
G03*
X2566730Y1019627I-18000J0D01*
G01*
X2565230Y835127D02*
G03*
X2565230Y835127I-18000J0D01*
G01*
X2396730Y1019627D02*
G03*
X2396730Y1019627I-18000J0D01*
G01*
X2395230Y835127D02*
G03*
X2395230Y835127I-18000J0D01*
G01*
X2226730Y1019627D02*
G03*
X2226730Y1019627I-18000J0D01*
G01*
X2225230Y835127D02*
G03*
X2225230Y835127I-18000J0D01*
G01*
X2056730Y1019627D02*
G03*
X2056730Y1019627I-18000J0D01*
G01*
X2055230Y835127D02*
G03*
X2055230Y835127I-18000J0D01*
G01*
X1886730Y1019627D02*
G03*
X1886730Y1019627I-18000J0D01*
G01*
X1885230Y835127D02*
G03*
X1885230Y835127I-18000J0D01*
G01*
X1716730Y1019627D02*
G03*
X1716730Y1019627I-18000J0D01*
G01*
X1715230Y835127D02*
G03*
X1715230Y835127I-18000J0D01*
G01*
X1546730Y1019627D02*
G03*
X1546730Y1019627I-18000J0D01*
G01*
X1545230Y835127D02*
G03*
X1545230Y835127I-18000J0D01*
G01*
X1376730Y1019627D02*
G03*
X1376730Y1019627I-18000J0D01*
G01*
X1375230Y835127D02*
G03*
X1375230Y835127I-18000J0D01*
G01*
X1206730Y1019627D02*
G03*
X1206730Y1019627I-18000J0D01*
G01*
X1205230Y835127D02*
G03*
X1205230Y835127I-18000J0D01*
G01*
X1036730Y1019627D02*
G03*
X1036730Y1019627I-18000J0D01*
G01*
X1035230Y835127D02*
G03*
X1035230Y835127I-18000J0D01*
G01*
X866730Y1019627D02*
G03*
X866730Y1019627I-18000J0D01*
G01*
X865230Y835127D02*
G03*
X865230Y835127I-18000J0D01*
G01*
X696730Y1019627D02*
G03*
X696730Y1019627I-18000J0D01*
G01*
X695230Y835127D02*
G03*
X695230Y835127I-18000J0D01*
G01*
X526730Y1019627D02*
G03*
X526730Y1019627I-18000J0D01*
G01*
X525230Y835127D02*
G03*
X525230Y835127I-18000J0D01*
G01*
X1205230Y1555127D02*
G03*
X1205230Y1555127I-18000J0D01*
G01*
X1035230D02*
G03*
X1035230Y1555127I-18000J0D01*
G01*
X919410Y1773726D02*
G03*
X919410Y1773726I0J-18000D01*
G01*
X865230Y1555127D02*
G03*
X865230Y1555127I-18000J0D01*
G01*
X695230D02*
G03*
X695230Y1555127I-18000J0D01*
G01*
X525230D02*
G03*
X525230Y1555127I-18000J0D01*
G01*
X919410Y1943726D02*
G03*
X919410Y1943726I0J-18000D01*
G01*
Y2113726D02*
G03*
X919410Y2113726I0J-18000D01*
G01*
X1454910Y1775226D02*
G03*
X1454910Y1775226I0J-18000D01*
G01*
X1375230Y1555127D02*
G03*
X1375230Y1555127I-18000J0D01*
G01*
X1545230D02*
G03*
X1545230Y1555127I-18000J0D01*
G01*
X1715230D02*
G03*
X1715230Y1555127I-18000J0D01*
G01*
X1885230D02*
G03*
X1885230Y1555127I-18000J0D01*
G01*
X2055230D02*
G03*
X2055230Y1555127I-18000J0D01*
G01*
X2225230D02*
G03*
X2225230Y1555127I-18000J0D01*
G01*
X2395230D02*
G03*
X2395230Y1555127I-18000J0D01*
G01*
X2565230D02*
G03*
X2565230Y1555127I-18000J0D01*
G01*
X2735230D02*
G03*
X2735230Y1555127I-18000J0D01*
G01*
X2905230D02*
G03*
X2905230Y1555127I-18000J0D01*
G01*
X2894910Y1775226D02*
G03*
X2894910Y1775226I0J-18000D01*
G01*
Y1945226D02*
G03*
X2894910Y1945226I0J-18000D01*
G01*
Y2115226D02*
G03*
X2894910Y2115226I0J-18000D01*
G01*
X2359410Y2113726D02*
G03*
X2359410Y2113726I0J-18000D01*
G01*
Y1943726D02*
G03*
X2359410Y1943726I0J-18000D01*
G01*
Y1773726D02*
G03*
X2359410Y1773726I0J-18000D01*
G01*
X2174910Y1945226D02*
G03*
X2174910Y1945226I0J-18000D01*
G01*
Y1775226D02*
G03*
X2174910Y1775226I0J-18000D01*
G01*
Y2115226D02*
G03*
X2174910Y2115226I0J-18000D01*
G01*
X1639410Y2113726D02*
G03*
X1639410Y2113726I0J-18000D01*
G01*
Y1943726D02*
G03*
X1639410Y1943726I0J-18000D01*
G01*
Y1773726D02*
G03*
X1639410Y1773726I0J-18000D01*
G01*
X1454910Y1945226D02*
G03*
X1454910Y1945226I0J-18000D01*
G01*
Y2115226D02*
G03*
X1454910Y2115226I0J-18000D01*
G01*
M02*
