M48
;Layer_Color=9474304
;FILE_FORMAT=4:4
METRIC,TZ
;TYPE=PLATED
T1F00S00C1.0000
T2F00S00C3.0000
%
T01
X2092339Y1503134
Y1528534
X2117740
Y1503134
X2143139
Y1528534
X2168539
Y1503134
X2193940
Y1528534
X668560Y1842316
X643160
X617760
X592360
X566960
Y1867716
X592360
X617760
X643160
X668560
X2092339Y1868534
Y1843134
X2117740
Y1868534
X2143139
Y1843134
X2168539
Y1868534
X2193940
Y1843134
Y1698534
X2168539
X2143139
X2117740
X2092339
Y1673134
X2117740
X2143139
X2168539
X2193940
X2521314Y1972930
X2546714
X2691314
X2716714
Y1998331
Y2023730
Y2049131
Y2074530
X2691314
Y2049131
Y2023730
Y1998331
X2546714
Y2023730
Y2049131
Y2074530
X2521314
Y2049131
Y2023730
Y1998331
X2193940Y2013134
X2168539
X2143139
X2117740
X2092339
Y2038534
X2117740
X2143139
X2168539
X2193940
Y2183134
X2168539
X2143139
X2117740
X2092339
Y2208534
X2117740
X2143139
X2168539
X2193940
Y2353134
X2168539
X2143139
X2117740
X2092339
Y2378534
X2117740
X2143139
X2168539
X2193940
X1430569Y2380164
X1405169
X1379769
X1354369
X1328969
Y2354764
X1354369
X1379769
X1405169
X1430569
Y2210164
X1405169
X1379769
X1354369
X1328969
Y2184764
X1354369
X1379769
X1405169
X1430569
Y2040164
X1405169
X1379769
X1354369
X1328969
Y2014764
X1354369
X1379769
X1405169
X1430569
X668560Y2012316
X643160
X617760
X592360
X566960
Y2037716
X592360
X617760
X643160
X668560
Y2182316
X643160
X617760
X592360
X566960
Y2207716
X592360
X617760
X643160
X668560
Y2352316
X643160
X617760
X592360
X566960
Y2377716
X592360
X617760
X643160
X668560
T02
X2339440Y1535134
X1803940Y1533634
X278560Y1872816
X814060Y1874316
X1803940Y1873634
Y1703634
X2339440Y1705134
Y1875134
X2553314Y1827431
X2723314
X2721814Y2362930
X2551814
X2339440Y2215134
Y2045134
X1803940Y2043634
Y2213634
X1576069Y2216764
Y2046764
X1040569Y2045264
Y2215264
X814060Y2214316
Y2044316
X278560Y2042816
Y2212816
Y2382816
X814060Y2384316
X1040569Y2385264
X1576069Y2386764
X1803940Y2383634
X2339440Y2385134
M30
