M48
;Layer_Color=9474304
;FILE_FORMAT=4:4
METRIC,TZ
;TYPE=PLATED
T1F00S00C1.0000
T2F00S00C3.0000
%
T01
X1681449Y415274
Y440674
X1706850
Y415274
X1732249
Y440674
X1757650
Y415274
X1783049
Y440674
Y585274
X1757650
X1732249
X1706850
X1681449
Y610674
X1706850
X1732249
X1757650
X1783049
Y755274
X1757650
X1732249
X1706850
X1681449
Y780674
X1706850
X1732249
X1757650
X1783049
X1063049
X1037650
X1012250
X986850
X961450
Y755274
X986850
X1012250
X1037650
X1063049
Y610674
X1037650
X1012250
X986850
X961450
Y585274
X986850
X1012250
X1037650
X1063049
Y440674
X1037650
X1012250
X986850
X961450
Y415274
X986850
X1012250
X1037650
X1063049
T02
X1928549Y447274
Y617274
Y787274
X1393049Y785774
Y615774
Y445774
X1208549Y447274
Y617274
Y787274
X673049Y785774
Y615774
Y445774
M30
