M48
;Layer_Color=9474304
;FILE_FORMAT=4:4
METRIC,TZ
;TYPE=PLATED
T1F00S00C1.0000
T2F00S00C3.0000
%
T01
X2856730Y445127
Y470527
Y495927
Y521327
Y546727
X2882130
Y521327
Y495927
Y470527
Y445127
X2712130
Y470527
Y495927
Y521327
Y546727
X2686730
Y521327
Y495927
Y470527
Y445127
X2542130
Y470527
Y495927
Y521327
Y546727
X2516730
Y521327
Y495927
Y470527
Y445127
X2372130
Y470527
Y495927
Y521327
Y546727
X2346730
Y521327
Y495927
Y470527
Y445127
X2202130
Y470527
Y495927
Y521327
Y546727
X2176730
Y521327
Y495927
Y470527
Y445127
X2032130
Y470527
Y495927
Y521327
Y546727
X2006730
Y521327
Y495927
Y470527
Y445127
X1862130
Y470527
Y495927
Y521327
Y546727
X1836730
Y521327
Y495927
Y470527
Y445127
X1692130
Y470527
Y495927
Y521327
Y546727
X1666730
Y521327
Y495927
Y470527
Y445127
X1522130
Y470527
Y495927
Y521327
Y546727
X1496730
Y521327
Y495927
Y470527
Y445127
X1352130
Y470527
Y495927
Y521327
Y546727
X1326730
Y521327
Y495927
Y470527
Y445127
X1182130
Y470527
Y495927
Y521327
Y546727
X1156730
Y521327
Y495927
Y470527
Y445127
X1012130
Y470527
Y495927
Y521327
Y546727
X986730
Y521327
Y495927
Y470527
Y445127
X842130
Y470527
Y495927
Y521327
Y546727
X816730
Y521327
Y495927
Y470527
Y445127
X672130
Y470527
Y495927
Y521327
Y546727
X646730
Y521327
Y495927
Y470527
Y445127
X502130
Y470527
Y495927
Y521327
Y546727
X476730
Y521327
Y495927
Y470527
Y445127
Y1165127
Y1190527
X502130
Y1165127
X646730
Y1190527
X672130
Y1165127
X816730
Y1190527
X842130
Y1165127
X986730
Y1190527
X1012130
Y1165127
X1156730
Y1190527
X1182130
Y1165127
X1326730
Y1190527
X1352130
Y1165127
X1496730
Y1190527
X1522130
Y1165127
X1666730
Y1190527
X1692130
Y1165127
X1836730
Y1190527
X1862130
Y1165127
X2006730
Y1190527
X2032130
Y1165127
X2176730
Y1190527
X2202130
Y1165127
X2346730
Y1190527
X2372130
Y1165127
X2516730
Y1190527
X2542130
Y1165127
X2686730
Y1190527
X2712130
Y1165127
X2856730
Y1190527
X2882130
Y1165127
Y1215927
Y1241327
Y1266727
X2856730
Y1241327
Y1215927
X2712130
Y1241327
Y1266727
X2686730
Y1241327
Y1215927
X2542130
Y1241327
Y1266727
X2516730
Y1241327
Y1215927
X2372130
Y1241327
Y1266727
X2346730
Y1241327
Y1215927
X2202130
Y1241327
Y1266727
X2176730
Y1241327
Y1215927
X2032130
Y1241327
Y1266727
X2006730
Y1241327
Y1215927
X1862130
Y1241327
Y1266727
X1836730
Y1241327
Y1215927
X1692130
Y1241327
Y1266727
X1666730
Y1241327
Y1215927
X1522130
Y1241327
Y1266727
X1496730
Y1241327
Y1215927
X1352130
Y1241327
Y1266727
X1326730
Y1241327
Y1215927
X1182130
Y1241327
Y1266727
X1156730
Y1241327
Y1215927
X1012130
Y1241327
Y1266727
X986730
Y1241327
Y1215927
X842130
Y1241327
Y1266727
X816730
Y1241327
Y1215927
X672130
Y1241327
Y1266727
X646730
Y1241327
Y1215927
X502130
Y1241327
Y1266727
X476730
Y1241327
Y1215927
X1207810Y1725226
Y1750626
X1233210
Y1725226
X1258610
Y1750626
X1284010
Y1725226
X1309410
Y1750626
Y1895226
X1284010
X1258610
X1233210
X1207810
Y1920626
X1233210
X1258610
X1284010
X1309410
X1927810
Y1895226
X1953210
Y1920626
X1978610
Y1895226
Y1750626
X1953210
X1927810
Y1725226
X1953210
X1978610
X2004010
Y1750626
X2029410
Y1725226
Y1895226
X2004010
Y1920626
X2029410
X2647810
Y1895226
X2673210
Y1920626
X2698610
Y1895226
X2724010
Y1920626
X2749410
Y1895226
Y1750626
X2724010
X2698610
X2673210
X2647810
Y1725226
X2673210
X2698610
X2724010
X2749410
Y2065226
X2724010
X2698610
X2673210
X2647810
Y2090626
X2673210
X2698610
X2724010
X2749410
X2029410
X2004010
Y2065226
X2029410
X1978610
X1953210
X1927810
Y2090626
X1953210
X1978610
X1309410
X1284010
X1258610
X1233210
X1207810
Y2065226
X1233210
X1258610
X1284010
X1309410
T02
X508730Y299627
X678730
X848730
X1018730
X1188730
X1358730
X1528730
X1698730
X1868730
X2038730
X2208730
X2378730
X2548730
X2718730
X2888730
X677230Y835127
X507230
X508730Y1019627
X678730
X848730
X1018730
X1188730
X1187230Y835127
X1017230
X847230
X1357230
X1527230
X1528730Y1019627
X1358730
X1698730
X1868730
X1867230Y835127
X1697230
X2037230
X2207230
X2377230
X2378730Y1019627
X2208730
X2038730
X2548730
X2718730
X2717230Y835127
X2547230
X2887230
X2888730Y1019627
X2887230Y1555127
X2717230
X2547230
X2377230
X2207230
X2037230
X1867230
X1697230
X1527230
X1357230
X1187230
X1017230
X847230
X677230
X507230
X919410Y1755726
Y1925726
X1454910Y1927226
Y1757226
X1639410Y1755726
Y1925726
X2174910Y1927226
Y1757226
X2359410Y1755726
Y1925726
X2894910Y1927226
Y1757226
Y2097226
X2359410Y2095726
X2174910Y2097226
X1639410Y2095726
X1454910Y2097226
X919410Y2095726
M30
